<?xml version="1.0" encoding="UTF-8"?>
<!DOCTYPE svg PUBLIC "-//W3C//DTD SVG 1.1//EN" "http://www.w3.org/Graphics/SVG/1.1/DTD/svg11.dtd">
<svg xmlns="http://www.w3.org/2000/svg" version="1.1" width="657px" height="380px" style="shape-rendering:geometricPrecision; text-rendering:geometricPrecision; image-rendering:optimizeQuality; fill-rule:evenodd; clip-rule:evenodd" xmlns:xlink="http://www.w3.org/1999/xlink">
<g><path style="opacity:1" fill="#6213bb" d="M 444.5,2.5 C 463.221,2.07838 481.887,2.74505 500.5,4.5C 505.827,6.7842 511.493,8.11753 517.5,8.5C 517.833,8.5 518.167,8.5 518.5,8.5C 521.461,10.086 524.294,12.086 527,14.5C 528.699,13.5939 530.533,13.2606 532.5,13.5C 532.833,13.5 533.167,13.5 533.5,13.5C 534.287,15.1042 535.62,15.7709 537.5,15.5C 538.492,15.3284 539.158,15.6618 539.5,16.5C 540.78,17.9313 542.447,18.5979 544.5,18.5C 548.151,19.6589 551.485,21.3256 554.5,23.5C 555.659,25.2503 557.326,26.2503 559.5,26.5C 561.153,26.6596 562.486,27.3263 563.5,28.5C 564.733,30.7964 566.733,32.1298 569.5,32.5C 570.492,32.3284 571.158,32.6618 571.5,33.5C 572.035,35.4456 573.368,36.4456 575.5,36.5C 576.035,38.4456 577.368,39.4456 579.5,39.5C 580.539,41.5311 582.205,42.8645 584.5,43.5C 585.5,43.8333 586.167,44.5 586.5,45.5C 586.973,46.9063 587.973,47.573 589.5,47.5C 590.833,48.1667 591.833,49.1667 592.5,50.5C 594.9,53.9031 597.9,56.5698 601.5,58.5C 602.419,61.0892 604.086,63.0892 606.5,64.5C 607.757,67.4274 609.757,69.7607 612.5,71.5C 612.738,73.4044 613.738,74.7377 615.5,75.5C 615.427,77.0269 616.094,78.0269 617.5,78.5C 617.738,80.4044 618.738,81.7377 620.5,82.5C 620.427,84.0269 621.094,85.0269 622.5,85.5C 622.427,87.0269 623.094,88.0269 624.5,88.5C 625.338,88.8417 625.672,89.5084 625.5,90.5C 625.427,92.0269 626.094,93.0269 627.5,93.5C 628.338,93.8417 628.672,94.5084 628.5,95.5C 628.427,97.0269 629.094,98.0269 630.5,98.5C 631.674,99.5137 632.34,100.847 632.5,102.5C 632.157,104.483 632.824,105.817 634.5,106.5C 637.284,110.405 639.284,114.738 640.5,119.5C 640.12,121.698 640.787,123.365 642.5,124.5C 642.5,124.833 642.5,125.167 642.5,125.5C 642.12,127.698 642.787,129.365 644.5,130.5C 645.434,131.568 645.768,132.901 645.5,134.5C 645.41,137.152 646.076,139.485 647.5,141.5C 647.41,144.152 648.076,146.485 649.5,148.5C 649.5,148.833 649.5,149.167 649.5,149.5C 650.498,158.161 651.498,166.828 652.5,175.5C 652.5,182.5 652.5,189.5 652.5,196.5C 652.552,203.206 652.052,209.872 651,216.5C 649.492,224.527 647.992,232.527 646.5,240.5C 643.875,245.041 642.209,250.041 641.5,255.5C 638.591,263.916 634.924,271.916 630.5,279.5C 629.5,279.5 628.5,279.5 627.5,279.5C 627.5,281.167 627.5,282.833 627.5,284.5C 626.094,284.973 625.427,285.973 625.5,287.5C 619.957,297.915 612.957,307.249 604.5,315.5C 603.094,315.973 602.427,316.973 602.5,318.5C 602.027,319.906 601.027,320.573 599.5,320.5C 598.5,320.833 597.833,321.5 597.5,322.5C 593.793,327.208 589.46,331.208 584.5,334.5C 582.973,334.427 581.973,335.094 581.5,336.5C 574.321,343.003 566.321,348.336 557.5,352.5C 555.973,352.427 554.973,353.094 554.5,354.5C 541.919,361.585 528.586,366.919 514.5,370.5C 507.529,370.915 500.862,372.248 494.5,374.5C 492.283,375.369 489.95,375.702 487.5,375.5C 473.167,375.5 458.833,375.5 444.5,375.5C 444.167,375.5 443.833,375.5 443.5,375.5C 437.845,373.224 431.845,372.224 425.5,372.5C 423.485,371.076 421.152,370.41 418.5,370.5C 416.901,370.768 415.568,370.434 414.5,369.5C 412.485,368.076 410.152,367.41 407.5,367.5C 393.562,363.362 380.562,357.362 368.5,349.5C 368.027,348.094 367.027,347.427 365.5,347.5C 364.508,347.672 363.842,347.338 363.5,346.5C 363.027,345.094 362.027,344.427 360.5,344.5C 358.596,344.262 357.262,343.262 356.5,341.5C 355.415,339.413 353.749,338.08 351.5,337.5C 350.738,335.738 349.404,334.738 347.5,334.5C 346.415,332.413 344.749,331.08 342.5,330.5C 340.167,328.833 338.167,326.833 336.5,324.5C 335.415,322.413 333.749,321.08 331.5,320.5C 317.454,306.449 306.121,290.449 297.5,272.5C 296.018,267.544 294.018,262.877 291.5,258.5C 291.598,256.447 290.931,254.78 289.5,253.5C 289.579,252.07 289.246,250.736 288.5,249.5C 290.184,248.85 291.517,247.85 292.5,246.5C 293.959,246.433 295.292,246.766 296.5,247.5C 296.12,249.698 296.787,251.365 298.5,252.5C 298.5,252.833 298.5,253.167 298.5,253.5C 298.166,256.491 299.166,258.824 301.5,260.5C 302.931,261.78 303.598,263.447 303.5,265.5C 303.427,267.027 304.094,268.027 305.5,268.5C 306.773,270.713 307.773,273.046 308.5,275.5C 308.427,277.027 309.094,278.027 310.5,278.5C 311.338,278.842 311.672,279.508 311.5,280.5C 311.427,282.027 312.094,283.027 313.5,283.5C 313.427,285.027 314.094,286.027 315.5,286.5C 316.338,286.842 316.672,287.508 316.5,288.5C 316.427,290.027 317.094,291.027 318.5,291.5C 318.738,293.404 319.738,294.738 321.5,295.5C 321.427,297.027 322.094,298.027 323.5,298.5C 324.08,300.749 325.413,302.415 327.5,303.5C 329.167,304.5 330.5,305.833 331.5,307.5C 332.419,310.089 334.086,312.089 336.5,313.5C 337.167,313.833 337.833,314.167 338.5,314.5C 339.5,317.5 341.5,319.5 344.5,320.5C 346.167,321.5 347.5,322.833 348.5,324.5C 349.382,329.326 352.716,331.992 358.5,332.5C 361.523,334.533 364.523,336.533 367.5,338.5C 368.035,340.446 369.368,341.446 371.5,341.5C 371.833,341.5 372.167,341.5 372.5,341.5C 373.035,343.446 374.368,344.446 376.5,344.5C 382.151,346.659 387.484,349.326 392.5,352.5C 392.5,353.5 392.5,354.5 392.5,355.5C 394.833,355.5 397.167,355.5 399.5,355.5C 406.095,357.698 412.762,359.698 419.5,361.5C 421.858,363.129 424.524,364.295 427.5,365C 448.719,368.835 470.052,369.501 491.5,367C 496.801,366.59 501.801,365.423 506.5,363.5C 509.428,363.435 512.095,362.768 514.5,361.5C 521.698,360.325 528.365,357.991 534.5,354.5C 538.907,354.125 542.574,352.458 545.5,349.5C 546.514,348.326 547.847,347.66 549.5,347.5C 551.027,347.573 552.027,346.906 552.5,345.5C 552.833,345.5 553.167,345.5 553.5,345.5C 555.027,345.573 556.027,344.906 556.5,343.5C 558.794,341.347 561.46,339.68 564.5,338.5C 566.027,338.573 567.027,337.906 567.5,336.5C 569.027,336.573 570.027,335.906 570.5,334.5C 572.027,334.573 573.027,333.906 573.5,332.5C 575.749,331.92 577.415,330.587 578.5,328.5C 580.749,327.92 582.415,326.587 583.5,324.5C 588.833,321.167 593.167,316.833 596.5,311.5C 597.5,309.833 598.833,308.5 600.5,307.5C 602.587,306.415 603.92,304.749 604.5,302.5C 604.833,301.5 605.5,300.833 606.5,300.5C 607.906,300.027 608.573,299.027 608.5,297.5C 611.117,292.886 614.117,288.553 617.5,284.5C 618.906,284.027 619.573,283.027 619.5,281.5C 619.328,280.508 619.662,279.842 620.5,279.5C 621.906,279.027 622.573,278.027 622.5,276.5C 626.537,267.764 630.537,259.098 634.5,250.5C 636.074,248.898 636.741,246.898 636.5,244.5C 638.074,242.898 638.741,240.898 638.5,238.5C 638.325,236.379 638.659,234.379 639.5,232.5C 641.163,230.562 641.829,228.228 641.5,225.5C 642.268,224.737 642.768,223.737 643,222.5C 643.498,219.183 643.665,215.85 643.5,212.5C 643.5,212.167 643.5,211.833 643.5,211.5C 644.29,210.391 644.79,209.058 645,207.5C 645.825,197.325 645.658,187.325 644.5,177.5C 643.728,173.548 643.395,169.548 643.5,165.5C 644.036,158.332 642.702,151.665 639.5,145.5C 638.699,143.958 638.366,142.292 638.5,140.5C 638.88,138.302 638.213,136.635 636.5,135.5C 630.964,118.429 623.297,102.429 613.5,87.5C 606.812,76.4875 598.479,66.8208 588.5,58.5C 588.167,58.5 587.833,58.5 587.5,58.5C 586.167,56.8333 584.833,55.1667 583.5,53.5C 582.415,51.4131 580.749,50.0798 578.5,49.5C 578.027,48.0937 577.027,47.427 575.5,47.5C 574.5,47.1667 573.833,46.5 573.5,45.5C 573.027,44.0937 572.027,43.427 570.5,43.5C 568.205,42.5254 566.205,41.1921 564.5,39.5C 564.027,38.0937 563.027,37.427 561.5,37.5C 561.027,36.0937 560.027,35.427 558.5,35.5C 556.847,35.3404 555.514,34.6737 554.5,33.5C 554.027,32.0937 553.027,31.427 551.5,31.5C 542.997,27.4434 534.33,23.7768 525.5,20.5C 524.365,18.7868 522.698,18.1201 520.5,18.5C 520.167,18.5 519.833,18.5 519.5,18.5C 518.365,16.7868 516.698,16.1201 514.5,16.5C 508.813,14.2478 502.813,12.9144 496.5,12.5C 493.615,12.8064 490.948,12.4731 488.5,11.5C 486.708,10.6909 484.708,10.1909 482.5,10C 469.993,9.17347 457.66,9.34014 445.5,10.5C 434.962,11.0703 424.962,13.4036 415.5,17.5C 415.167,17.5 414.833,17.5 414.5,17.5C 412.102,17.2594 410.102,17.9261 408.5,19.5C 391.401,25.7161 375.401,34.0494 360.5,44.5C 358.801,44.3398 357.134,44.5065 355.5,45C 356.252,45.6708 356.586,46.5041 356.5,47.5C 355.71,48.4013 354.71,49.0679 353.5,49.5C 352.127,49.3433 350.793,49.51 349.5,50C 350.598,50.7697 350.598,51.603 349.5,52.5C 346.833,55.8333 343.833,58.8333 340.5,61.5C 339.577,60.6971 338.577,60.5304 337.5,61C 335,63.5 332.5,66 330,68.5C 329.51,69.7932 329.343,71.1266 329.5,72.5C 329.167,73.5 328.5,74.1667 327.5,74.5C 326.094,74.9731 325.427,75.9731 325.5,77.5C 319.239,86.3648 313.239,95.3648 307.5,104.5C 306.326,105.514 305.66,106.847 305.5,108.5C 302.754,111.999 301.087,115.999 300.5,120.5C 298.352,123.462 296.686,126.795 295.5,130.5C 294.675,131.386 293.675,131.719 292.5,131.5C 290.901,131.768 289.568,131.434 288.5,130.5C 289.75,127.994 290.416,125.327 290.5,122.5C 290.5,122.167 290.5,121.833 290.5,121.5C 292.213,120.365 292.88,118.698 292.5,116.5C 294.384,110.402 297.051,104.735 300.5,99.5C 301.906,99.0269 302.573,98.0269 302.5,96.5C 304.408,95.5144 305.408,93.8477 305.5,91.5C 306.906,91.0269 307.573,90.0269 307.5,88.5C 307.845,85.8021 309.178,83.8021 311.5,82.5C 312.906,82.0269 313.573,81.0269 313.5,79.5C 315.262,78.7377 316.262,77.4044 316.5,75.5C 316.738,73.5956 317.738,72.2623 319.5,71.5C 322.243,69.7607 324.243,67.4274 325.5,64.5C 325.833,63.5 326.5,62.8333 327.5,62.5C 329.262,61.7377 330.262,60.4044 330.5,58.5C 334.1,56.5698 337.1,53.9031 339.5,50.5C 342.764,48.9059 345.431,46.5725 347.5,43.5C 349.749,42.9202 351.415,41.5869 352.5,39.5C 354.404,39.2624 355.738,38.2624 356.5,36.5C 357.262,34.7376 358.596,33.7376 360.5,33.5C 362.027,33.573 363.027,32.9063 363.5,31.5C 363.842,30.6618 364.508,30.3284 365.5,30.5C 367.027,30.573 368.027,29.9063 368.5,28.5C 370.027,28.573 371.027,27.9063 371.5,26.5C 372.514,25.3263 373.847,24.6596 375.5,24.5C 378.454,23.5721 381.454,22.7388 384.5,22C 383.944,21.6174 383.611,21.1174 383.5,20.5C 383.842,19.6618 384.508,19.3284 385.5,19.5C 390.704,18.56 395.37,16.56 399.5,13.5C 400.93,12.4625 402.597,11.7959 404.5,11.5C 408.162,11.2766 411.495,10.2766 414.5,8.5C 416.905,7.2318 419.572,6.56513 422.5,6.5C 425.495,6.70621 428.162,6.03954 430.5,4.5C 435.036,3.18924 439.703,2.52257 444.5,2.5 Z"/></g>
<g><path style="opacity:0.169" fill="#220f37" d="M 500.5,4.5 C 481.887,2.74505 463.221,2.07838 444.5,2.5C 463.262,-0.16067 481.929,0.505996 500.5,4.5 Z"/></g>
<g><path style="opacity:0.788" fill="#2c0f4d" d="M 430.5,4.5 C 428.162,6.03954 425.495,6.70621 422.5,6.5C 424.838,4.96046 427.505,4.29379 430.5,4.5 Z"/></g>
<g><path style="opacity:0.212" fill="#220e39" d="M 500.5,4.5 C 506.46,5.07478 512.126,6.40811 517.5,8.5C 511.493,8.11753 505.827,6.7842 500.5,4.5 Z"/></g>
<g><path style="opacity:0.694" fill="#2f0f53" d="M 414.5,8.5 C 411.495,10.2766 408.162,11.2766 404.5,11.5C 407.505,9.7234 410.838,8.7234 414.5,8.5 Z"/></g>
<g><path style="opacity:0.329" fill="#310d59" d="M 445.5,10.5 C 457.66,9.34014 469.993,9.17347 482.5,10C 484.708,10.1909 486.708,10.6909 488.5,11.5C 476.185,10.6846 463.852,10.3512 451.5,10.5C 449.5,10.5 447.5,10.5 445.5,10.5 Z"/></g>
<g><path style="opacity:0.094" fill="#210e36" d="M 445.5,10.5 C 447.5,10.5 449.5,10.5 451.5,10.5C 439.471,12.0384 427.471,14.3717 415.5,17.5C 424.962,13.4036 434.962,11.0703 445.5,10.5 Z"/></g>
<g><path style="opacity:0.286" fill="#240e3e" d="M 496.5,12.5 C 502.813,12.9144 508.813,14.2478 514.5,16.5C 508.252,15.7685 502.252,14.4352 496.5,12.5 Z"/></g>
<g><path style="opacity:1" fill="#461380" d="M 518.5,8.5 C 523.479,9.56877 528.146,11.2354 532.5,13.5C 530.533,13.2606 528.699,13.5939 527,14.5C 524.294,12.086 521.461,10.086 518.5,8.5 Z"/></g>
<g><path style="opacity:0.302" fill="#200e32" d="M 533.5,13.5 C 535.153,13.6596 536.486,14.3263 537.5,15.5C 535.62,15.7709 534.287,15.1042 533.5,13.5 Z"/></g>
<g><path style="opacity:0.812" fill="#311056" d="M 514.5,16.5 C 516.698,16.1201 518.365,16.7868 519.5,18.5C 517.597,18.2041 515.93,17.5375 514.5,16.5 Z"/></g>
<g><path style="opacity:0.141" fill="#1b0e2a" d="M 539.5,16.5 C 541.553,16.4021 543.22,17.0687 544.5,18.5C 542.447,18.5979 540.78,17.9313 539.5,16.5 Z"/></g>
<g><path style="opacity:1" fill="#46137f" d="M 399.5,13.5 C 395.37,16.56 390.704,18.56 385.5,19.5C 389.679,16.5452 394.346,14.5452 399.5,13.5 Z"/></g>
<g><path style="opacity:0.071" fill="#1d0f2c" d="M 414.5,17.5 C 412.786,18.7384 410.786,19.405 408.5,19.5C 410.102,17.9261 412.102,17.2594 414.5,17.5 Z"/></g>
<g><path style="opacity:0.843" fill="#331059" d="M 520.5,18.5 C 522.698,18.1201 524.365,18.7868 525.5,20.5C 523.597,20.2041 521.93,19.5375 520.5,18.5 Z"/></g>
<g><path style="opacity:0.89" fill="#3f1273" d="M 383.5,20.5 C 383.611,21.1174 383.944,21.6174 384.5,22C 381.454,22.7388 378.454,23.5721 375.5,24.5C 377.789,22.6127 380.455,21.2794 383.5,20.5 Z"/></g>
<g><path style="opacity:0.173" fill="#1b0e2c" d="M 554.5,23.5 C 556.674,23.7497 558.341,24.7497 559.5,26.5C 557.326,26.2503 555.659,25.2503 554.5,23.5 Z"/></g>
<g><path style="opacity:0.553" fill="#280f44" d="M 371.5,26.5 C 371.027,27.9063 370.027,28.573 368.5,28.5C 368.973,27.0937 369.973,26.427 371.5,26.5 Z"/></g>
<g><path style="opacity:0.71" fill="#310f56" d="M 368.5,28.5 C 368.027,29.9063 367.027,30.573 365.5,30.5C 365.973,29.0937 366.973,28.427 368.5,28.5 Z"/></g>
<g><path style="opacity:0.016" fill="#221036" d="M 563.5,28.5 C 565.882,29.3507 567.882,30.684 569.5,32.5C 566.733,32.1298 564.733,30.7964 563.5,28.5 Z"/></g>
<g><path style="opacity:0.663" fill="#2c104c" d="M 363.5,31.5 C 363.027,32.9063 362.027,33.573 360.5,33.5C 360.973,32.0937 361.973,31.427 363.5,31.5 Z"/></g>
<g><path style="opacity:0.251" fill="#240d3f" d="M 551.5,31.5 C 553.027,31.427 554.027,32.0937 554.5,33.5C 552.973,33.573 551.973,32.9063 551.5,31.5 Z"/></g>
<g><path style="opacity:0.012" fill="#1c0f29" d="M 571.5,33.5 C 573.23,34.0256 574.564,35.0256 575.5,36.5C 573.368,36.4456 572.035,35.4456 571.5,33.5 Z"/></g>
<g><path style="opacity:0.361" fill="#280e45" d="M 558.5,35.5 C 560.027,35.427 561.027,36.0937 561.5,37.5C 559.973,37.573 558.973,36.9063 558.5,35.5 Z"/></g>
<g><path style="opacity:0.647" fill="#311256" d="M 356.5,36.5 C 355.738,38.2624 354.404,39.2624 352.5,39.5C 353.262,37.7376 354.596,36.7376 356.5,36.5 Z"/></g>
<g><path style="opacity:0.38" fill="#280f44" d="M 561.5,37.5 C 563.027,37.427 564.027,38.0937 564.5,39.5C 562.973,39.573 561.973,38.9063 561.5,37.5 Z"/></g>
<g><path style="opacity:0.486" fill="#291143" d="M 575.5,36.5 C 577.23,37.0256 578.564,38.0256 579.5,39.5C 577.368,39.4456 576.035,38.4456 575.5,36.5 Z"/></g>
<g><path style="opacity:0.008" fill="#1e0f2e" d="M 579.5,39.5 C 581.754,40.1237 583.421,41.457 584.5,43.5C 582.205,42.8645 580.539,41.5311 579.5,39.5 Z"/></g>
<g><path style="opacity:0.773" fill="#331159" d="M 352.5,39.5 C 351.415,41.5869 349.749,42.9202 347.5,43.5C 348.585,41.4131 350.251,40.0798 352.5,39.5 Z"/></g>
<g><path style="opacity:0.725" fill="#2e1050" d="M 570.5,43.5 C 572.027,43.427 573.027,44.0937 573.5,45.5C 571.973,45.573 570.973,44.9063 570.5,43.5 Z"/></g>
<g><path style="opacity:1" fill="#411574" d="M 360.5,44.5 C 359.205,45.4884 357.872,46.4884 356.5,47.5C 356.586,46.5041 356.252,45.6708 355.5,45C 357.134,44.5065 358.801,44.3398 360.5,44.5 Z"/></g>
<g><path style="opacity:0.024" fill="#1a0d25" d="M 586.5,45.5 C 588.027,45.427 589.027,46.0937 589.5,47.5C 587.973,47.573 586.973,46.9063 586.5,45.5 Z"/></g>
<g><path style="opacity:0.78" fill="#3a1169" d="M 347.5,43.5 C 345.431,46.5725 342.764,48.9059 339.5,50.5C 341.569,47.4275 344.236,45.0941 347.5,43.5 Z"/></g>
<g><path style="opacity:0.71" fill="#2d104e" d="M 575.5,47.5 C 577.027,47.427 578.027,48.0937 578.5,49.5C 576.973,49.573 575.973,48.9063 575.5,47.5 Z"/></g>
<g><path style="opacity:1" fill="#3c146b" d="M 353.5,49.5 C 352.738,51.2624 351.404,52.2624 349.5,52.5C 350.598,51.603 350.598,50.7697 349.5,50C 350.793,49.51 352.127,49.3433 353.5,49.5 Z"/></g>
<g><path style="opacity:1" fill="#381067" d="M 578.5,49.5 C 580.749,50.0798 582.415,51.4131 583.5,53.5C 581.251,52.9202 579.585,51.5869 578.5,49.5 Z"/></g>
<g><path style="opacity:0.008" fill="#1b0e27" d="M 592.5,50.5 C 596.1,52.4302 599.1,55.0969 601.5,58.5C 597.9,56.5698 594.9,53.9031 592.5,50.5 Z"/></g>
<g><path style="opacity:0.761" fill="#341259" d="M 339.5,50.5 C 337.1,53.9031 334.1,56.5698 330.5,58.5C 332.9,55.0969 335.9,52.4302 339.5,50.5 Z"/></g>
<g><path style="opacity:0.749" fill="#301250" d="M 330.5,58.5 C 330.262,60.4044 329.262,61.7377 327.5,62.5C 327.738,60.5956 328.738,59.2623 330.5,58.5 Z"/></g>
<g><path style="opacity:0.912" fill="#1c0c2f" d="M 587.5,58.5 C 587.833,59.8333 588.167,59.8333 588.5,58.5C 598.479,66.8208 606.812,76.4875 613.5,87.5C 608.897,106.573 596.897,114.073 577.5,110C 571.659,107.648 567.326,103.814 564.5,98.5C 559.046,85.7744 561.046,74.441 570.5,64.5C 572.8,61.6761 575.8,59.8428 579.5,59C 582.146,58.5026 584.813,58.3359 587.5,58.5 Z"/></g>
<g><path style="opacity:0.231" fill="#180c23" d="M 601.5,58.5 C 603.914,59.9108 605.581,61.9108 606.5,64.5C 604.086,63.0892 602.419,61.0892 601.5,58.5 Z"/></g>
<g><path style="opacity:0.682" fill="#210f35" d="M 606.5,64.5 C 609.243,66.2393 611.243,68.5726 612.5,71.5C 609.757,69.7607 607.757,67.4274 606.5,64.5 Z"/></g>
<g><path style="opacity:1" fill="#511595" d="M 340.5,61.5 C 336.614,64.9302 332.947,68.5968 329.5,72.5C 329.343,71.1266 329.51,69.7932 330,68.5C 332.5,66 335,63.5 337.5,61C 338.577,60.5304 339.577,60.6971 340.5,61.5 Z"/></g>
<g><path style="opacity:1" fill="#490f8a" d="M 581.5,67.5 C 598.519,67.0074 605.686,75.0074 603,91.5C 595.483,103.688 585.817,105.688 574,97.5C 569.214,91.1105 568.214,84.1105 571,76.5C 573.489,72.1675 576.989,69.1675 581.5,67.5 Z"/></g>
<g><path style="opacity:0.569" fill="#2f1251" d="M 325.5,64.5 C 324.243,67.4274 322.243,69.7607 319.5,71.5C 320.757,68.5726 322.757,66.2393 325.5,64.5 Z"/></g>
<g><path style="opacity:0.475" fill="#250e3e" d="M 612.5,71.5 C 614.262,72.2623 615.262,73.5956 615.5,75.5C 613.738,74.7377 612.738,73.4044 612.5,71.5 Z"/></g>
<g><path style="opacity:0.035" fill="#1e102d" d="M 327.5,74.5 C 327.573,76.0269 326.906,77.0269 325.5,77.5C 325.427,75.9731 326.094,74.9731 327.5,74.5 Z"/></g>
<g><path style="opacity:0.761" fill="#311156" d="M 316.5,75.5 C 316.262,77.4044 315.262,78.7377 313.5,79.5C 313.738,77.5956 314.738,76.2623 316.5,75.5 Z"/></g>
<g><path style="opacity:1" fill="#6912c9" d="M 583.5,75.5 C 592.006,75.1704 595.839,79.1704 595,87.5C 592.367,92.7315 588.201,94.5649 582.5,93C 575.62,86.7719 575.954,80.9385 583.5,75.5 Z"/></g>
<g><path style="opacity:0.341" fill="#220e37" d="M 615.5,75.5 C 616.906,75.9731 617.573,76.9731 617.5,78.5C 616.094,78.0269 615.427,77.0269 615.5,75.5 Z"/></g>
<g><path style="opacity:0.718" fill="#321158" d="M 313.5,79.5 C 313.573,81.0269 312.906,82.0269 311.5,82.5C 311.427,80.9731 312.094,79.9731 313.5,79.5 Z"/></g>
<g><path style="opacity:0.467" fill="#240f3a" d="M 617.5,78.5 C 619.262,79.2623 620.262,80.5956 620.5,82.5C 618.738,81.7377 617.738,80.4044 617.5,78.5 Z"/></g>
<g><path style="opacity:0.54" fill="#120a19" d="M 570.5,64.5 C 561.046,74.441 559.046,85.7744 564.5,98.5C 562.59,97.0254 561.424,95.0254 561,92.5C 559.154,83.3912 560.821,75.0579 566,67.5C 567.129,65.8588 568.629,64.8588 570.5,64.5 Z"/></g>
<g><path style="opacity:0.318" fill="#200e33" d="M 620.5,82.5 C 621.906,82.9731 622.573,83.9731 622.5,85.5C 621.094,85.0269 620.427,84.0269 620.5,82.5 Z"/></g>
<g><path style="opacity:0.247" fill="#1b0d2b" d="M 622.5,85.5 C 623.906,85.9731 624.573,86.9731 624.5,88.5C 623.094,88.0269 622.427,87.0269 622.5,85.5 Z"/></g>
<g><path style="opacity:0.455" fill="#311155" d="M 307.5,88.5 C 307.573,90.0269 306.906,91.0269 305.5,91.5C 305.427,89.9731 306.094,88.9731 307.5,88.5 Z"/></g>
<g><path style="opacity:0.22" fill="#1b0d2b" d="M 625.5,90.5 C 626.906,90.9731 627.573,91.9731 627.5,93.5C 626.094,93.0269 625.427,92.0269 625.5,90.5 Z"/></g>
<g><path style="opacity:1" fill="#431477" d="M 305.5,91.5 C 305.408,93.8477 304.408,95.5144 302.5,96.5C 302.75,94.326 303.75,92.6594 305.5,91.5 Z"/></g>
<g><path style="opacity:0.216" fill="#1a0c29" d="M 628.5,95.5 C 629.906,95.9731 630.573,96.9731 630.5,98.5C 629.094,98.0269 628.427,97.0269 628.5,95.5 Z"/></g>
<g><path style="opacity:0.416" fill="#2c104b" d="M 302.5,96.5 C 302.573,98.0269 301.906,99.0269 300.5,99.5C 300.427,97.9731 301.094,96.9731 302.5,96.5 Z"/></g>
<g><path style="opacity:1" fill="#34135c" d="M 632.5,102.5 C 633.674,103.514 634.34,104.847 634.5,106.5C 632.824,105.817 632.157,104.483 632.5,102.5 Z"/></g>
<g><path style="opacity:0.184" fill="#240f3a" d="M 307.5,104.5 C 307.771,106.38 307.104,107.713 305.5,108.5C 305.66,106.847 306.326,105.514 307.5,104.5 Z"/></g>
<g><path style="opacity:0.208" fill="#221036" d="M 305.5,108.5 C 304.352,112.787 302.685,116.787 300.5,120.5C 301.087,115.999 302.754,111.999 305.5,108.5 Z"/></g>
<g><path style="opacity:0.765" fill="#311255" d="M 292.5,116.5 C 292.88,118.698 292.213,120.365 290.5,121.5C 290.796,119.597 291.463,117.93 292.5,116.5 Z"/></g>
<g><path style="opacity:0.737" fill="#281043" d="M 640.5,119.5 C 641.537,120.93 642.204,122.597 642.5,124.5C 640.787,123.365 640.12,121.698 640.5,119.5 Z"/></g>
<g><path style="opacity:0.988" fill="#371361" d="M 290.5,122.5 C 290.416,125.327 289.75,127.994 288.5,130.5C 287.298,127.513 287.965,124.846 290.5,122.5 Z"/></g>
<g><path style="opacity:0.357" fill="#291044" d="M 300.5,120.5 C 299.459,124.254 298.125,127.92 296.5,131.5C 295.042,132.782 293.708,132.782 292.5,131.5C 293.675,131.719 294.675,131.386 295.5,130.5C 296.686,126.795 298.352,123.462 300.5,120.5 Z"/></g>
<g><path style="opacity:0.808" fill="#301054" d="M 642.5,125.5 C 643.537,126.93 644.204,128.597 644.5,130.5C 642.787,129.365 642.12,127.698 642.5,125.5 Z"/></g>
<g><path style="opacity:0.408" fill="#240f3c" d="M 636.5,135.5 C 638.213,136.635 638.88,138.302 638.5,140.5C 637.463,139.07 636.796,137.403 636.5,135.5 Z"/></g>
<g><path style="opacity:0.78" fill="#20366c" d="M 33.5,138.5 C 33.5,138.833 33.5,139.167 33.5,139.5C 27.1667,139.5 20.8333,139.5 14.5,139.5C 14.9175,138.778 15.5842,138.278 16.5,138C 22.2493,137.215 27.916,137.382 33.5,138.5 Z"/></g>
<g><path style="opacity:0.029" fill="#141b2e" d="M 33.5,139.5 C 33.5,139.167 33.5,138.833 33.5,138.5C 38.1925,138.425 42.5258,139.425 46.5,141.5C 42.1928,140.673 37.8595,140.007 33.5,139.5 Z"/></g>
<g><path style="opacity:1" fill="#204083" d="M 12.5,139.5 C 10.4855,140.924 8.15216,141.59 5.5,141.5C 7.22003,140.136 9.22003,139.136 11.5,138.5C 12.1067,138.624 12.44,138.957 12.5,139.5 Z"/></g>
<g><path style="opacity:0.663" fill="#1d2e58" d="M 213.5,140.5 C 212.609,141.11 211.609,141.443 210.5,141.5C 211.221,139.618 212.221,139.285 213.5,140.5 Z"/></g>
<g><path style="opacity:0.486" fill="#290e48" d="M 645.5,134.5 C 646.924,136.515 647.59,138.848 647.5,141.5C 646.076,139.485 645.41,137.152 645.5,134.5 Z"/></g>
<g><path style="opacity:0.098" fill="#131d35" d="M 46.5,141.5 C 49.089,141.461 51.089,142.461 52.5,144.5C 50.1815,144.008 48.1815,143.008 46.5,141.5 Z"/></g>
<g><path style="opacity:1" fill="#296ef6" d="M 12.5,139.5 C 13.1667,139.5 13.8333,139.5 14.5,139.5C 20.8333,139.5 27.1667,139.5 33.5,139.5C 37.8595,140.007 42.1928,140.673 46.5,141.5C 48.1815,143.008 50.1815,144.008 52.5,144.5C 53.4916,144.328 54.1583,144.662 54.5,145.5C 54.5,146.167 54.5,146.833 54.5,147.5C 37.6749,148.497 20.6749,148.83 3.5,148.5C 3.73731,147.209 3.40397,146.209 2.5,145.5C 3.10978,144.609 3.44312,143.609 3.5,142.5C 3.84171,141.662 4.50838,141.328 5.5,141.5C 8.15216,141.59 10.4855,140.924 12.5,139.5 Z"/></g>
<g><path style="opacity:1" fill="#2a6cf5" d="M 269.5,142.5 C 269.5,145.167 269.5,147.833 269.5,150.5C 269.573,152.027 268.906,153.027 267.5,153.5C 260.833,153.5 254.167,153.5 247.5,153.5C 246.596,154.209 246.263,155.209 246.5,156.5C 241.833,156.5 237.167,156.5 232.5,156.5C 232.737,155.209 232.404,154.209 231.5,153.5C 231.167,153.5 230.833,153.5 230.5,153.5C 223.5,153.5 216.5,153.5 209.5,153.5C 208.272,149.816 208.272,146.15 209.5,142.5C 209.5,141.833 209.833,141.5 210.5,141.5C 211.609,141.443 212.609,141.11 213.5,140.5C 231.743,140.826 249.91,140.492 268,139.5C 269.039,140.244 269.539,141.244 269.5,142.5 Z"/></g>
<g><path style="opacity:0.075" fill="#131a2d" d="M 209.5,142.5 C 208.272,146.15 208.272,149.816 209.5,153.5C 208.028,151.883 207.361,149.883 207.5,147.5C 207.667,146.167 207.833,144.833 208,143.5C 208.383,142.944 208.883,142.611 209.5,142.5 Z"/></g>
<g><path style="opacity:0.796" fill="#22356e" d="M 269.5,142.5 C 270.478,142.811 271.145,143.478 271.5,144.5C 270.253,146.042 270.253,147.542 271.5,149C 270.956,149.717 270.289,150.217 269.5,150.5C 269.5,147.833 269.5,145.167 269.5,142.5 Z"/></g>
<g><path style="opacity:0.478" fill="#1d2b58" d="M 54.5,145.5 C 57.1894,146.189 58.8561,147.856 59.5,150.5C 58.078,149.075 56.4113,148.075 54.5,147.5C 54.5,146.833 54.5,146.167 54.5,145.5 Z"/></g>
<g><path style="opacity:0.365" fill="#210d37" d="M 647.5,141.5 C 648.924,143.515 649.59,145.848 649.5,148.5C 648.076,146.485 647.41,144.152 647.5,141.5 Z"/></g>
<g><path style="opacity:1" fill="#2e66f3" d="M 2.5,145.5 C 3.40397,146.209 3.73731,147.209 3.5,148.5C 20.6749,148.83 37.6749,148.497 54.5,147.5C 56.4113,148.075 58.078,149.075 59.5,150.5C 61.5869,151.585 62.9202,153.251 63.5,155.5C 63.5,155.833 63.5,156.167 63.5,156.5C 57.1667,156.5 50.8333,156.5 44.5,156.5C 43.8333,156.5 43.1667,156.5 42.5,156.5C 40.9639,153.908 38.6305,152.908 35.5,153.5C 35.0825,152.778 34.4158,152.278 33.5,152C 28.3158,151.184 23.3158,151.35 18.5,152.5C 17.596,153.209 17.2627,154.209 17.5,155.5C 12.5,156.833 7.5,156.833 2.5,155.5C 2.5,152.167 2.5,148.833 2.5,145.5 Z"/></g>
<g><path style="opacity:0.502" fill="#280f45" d="M 639.5,145.5 C 642.702,151.665 644.036,158.332 643.5,165.5C 642.183,158.955 640.85,152.288 639.5,145.5 Z"/></g>
<g><path style="opacity:0.363" fill="#192854" d="M 35.5,153.5 C 29.6759,151.909 24.0093,152.242 18.5,154.5C 18.5,153.833 18.5,153.167 18.5,152.5C 23.3158,151.35 28.3158,151.184 33.5,152C 34.4158,152.278 35.0825,152.778 35.5,153.5 Z"/></g>
<g><path style="opacity:0.174" fill="#13192c" d="M 209.5,153.5 C 216.5,153.5 223.5,153.5 230.5,153.5C 230.5,157.5 230.5,161.5 230.5,165.5C 229.518,162.038 229.185,158.371 229.5,154.5C 222.646,154.824 215.979,154.491 209.5,153.5 Z"/></g>
<g><path style="opacity:0.173" fill="#192347" d="M 35.5,153.5 C 38.6305,152.908 40.9639,153.908 42.5,156.5C 39.9823,155.736 37.649,154.736 35.5,153.5 Z"/></g>
<g><path style="opacity:0.145" fill="#151a2f" d="M 116.5,155.5 C 117.779,154.285 118.779,154.618 119.5,156.5C 118.391,156.443 117.391,156.11 116.5,155.5 Z"/></g>
<g><path style="opacity:0.176" fill="#181d36" d="M 188.5,155.5 C 189.779,154.285 190.779,154.618 191.5,156.5C 190.391,156.443 189.391,156.11 188.5,155.5 Z"/></g>
<g><path style="opacity:0.427" fill="#181f3a" d="M 337.5,156.5 C 334.167,156.5 330.833,156.5 327.5,156.5C 330.72,154.293 334.053,154.293 337.5,156.5 Z"/></g>
<g><path style="opacity:0.41" fill="#192345" d="M 374.5,156.5 C 372.167,156.5 369.833,156.5 367.5,156.5C 368.531,155.751 369.698,155.085 371,154.5C 372.302,155.085 373.469,155.751 374.5,156.5 Z"/></g>
<g><path style="opacity:0.576" fill="#20264e" d="M 404.5,156.5 C 402.901,156.768 401.568,156.434 400.5,155.5C 401.962,154.529 403.295,154.862 404.5,156.5 Z"/></g>
<g><path style="opacity:0.886" fill="#263577" d="M 446.5,156.5 C 442.434,156.307 438.434,156.64 434.5,157.5C 434.611,156.883 434.944,156.383 435.5,156C 438.224,155.73 440.891,155.23 443.5,154.5C 444.739,154.942 445.739,155.609 446.5,156.5 Z"/></g>
<g><path style="opacity:0.18" fill="#161b33" d="M 492.5,155.5 C 493.779,154.285 494.779,154.618 495.5,156.5C 494.391,156.443 493.391,156.11 492.5,155.5 Z"/></g>
<g><path style="opacity:0.541" fill="#1d264f" d="M 565.5,156.5 C 563.901,156.768 562.568,156.434 561.5,155.5C 562.962,154.529 564.295,154.862 565.5,156.5 Z"/></g>
<g><path style="opacity:0.529" fill="#1a244d" d="M 42.5,156.5 C 43.1667,156.5 43.8333,156.5 44.5,156.5C 44.8333,157.167 45.1667,157.833 45.5,158.5C 43.9731,158.573 42.9731,157.906 42.5,156.5 Z"/></g>
<g><path style="opacity:0.004" fill="#17192b" d="M 125.5,158.5 C 123.597,158.204 121.93,157.537 120.5,156.5C 120.435,156.062 120.601,155.728 121,155.5C 122.878,156.053 124.378,157.053 125.5,158.5 Z"/></g>
<g><path style="opacity:0.294" fill="#1b234a" d="M 63.5,155.5 C 64.9063,155.973 65.573,156.973 65.5,158.5C 64.5,158.167 63.8333,157.5 63.5,156.5C 63.5,156.167 63.5,155.833 63.5,155.5 Z"/></g>
<g><path style="opacity:1" fill="#273a85" d="M 99.5,156.5 C 98.3646,158.213 96.698,158.88 94.5,158.5C 95.8484,157.399 97.3484,156.399 99,155.5C 99.3988,155.728 99.5654,156.062 99.5,156.5 Z"/></g>
<g><path style="opacity:1" fill="#3158db" d="M 314.5,158.5 C 314.5,159.167 314.5,159.833 314.5,160.5C 309.076,161.786 303.41,162.452 297.5,162.5C 291.989,162.499 286.656,162.166 281.5,161.5C 281.5,161.167 281.5,160.833 281.5,160.5C 282.429,159.685 283.429,158.852 284.5,158C 288.209,157.367 291.709,156.2 295,154.5C 300,154.5 305,154.5 310,154.5C 311.667,155.733 313.167,157.067 314.5,158.5 Z"/></g>
<g><path style="opacity:0.733" fill="#1f2d63" d="M 404.5,156.5 C 406.262,157.262 407.262,158.596 407.5,160.5C 405.738,159.738 404.738,158.404 404.5,156.5 Z"/></g>
<g><path style="opacity:1" fill="#3058da" d="M 492.5,155.5 C 493.391,156.11 494.391,156.443 495.5,156.5C 499.34,156.59 502.673,158.257 505.5,161.5C 492.037,162.469 478.703,162.803 465.5,162.5C 471.22,157.345 478.053,154.679 486,154.5C 488.216,154.653 490.383,154.986 492.5,155.5 Z"/></g>
<g><path style="opacity:0.902" fill="#273880" d="M 541.5,156.5 C 539.316,158.585 536.649,159.585 533.5,159.5C 535.992,157.232 538.658,156.232 541.5,156.5 Z"/></g>
<g><path style="opacity:0.02" fill="#16192b" d="M 196.5,158.5 C 198.5,158.5 199.5,159.5 199.5,161.5C 198.167,160.833 197.167,159.833 196.5,158.5 Z"/></g>
<g><path style="opacity:0.247" fill="#161a31" d="M 392.5,157.5 C 391.699,159.042 391.366,160.708 391.5,162.5C 391.366,160.708 391.699,159.042 392.5,157.5 Z"/></g>
<g><path style="opacity:0.043" fill="#181e3c" d="M 45.5,158.5 C 46.9063,158.973 47.573,159.973 47.5,161.5C 46.0937,161.027 45.427,160.027 45.5,158.5 Z"/></g>
<g><path style="opacity:0.027" fill="#16182a" d="M 127.5,159.5 C 129.027,159.427 130.027,160.094 130.5,161.5C 128.973,161.573 127.973,160.906 127.5,159.5 Z"/></g>
<g><path style="opacity:0.686" fill="#1e2959" d="M 165.5,158.5 C 165.027,159.906 164.027,160.573 162.5,160.5C 162.973,159.094 163.973,158.427 165.5,158.5 Z"/></g>
<g><path style="opacity:0.914" fill="#222c62" d="M 571.5,158.5 C 574.522,159.522 576.522,161.522 577.5,164.5C 575.118,162.785 573.118,160.785 571.5,158.5 Z"/></g>
<g><path style="opacity:0.702" fill="#222d67" d="M 281.5,160.5 C 281.5,160.833 281.5,161.167 281.5,161.5C 280.609,162.11 279.609,162.443 278.5,162.5C 278.973,161.094 279.973,160.427 281.5,160.5 Z"/></g>
<g><path style="opacity:1" fill="#3858ec" d="M 314.5,160.5 C 314.5,162.833 314.5,165.167 314.5,167.5C 309.821,167.334 305.155,167.501 300.5,168C 299.263,168.232 298.263,168.732 297.5,169.5C 295.738,169.357 294.071,169.691 292.5,170.5C 291.508,174.783 291.174,179.116 291.5,183.5C 290.681,180.695 290.181,177.695 290,174.5C 285.883,174.724 281.717,174.724 277.5,174.5C 277.795,172.265 277.461,170.265 276.5,168.5C 276.5,167.5 276.5,166.5 276.5,165.5C 277.906,165.027 278.573,164.027 278.5,162.5C 279.609,162.443 280.609,162.11 281.5,161.5C 286.656,162.166 291.989,162.499 297.5,162.5C 303.41,162.452 309.076,161.786 314.5,160.5 Z"/></g>
<g><path style="opacity:0.8" fill="#232f6d" d="M 314.5,158.5 C 316.88,161.447 316.88,164.447 314.5,167.5C 314.5,165.167 314.5,162.833 314.5,160.5C 314.5,159.833 314.5,159.167 314.5,158.5 Z"/></g>
<g><path style="opacity:1" fill="#3756e6" d="M 505.5,161.5 C 506.5,161.833 507.167,162.5 507.5,163.5C 508.08,165.749 509.413,167.415 511.5,168.5C 511.517,170.565 511.85,172.565 512.5,174.5C 508.155,174.37 503.821,174.703 499.5,175.5C 498.728,174.306 497.728,173.306 496.5,172.5C 495.662,172.158 495.328,171.492 495.5,170.5C 494.313,168.025 492.313,167.025 489.5,167.5C 487.833,167.5 486.167,167.5 484.5,167.5C 481.509,167.166 479.176,168.166 477.5,170.5C 476.154,172.537 474.82,174.537 473.5,176.5C 473.167,176.5 472.833,176.5 472.5,176.5C 472.389,175.883 472.056,175.383 471.5,175C 468.901,174.231 466.401,174.398 464,175.5C 462.53,174.733 461.03,174.067 459.5,173.5C 459.833,172.167 460.167,170.833 460.5,169.5C 461.906,169.027 462.573,168.027 462.5,166.5C 464.262,165.738 465.262,164.404 465.5,162.5C 478.703,162.803 492.037,162.469 505.5,161.5 Z"/></g>
<g><path style="opacity:0.4" fill="#1b2147" d="M 531.5,160.5 C 530.5,162.167 529.167,163.5 527.5,164.5C 527.833,162.167 529.167,160.833 531.5,160.5 Z"/></g>
<g><path style="opacity:0.78" fill="#2c104d" d="M 649.5,149.5 C 651.894,157.873 653.227,166.54 653.5,175.5C 653.167,175.5 652.833,175.5 652.5,175.5C 651.498,166.828 650.498,158.161 649.5,149.5 Z"/></g>
<g><path style="opacity:1" fill="#355bec" d="M 44.5,156.5 C 50.8333,156.5 57.1667,156.5 63.5,156.5C 63.8333,157.5 64.5,158.167 65.5,158.5C 65.7366,161.647 66.5699,164.647 68,167.5C 68.4983,170.817 68.665,174.15 68.5,177.5C 67.5233,174.713 67.19,171.713 67.5,168.5C 62.4053,168.221 57.4053,168.555 52.5,169.5C 51.8333,169.167 51.1667,168.833 50.5,168.5C 50.8337,165.509 49.8337,163.176 47.5,161.5C 47.573,159.973 46.9063,158.973 45.5,158.5C 45.1667,157.833 44.8333,157.167 44.5,156.5 Z"/></g>
<g><path style="opacity:1" fill="#3656e3" d="M 116.5,155.5 C 117.391,156.11 118.391,156.443 119.5,156.5C 119.833,156.5 120.167,156.5 120.5,156.5C 121.93,157.537 123.597,158.204 125.5,158.5C 126.167,158.833 126.833,159.167 127.5,159.5C 127.973,160.906 128.973,161.573 130.5,161.5C 131.5,161.833 132.167,162.5 132.5,163.5C 133.08,165.749 134.413,167.415 136.5,168.5C 137.674,169.514 138.34,170.847 138.5,172.5C 138.5,173.167 138.5,173.833 138.5,174.5C 137.844,175.278 137.011,175.944 136,176.5C 134.78,175.612 133.447,174.945 132,174.5C 129.313,175.025 126.48,175.025 123.5,174.5C 123.5,176.833 123.5,179.167 123.5,181.5C 122.512,178.919 121.512,176.252 120.5,173.5C 120.167,171.167 118.833,169.833 116.5,169.5C 109.306,167.139 103.306,168.806 98.5,174.5C 98.1667,174.5 97.8333,174.5 97.5,174.5C 92.3281,175.023 87.3281,175.023 82.5,174.5C 82.5,173.167 82.5,171.833 82.5,170.5C 83.9063,170.027 84.573,169.027 84.5,167.5C 87.1667,165.5 89.5,163.167 91.5,160.5C 91.9731,159.094 92.9731,158.427 94.5,158.5C 96.698,158.88 98.3646,158.213 99.5,156.5C 100.721,155.972 101.887,155.305 103,154.5C 107.415,154.237 111.915,154.57 116.5,155.5 Z"/></g>
<g><path style="opacity:1" fill="#3657e4" d="M 188.5,155.5 C 189.391,156.11 190.391,156.443 191.5,156.5C 193.399,155.955 195.066,156.622 196.5,158.5C 197.167,159.833 198.167,160.833 199.5,161.5C 199.5,163.5 199.5,165.5 199.5,167.5C 197.897,167.312 196.563,167.812 195.5,169C 196.167,169.333 196.833,169.667 197.5,170C 196.207,170.49 194.873,170.657 193.5,170.5C 192.365,168.787 190.698,168.12 188.5,168.5C 187.036,167.84 185.369,167.507 183.5,167.5C 180.795,167.316 178.462,167.983 176.5,169.5C 174.973,169.427 173.973,170.094 173.5,171.5C 170.969,174.57 168.969,177.904 167.5,181.5C 168.265,174.697 165.432,172.697 159,175.5C 156.901,174.869 155.068,173.869 153.5,172.5C 153.5,171.833 153.5,171.167 153.5,170.5C 154.906,170.027 155.573,169.027 155.5,167.5C 158.167,165.5 160.5,163.167 162.5,160.5C 164.027,160.573 165.027,159.906 165.5,158.5C 168.542,157.09 171.709,155.757 175,154.5C 179.384,154.233 183.884,154.567 188.5,155.5 Z"/></g>
<g><path style="opacity:0.069" fill="#13121b" d="M 341.5,162.5 C 342.203,175.038 342.87,187.705 343.5,200.5C 341.787,199.365 341.12,197.698 341.5,195.5C 341.5,184.5 341.5,173.5 341.5,162.5 Z"/></g>
<g><path style="opacity:1" fill="#3653dd" d="M 561.5,155.5 C 562.568,156.434 563.901,156.768 565.5,156.5C 567.703,156.604 569.703,157.27 571.5,158.5C 573.118,160.785 575.118,162.785 577.5,164.5C 577.427,166.027 578.094,167.027 579.5,167.5C 579.963,170.482 580.296,173.482 580.5,176.5C 579.012,175.061 577.178,174.395 575,174.5C 572.841,175.117 570.841,175.117 569,174.5C 567.699,174.639 566.866,175.305 566.5,176.5C 566.167,176.5 565.833,176.5 565.5,176.5C 565.525,172.86 563.858,170.527 560.5,169.5C 559.391,169.443 558.391,169.11 557.5,168.5C 554.36,167.359 551.027,167.192 547.5,168C 546.944,168.383 546.611,168.883 546.5,169.5C 545.791,170.404 544.791,170.737 543.5,170.5C 542.833,170.5 542.167,170.5 541.5,170.5C 540.566,171.568 540.232,172.901 540.5,174.5C 536.347,175.02 532.347,175.02 528.5,174.5C 527.443,178.442 527.11,185.108 527.5,194.5C 527.24,201.557 527.573,208.557 528.5,215.5C 527.034,214.653 526.2,213.32 526,211.5C 525.333,196.5 525.333,181.5 526,166.5C 526.278,165.584 526.778,164.918 527.5,164.5C 529.167,163.5 530.5,162.167 531.5,160.5C 531.842,159.662 532.508,159.328 533.5,159.5C 536.649,159.585 539.316,158.585 541.5,156.5C 542.807,155.847 544.14,155.18 545.5,154.5C 550.744,154.242 556.077,154.575 561.5,155.5 Z"/></g>
<g><path style="opacity:0.251" fill="#171b35" d="M 47.5,161.5 C 49.8337,163.176 50.8337,165.509 50.5,168.5C 49.2638,166.351 48.2638,164.018 47.5,161.5 Z"/></g>
<g><path style="opacity:0.655" fill="#1f2652" d="M 162.5,160.5 C 160.5,163.167 158.167,165.5 155.5,167.5C 156.833,164.167 159.167,161.833 162.5,160.5 Z"/></g>
<g><path style="opacity:0.647" fill="#1f295c" d="M 278.5,162.5 C 278.573,164.027 277.906,165.027 276.5,165.5C 276.427,163.973 277.094,162.973 278.5,162.5 Z"/></g>
<g><path style="opacity:0.925" fill="#232e67" d="M 407.5,160.5 C 408.931,161.78 409.598,163.447 409.5,165.5C 407.787,164.365 407.12,162.698 407.5,160.5 Z"/></g>
<g><path style="opacity:0.475" fill="#1c234a" d="M 434.5,157.5 C 434.277,161.162 433.277,164.495 431.5,167.5C 431.59,163.786 432.59,160.452 434.5,157.5 Z"/></g>
<g><path style="opacity:0.733" fill="#212c66" d="M 465.5,162.5 C 465.262,164.404 464.262,165.738 462.5,166.5C 462.738,164.596 463.738,163.262 465.5,162.5 Z"/></g>
<g><path style="opacity:0.608" fill="#1e285a" d="M 91.5,160.5 C 89.5,163.167 87.1667,165.5 84.5,167.5C 85.8333,164.167 88.1667,161.833 91.5,160.5 Z"/></g>
<g><path style="opacity:0.835" fill="#222e6c" d="M 507.5,163.5 C 509.587,164.585 510.92,166.251 511.5,168.5C 509.413,167.415 508.08,165.749 507.5,163.5 Z"/></g>
<g><path style="opacity:0.035" fill="#191d3c" d="M 391.5,162.5 C 393.61,166.502 394.943,170.835 395.5,175.5C 393.39,171.498 392.057,167.165 391.5,162.5 Z"/></g>
<g><path style="opacity:0.471" fill="#202a62" d="M 577.5,164.5 C 578.906,164.973 579.573,165.973 579.5,167.5C 578.094,167.027 577.427,166.027 577.5,164.5 Z"/></g>
<g><path style="opacity:0.2" fill="#1a1e3f" d="M 132.5,163.5 C 134.587,164.585 135.92,166.251 136.5,168.5C 134.413,167.415 133.08,165.749 132.5,163.5 Z"/></g>
<g><path style="opacity:0.468" fill="#222d6c" d="M 188.5,168.5 C 184.466,168.505 180.466,168.838 176.5,169.5C 178.462,167.983 180.795,167.316 183.5,167.5C 185.369,167.507 187.036,167.84 188.5,168.5 Z"/></g>
<g><path style="opacity:0.459" fill="#212c67" d="M 314.5,167.5 C 314.631,168.376 314.298,169.043 313.5,169.5C 308.19,168.344 302.856,168.344 297.5,169.5C 298.263,168.732 299.263,168.232 300.5,168C 305.155,167.501 309.821,167.334 314.5,167.5 Z"/></g>
<g><path style="opacity:0.475" fill="#1f2a65" d="M 557.5,168.5 C 553.785,168.423 550.119,168.756 546.5,169.5C 546.611,168.883 546.944,168.383 547.5,168C 551.027,167.192 554.36,167.359 557.5,168.5 Z"/></g>
<g><path style="opacity:1" fill="#3959ee" d="M 2.5,155.5 C 7.5,156.833 12.5,156.833 17.5,155.5C 17.5,160.5 17.5,165.5 17.5,170.5C 16.8496,172.447 15.683,174.113 14,175.5C 10.1044,175.029 6.27109,174.696 2.5,174.5C 2.5,168.167 2.5,161.833 2.5,155.5 Z"/></g>
<g><path style="opacity:0.706" fill="#202a66" d="M 188.5,168.5 C 190.698,168.12 192.365,168.787 193.5,170.5C 191.597,170.204 189.93,169.537 188.5,168.5 Z"/></g>
<g><path style="opacity:1" fill="#2a3688" d="M 199.5,161.5 C 202.453,165.998 201.453,169.665 196.5,172.5C 195.261,172.058 194.261,171.391 193.5,170.5C 194.873,170.657 196.207,170.49 197.5,170C 196.833,169.667 196.167,169.333 195.5,169C 196.563,167.812 197.897,167.312 199.5,167.5C 199.5,165.5 199.5,163.5 199.5,161.5 Z"/></g>
<g><path style="opacity:1" fill="#3958ee" d="M 231.5,153.5 C 232.404,154.209 232.737,155.209 232.5,156.5C 237.167,156.5 241.833,156.5 246.5,156.5C 246.5,162.5 246.5,168.5 246.5,174.5C 241.33,175.349 236.33,174.682 231.5,172.5C 231.5,166.167 231.5,159.833 231.5,153.5 Z"/></g>
<g><path style="opacity:1" fill="#364fd5" d="M 327.5,156.5 C 330.833,156.5 334.167,156.5 337.5,156.5C 338.167,156.833 338.833,157.167 339.5,157.5C 340.392,162.438 340.726,167.438 340.5,172.5C 338.932,173.869 337.099,174.869 335,175.5C 332.333,174.167 329.667,174.167 327,175.5C 325.575,182.385 325.075,189.385 325.5,196.5C 324.504,183.344 324.171,170.01 324.5,156.5C 325.5,156.5 326.5,156.5 327.5,156.5 Z"/></g>
<g><path style="opacity:1" fill="#3956eb" d="M 365.5,156.5 C 366.167,156.5 366.833,156.5 367.5,156.5C 369.833,156.5 372.167,156.5 374.5,156.5C 376.099,156.232 377.432,156.566 378.5,157.5C 379.4,162.772 379.733,168.105 379.5,173.5C 377.321,174.103 375.154,174.77 373,175.5C 370.936,174.409 368.769,174.242 366.5,175C 365.556,177.719 365.223,180.552 365.5,183.5C 365.167,183.5 364.833,183.5 364.5,183.5C 364.196,174.416 364.529,165.416 365.5,156.5 Z"/></g>
<g><path style="opacity:1" fill="#3857ea" d="M 400.5,155.5 C 401.568,156.434 402.901,156.768 404.5,156.5C 404.738,158.404 405.738,159.738 407.5,160.5C 407.12,162.698 407.787,164.365 409.5,165.5C 409.054,168.01 409.72,170.01 411.5,171.5C 411.5,172.5 411.5,173.5 411.5,174.5C 406.176,174.809 401.176,175.142 396.5,175.5C 396.167,175.5 395.833,175.5 395.5,175.5C 394.943,170.835 393.61,166.502 391.5,162.5C 391.366,160.708 391.699,159.042 392.5,157.5C 394.806,154.994 397.473,154.327 400.5,155.5 Z"/></g>
<g><path style="opacity:1" fill="#3955e8" d="M 446.5,156.5 C 447.5,156.833 448.167,157.5 448.5,158.5C 448.811,163.766 448.145,168.766 446.5,173.5C 444.648,174.089 442.815,174.756 441,175.5C 437.432,174.924 433.932,174.59 430.5,174.5C 430.5,173.5 430.5,172.5 430.5,171.5C 430.232,169.901 430.566,168.568 431.5,167.5C 433.277,164.495 434.277,161.162 434.5,157.5C 438.434,156.64 442.434,156.307 446.5,156.5 Z"/></g>
<g><path style="opacity:0.427" fill="#1f2a64" d="M 462.5,166.5 C 462.573,168.027 461.906,169.027 460.5,169.5C 460.427,167.973 461.094,166.973 462.5,166.5 Z"/></g>
<g><path style="opacity:0.188" fill="#191b36" d="M 484.5,167.5 C 482.351,168.736 480.018,169.736 477.5,170.5C 479.176,168.166 481.509,167.166 484.5,167.5 Z"/></g>
<g><path style="opacity:0.569" fill="#212963" d="M 489.5,167.5 C 492.313,167.025 494.313,168.025 495.5,170.5C 493.456,169.492 491.456,168.492 489.5,167.5 Z"/></g>
<g><path style="opacity:0.176" fill="#181b38" d="M 84.5,167.5 C 84.573,169.027 83.9063,170.027 82.5,170.5C 82.427,168.973 83.0937,167.973 84.5,167.5 Z"/></g>
<g><path style="opacity:0.557" fill="#1d1f44" d="M 116.5,169.5 C 118.833,169.833 120.167,171.167 120.5,173.5C 118.833,172.5 117.5,171.167 116.5,169.5 Z"/></g>
<g><path style="opacity:0.224" fill="#181b38" d="M 155.5,167.5 C 155.573,169.027 154.906,170.027 153.5,170.5C 153.427,168.973 154.094,167.973 155.5,167.5 Z"/></g>
<g><path style="opacity:0.036" fill="#0e0f10" d="M 247.5,153.5 C 254.167,153.5 260.833,153.5 267.5,153.5C 261.355,154.49 255.022,154.823 248.5,154.5C 248.83,175.007 248.497,195.34 247.5,215.5C 247.5,194.833 247.5,174.167 247.5,153.5 Z"/></g>
<g><path style="opacity:0.878" fill="#25285b" d="M 409.5,165.5 C 410.738,167.214 411.405,169.214 411.5,171.5C 409.72,170.01 409.054,168.01 409.5,165.5 Z"/></g>
<g><path style="opacity:0.71" fill="#222b6f" d="M 50.5,168.5 C 51.1667,168.833 51.8333,169.167 52.5,169.5C 52.8195,174.363 52.4861,179.03 51.5,183.5C 51.6625,178.453 51.3292,173.453 50.5,168.5 Z"/></g>
<g><path style="opacity:0.02" fill="#17182d" d="M 176.5,169.5 C 176.027,170.906 175.027,171.573 173.5,171.5C 173.973,170.094 174.973,169.427 176.5,169.5 Z"/></g>
<g><path style="opacity:0.153" fill="#1e1e46" d="M 448.5,158.5 C 449.434,159.772 450.101,161.272 450.5,163C 447.838,177.148 443.505,190.648 437.5,203.5C 438.2,199.763 439.2,196.096 440.5,192.5C 443.274,186.507 445.274,180.174 446.5,173.5C 448.145,168.766 448.811,163.766 448.5,158.5 Z"/></g>
<g><path style="opacity:0.188" fill="#1a1d3f" d="M 460.5,169.5 C 460.167,170.833 459.833,172.167 459.5,173.5C 459.068,174.71 458.401,175.71 457.5,176.5C 457.552,173.654 458.552,171.32 460.5,169.5 Z"/></g>
<g><path style="opacity:0.525" fill="#1e2048" d="M 65.5,158.5 C 70.8243,168.112 71.8243,178.112 68.5,188.5C 68.5,184.833 68.5,181.167 68.5,177.5C 68.665,174.15 68.4983,170.817 68,167.5C 66.5699,164.647 65.7366,161.647 65.5,158.5 Z"/></g>
<g><path style="opacity:0.941" fill="#26296a" d="M 82.5,170.5 C 82.5,171.833 82.5,173.167 82.5,174.5C 81.3485,176.779 80.3485,179.112 79.5,181.5C 79.1257,177.353 80.1257,173.686 82.5,170.5 Z"/></g>
<g><path style="opacity:0.577" fill="#272e7c" d="M 339.5,157.5 C 341.213,158.635 341.88,160.302 341.5,162.5C 341.5,173.5 341.5,184.5 341.5,195.5C 340.521,192.375 340.187,189.042 340.5,185.5C 340.5,181.167 340.5,176.833 340.5,172.5C 340.726,167.438 340.392,162.438 339.5,157.5 Z"/></g>
<g><path style="opacity:0.196" fill="#1c1e43" d="M 496.5,172.5 C 497.728,173.306 498.728,174.306 499.5,175.5C 499.737,176.791 499.404,177.791 498.5,178.5C 498.5,177.833 498.167,177.5 497.5,177.5C 497.371,175.784 497.038,174.117 496.5,172.5 Z"/></g>
<g><path style="opacity:0.898" fill="#292c6f" d="M 511.5,168.5 C 513.44,170.63 514.106,172.964 513.5,175.5C 512.833,175.5 512.5,175.167 512.5,174.5C 511.85,172.565 511.517,170.565 511.5,168.5 Z"/></g>
<g><path style="opacity:1" fill="#3f4be0" d="M 68.5,177.5 C 68.5,181.167 68.5,184.833 68.5,188.5C 68.5905,191.152 67.9238,193.485 66.5,195.5C 66.5,193.167 66.5,190.833 66.5,188.5C 61.2696,187.629 55.9363,187.629 50.5,188.5C 50.366,186.708 50.6993,185.042 51.5,183.5C 52.4861,179.03 52.8195,174.363 52.5,169.5C 57.4053,168.555 62.4053,168.221 67.5,168.5C 67.19,171.713 67.5233,174.713 68.5,177.5 Z"/></g>
<g><path style="opacity:0.482" fill="#202559" d="M 153.5,170.5 C 153.5,171.167 153.5,171.833 153.5,172.5C 153.34,174.153 152.674,175.486 151.5,176.5C 151.259,174.102 151.926,172.102 153.5,170.5 Z"/></g>
<g><path style="opacity:0.659" fill="#201f46" d="M 430.5,171.5 C 430.5,172.5 430.5,173.5 430.5,174.5C 430.672,175.492 430.338,176.158 429.5,176.5C 429.062,176.565 428.728,176.399 428.5,176C 429.099,174.378 429.766,172.878 430.5,171.5 Z"/></g>
<g><path style="opacity:0.649" fill="#23255d" d="M 3.5,142.5 C 3.44312,143.609 3.10978,144.609 2.5,145.5C 2.5,148.833 2.5,152.167 2.5,155.5C 2.5,161.833 2.5,168.167 2.5,174.5C 2.5,180.167 2.5,185.833 2.5,191.5C 2.5,198.167 2.5,204.833 2.5,211.5C 1.71003,210.391 1.21003,209.058 1,207.5C 0.333333,187.167 0.333333,166.833 1,146.5C 1.20041,144.68 2.03374,143.347 3.5,142.5 Z"/></g>
<g><path style="opacity:0.375" fill="#222058" d="M 297.5,169.5 C 296.359,170.339 295.026,171.006 293.5,171.5C 293.158,186.856 292.158,201.856 290.5,216.5C 291.458,210.256 291.791,203.923 291.5,197.5C 291.5,192.833 291.5,188.167 291.5,183.5C 291.174,179.116 291.508,174.783 292.5,170.5C 294.071,169.691 295.738,169.357 297.5,169.5 Z"/></g>
<g><path style="opacity:0.416" fill="#21235b" d="M 365.5,156.5 C 364.529,165.416 364.196,174.416 364.5,183.5C 364.5,190.167 364.5,196.833 364.5,203.5C 363.5,203.5 362.5,203.5 361.5,203.5C 363.296,188.07 364.129,172.404 364,156.5C 364.69,155.262 365.19,155.262 365.5,156.5 Z"/></g>
<g><path style="opacity:0.627" fill="#22214d" d="M 411.5,171.5 C 413.204,174.939 414.538,178.605 415.5,182.5C 413.613,180.211 412.279,177.545 411.5,174.5C 411.5,173.5 411.5,172.5 411.5,171.5 Z"/></g>
<g><path style="opacity:0.491" fill="#221f4b" d="M 378.5,157.5 C 379.966,158.347 380.8,159.68 381,161.5C 381.167,167.833 381.333,174.167 381.5,180.5C 381.083,188.414 381.083,196.247 381.5,204C 381.162,206.609 380.162,208.776 378.5,210.5C 379.44,202.221 379.773,193.888 379.5,185.5C 379.5,181.5 379.5,177.5 379.5,173.5C 379.733,168.105 379.4,162.772 378.5,157.5 Z"/></g>
<g><path style="opacity:0.514" fill="#1f204e" d="M 513.5,175.5 C 515.769,178.579 515.769,181.579 513.5,184.5C 513.5,181.5 513.5,178.5 513.5,175.5 Z"/></g>
<g><path style="opacity:0.487" fill="#252565" d="M 230.5,153.5 C 230.833,153.5 231.167,153.5 231.5,153.5C 231.5,159.833 231.5,166.167 231.5,172.5C 231.5,176.833 231.5,181.167 231.5,185.5C 231.5,194.833 231.5,204.167 231.5,213.5C 229.988,197.638 229.655,181.638 230.5,165.5C 230.5,161.5 230.5,157.5 230.5,153.5 Z"/></g>
<g><path style="opacity:1" fill="#4249e4" d="M 340.5,172.5 C 340.5,176.833 340.5,181.167 340.5,185.5C 339.732,186.263 339.232,187.263 339,188.5C 335.03,188.035 330.864,188.035 326.5,188.5C 326.5,193.167 326.5,197.833 326.5,202.5C 325.539,200.735 325.205,198.735 325.5,196.5C 325.075,189.385 325.575,182.385 327,175.5C 329.667,174.167 332.333,174.167 335,175.5C 337.099,174.869 338.932,173.869 340.5,172.5 Z"/></g>
<g><path style="opacity:0.757" fill="#25245a" d="M 428.5,179.5 C 428.59,182.152 427.924,184.485 426.5,186.5C 426.41,183.848 427.076,181.515 428.5,179.5 Z"/></g>
<g><path style="opacity:0.107" fill="#151628" d="M 138.5,172.5 C 141.458,178.965 142.125,185.632 140.5,192.5C 140.817,188.298 140.483,184.298 139.5,180.5C 139.167,178.5 138.833,176.5 138.5,174.5C 138.5,173.833 138.5,173.167 138.5,172.5 Z"/></g>
<g><path style="opacity:1" fill="#4346df" d="M 459.5,173.5 C 461.03,174.067 462.53,174.733 464,175.5C 466.401,174.398 468.901,174.231 471.5,175C 472.056,175.383 472.389,175.883 472.5,176.5C 471.85,178.435 471.517,180.435 471.5,182.5C 473.099,182.768 474.432,182.434 475.5,181.5C 479.785,180.005 484.118,179.338 488.5,179.5C 491.609,179.736 494.609,179.403 497.5,178.5C 497.833,178.5 498.167,178.5 498.5,178.5C 499.404,177.791 499.737,176.791 499.5,175.5C 503.821,174.703 508.155,174.37 512.5,174.5C 512.5,175.167 512.833,175.5 513.5,175.5C 513.5,178.5 513.5,181.5 513.5,184.5C 513.033,187.297 511.367,188.631 508.5,188.5C 504.21,188.198 500.21,188.864 496.5,190.5C 488.833,191.167 481.167,191.833 473.5,192.5C 473.5,193.5 473.5,194.5 473.5,195.5C 468.658,194.216 463.825,192.883 459,191.5C 458.536,192.094 458.369,192.761 458.5,193.5C 457.511,188.025 457.178,182.358 457.5,176.5C 458.401,175.71 459.068,174.71 459.5,173.5 Z"/></g>
<g><path style="opacity:0.325" fill="#1e1d44" d="M 472.5,176.5 C 472.833,176.5 473.167,176.5 473.5,176.5C 473.077,178.781 473.744,180.448 475.5,181.5C 474.432,182.434 473.099,182.768 471.5,182.5C 471.517,180.435 471.85,178.435 472.5,176.5 Z"/></g>
<g><path style="opacity:0.475" fill="#1b1a35" d="M 497.5,177.5 C 497.5,177.833 497.5,178.167 497.5,178.5C 494.609,179.403 491.609,179.736 488.5,179.5C 491.311,178.525 494.311,177.858 497.5,177.5 Z"/></g>
<g><path style="opacity:1" fill="#4448e6" d="M 17.5,170.5 C 17.5,177.5 17.5,184.5 17.5,191.5C 12.5,194.167 7.5,194.167 2.5,191.5C 2.5,185.833 2.5,180.167 2.5,174.5C 6.27109,174.696 10.1044,175.029 14,175.5C 15.683,174.113 16.8496,172.447 17.5,170.5 Z"/></g>
<g><path style="opacity:1" fill="#4248e0" d="M 82.5,174.5 C 87.3281,175.023 92.3281,175.023 97.5,174.5C 96.0164,179.033 95.3497,183.7 95.5,188.5C 91.0623,188.446 86.5623,188.112 82,187.5C 80.6485,189.594 80.1485,191.927 80.5,194.5C 80.1667,194.5 79.8333,194.5 79.5,194.5C 79.2552,189.944 79.2552,185.61 79.5,181.5C 80.3485,179.112 81.3485,176.779 82.5,174.5 Z"/></g>
<g><path style="opacity:0.044" fill="#17152b" d="M 123.5,181.5 C 124.161,183.134 124.494,184.967 124.5,187C 124.64,190.15 123.973,192.983 122.5,195.5C 123.229,190.87 123.563,186.203 123.5,181.5 Z"/></g>
<g><path style="opacity:0.831" fill="#312e8f" d="M 139.5,180.5 C 140.483,184.298 140.817,188.298 140.5,192.5C 140.59,195.152 139.924,197.485 138.5,199.5C 139.32,193.203 139.653,186.869 139.5,180.5 Z"/></g>
<g><path style="opacity:1" fill="#4346df" d="M 153.5,172.5 C 155.068,173.869 156.901,174.869 159,175.5C 165.432,172.697 168.265,174.697 167.5,181.5C 166.167,185.167 166.167,188.833 167.5,192.5C 167.5,193.5 167.5,194.5 167.5,195.5C 162.469,194.217 157.469,194.217 152.5,195.5C 151.51,189.355 151.177,183.022 151.5,176.5C 152.674,175.486 153.34,174.153 153.5,172.5 Z"/></g>
<g><path style="opacity:1" fill="#4349e7" d="M 231.5,172.5 C 236.33,174.682 241.33,175.349 246.5,174.5C 246.5,178.833 246.5,183.167 246.5,187.5C 242.061,188.405 237.728,188.738 233.5,188.5C 232.824,187.398 232.158,186.398 231.5,185.5C 231.5,181.167 231.5,176.833 231.5,172.5 Z"/></g>
<g><path style="opacity:1" fill="#4349e5" d="M 276.5,168.5 C 277.461,170.265 277.795,172.265 277.5,174.5C 281.717,174.724 285.883,174.724 290,174.5C 290.181,177.695 290.681,180.695 291.5,183.5C 291.5,188.167 291.5,192.833 291.5,197.5C 290.683,195.031 290.183,192.365 290,189.5C 289.333,188.833 288.667,188.167 288,187.5C 284.875,187.923 281.708,188.257 278.5,188.5C 277.832,185.694 277.166,183.028 276.5,180.5C 276.5,176.5 276.5,172.5 276.5,168.5 Z"/></g>
<g><path style="opacity:1" fill="#4349e7" d="M 379.5,173.5 C 379.5,177.5 379.5,181.5 379.5,185.5C 378.842,186.398 378.176,187.398 377.5,188.5C 374.292,188.257 371.125,187.923 368,187.5C 367.333,188.167 366.667,188.833 366,189.5C 365.505,187.527 365.338,185.527 365.5,183.5C 365.223,180.552 365.556,177.719 366.5,175C 368.769,174.242 370.936,174.409 373,175.5C 375.154,174.77 377.321,174.103 379.5,173.5 Z"/></g>
<g><path style="opacity:0.353" fill="#212151" d="M 395.5,175.5 C 395.833,175.5 396.167,175.5 396.5,175.5C 398.174,180.844 399.841,186.177 401.5,191.5C 398.536,186.618 396.536,181.285 395.5,175.5 Z"/></g>
<g><path style="opacity:1" fill="#4346e1" d="M 411.5,174.5 C 412.279,177.545 413.613,180.211 415.5,182.5C 415.5,182.833 415.5,183.167 415.5,183.5C 415.12,185.698 415.787,187.365 417.5,188.5C 417.5,189.833 417.5,191.167 417.5,192.5C 413.6,193.43 409.6,193.763 405.5,193.5C 405.5,195.833 405.5,198.167 405.5,200.5C 404.326,199.486 403.66,198.153 403.5,196.5C 403.598,194.447 402.931,192.78 401.5,191.5C 399.841,186.177 398.174,180.844 396.5,175.5C 401.176,175.142 406.176,174.809 411.5,174.5 Z"/></g>
<g><path style="opacity:1" fill="#4346e0" d="M 446.5,173.5 C 445.274,180.174 443.274,186.507 440.5,192.5C 436.057,193.665 431.224,193.665 426,192.5C 423.977,194.769 423.144,197.436 423.5,200.5C 422.209,200.737 421.209,200.404 420.5,199.5C 421.833,199.5 422.5,198.833 422.5,197.5C 423.065,193.463 424.399,189.797 426.5,186.5C 427.924,184.485 428.59,182.152 428.5,179.5C 428.557,178.391 428.89,177.391 429.5,176.5C 430.338,176.158 430.672,175.492 430.5,174.5C 433.932,174.59 437.432,174.924 441,175.5C 442.815,174.756 444.648,174.089 446.5,173.5 Z"/></g>
<g><path style="opacity:1" fill="#4349e7" d="M 580.5,176.5 C 580.5,180.833 580.5,185.167 580.5,189.5C 579.542,189.047 578.708,188.381 578,187.5C 574.272,188.339 570.438,188.672 566.5,188.5C 566.5,184.5 566.5,180.5 566.5,176.5C 566.866,175.305 567.699,174.639 569,174.5C 570.841,175.117 572.841,175.117 575,174.5C 577.178,174.395 579.012,175.061 580.5,176.5 Z"/></g>
<g><path style="opacity:0.349" fill="#2d0d51" d="M 644.5,177.5 C 645.658,187.325 645.825,197.325 645,207.5C 644.79,209.058 644.29,210.391 643.5,211.5C 644.294,200.185 644.627,188.852 644.5,177.5 Z"/></g>
<g><path style="opacity:0.194" fill="#191a3f" d="M 97.5,174.5 C 97.8333,174.5 98.1667,174.5 98.5,174.5C 96.9779,180.052 96.3112,185.718 96.5,191.5C 95.596,190.791 95.2627,189.791 95.5,188.5C 95.3497,183.7 96.0164,179.033 97.5,174.5 Z"/></g>
<g><path style="opacity:0.691" fill="#282566" d="M 276.5,165.5 C 276.5,166.5 276.5,167.5 276.5,168.5C 276.5,172.5 276.5,176.5 276.5,180.5C 276.5,190.5 276.5,200.5 276.5,210.5C 276.167,210.5 275.833,210.5 275.5,210.5C 274.352,196.575 274.186,182.575 275,168.5C 275.232,167.263 275.732,166.263 276.5,165.5 Z"/></g>
<g><path style="opacity:0.765" fill="#25225b" d="M 415.5,183.5 C 416.537,184.93 417.204,186.597 417.5,188.5C 415.787,187.365 415.12,185.698 415.5,183.5 Z"/></g>
<g><path style="opacity:1" fill="#4842e1" d="M 138.5,174.5 C 138.833,176.5 139.167,178.5 139.5,180.5C 139.653,186.869 139.32,193.203 138.5,199.5C 137.833,200.167 137.167,200.833 136.5,201.5C 131.695,200.513 126.695,200.179 121.5,200.5C 121.5,199.833 121.5,199.167 121.5,198.5C 121.557,197.391 121.89,196.391 122.5,195.5C 123.973,192.983 124.64,190.15 124.5,187C 124.494,184.967 124.161,183.134 123.5,181.5C 123.5,179.167 123.5,176.833 123.5,174.5C 126.48,175.025 129.313,175.025 132,174.5C 133.447,174.945 134.78,175.612 136,176.5C 137.011,175.944 137.844,175.278 138.5,174.5 Z"/></g>
<g><path style="opacity:1" fill="#4646e6" d="M 541.5,170.5 C 541.5,177.5 541.5,184.5 541.5,191.5C 540.596,192.209 540.263,193.209 540.5,194.5C 536.167,194.5 531.833,194.5 527.5,194.5C 527.11,185.108 527.443,178.442 528.5,174.5C 532.347,175.02 536.347,175.02 540.5,174.5C 540.232,172.901 540.566,171.568 541.5,170.5 Z"/></g>
<g><path style="opacity:0.635" fill="#25245f" d="M 18.5,152.5 C 18.5,153.167 18.5,153.833 18.5,154.5C 19.6925,170.106 19.6925,185.772 18.5,201.5C 18.5,202.167 18.5,202.833 18.5,203.5C 17.5166,199.702 17.1832,195.702 17.5,191.5C 17.5,184.5 17.5,177.5 17.5,170.5C 17.5,165.5 17.5,160.5 17.5,155.5C 17.2627,154.209 17.596,153.209 18.5,152.5 Z"/></g>
<g><path style="opacity:0.004" fill="#1c1938" d="M 508.5,188.5 C 504.79,190.136 500.79,190.802 496.5,190.5C 500.21,188.864 504.21,188.198 508.5,188.5 Z"/></g>
<g><path style="opacity:0.659" fill="#231d4e" d="M 417.5,188.5 C 418.767,190.78 419.767,193.28 420.5,196C 420.836,197.03 421.503,197.53 422.5,197.5C 422.5,198.833 421.833,199.5 420.5,199.5C 419.677,197.013 418.677,194.679 417.5,192.5C 417.5,191.167 417.5,189.833 417.5,188.5 Z"/></g>
<g><path style="opacity:0.208" fill="#1c193e" d="M 457.5,176.5 C 457.178,182.358 457.511,188.025 458.5,193.5C 458.993,195.806 459.326,198.139 459.5,200.5C 458.073,198.852 457.24,196.852 457,194.5C 456.181,188.319 456.347,182.319 457.5,176.5 Z"/></g>
<g><path style="opacity:0.098" fill="#1a1836" d="M 496.5,190.5 C 489.707,192.063 482.707,193.23 475.5,194C 474.748,194.671 474.414,195.504 474.5,196.5C 473.833,196.5 473.5,196.167 473.5,195.5C 473.5,194.5 473.5,193.5 473.5,192.5C 481.167,191.833 488.833,191.167 496.5,190.5 Z"/></g>
<g><path style="opacity:0.765" fill="#371163" d="M 652.5,175.5 C 652.833,175.5 653.167,175.5 653.5,175.5C 654.396,182.53 654.396,189.53 653.5,196.5C 653.167,196.5 652.833,196.5 652.5,196.5C 652.5,189.5 652.5,182.5 652.5,175.5 Z"/></g>
<g><path style="opacity:0.4" fill="#242058" d="M 151.5,176.5 C 151.177,183.022 151.51,189.355 152.5,195.5C 152.873,198.574 153.539,201.574 154.5,204.5C 149.226,195.598 148.226,186.265 151.5,176.5 Z"/></g>
<g><path style="opacity:1" fill="#352b8f" d="M 50.5,188.5 C 50.0137,190.807 50.0137,192.973 50.5,195C 48.2657,196.75 45.9324,198.25 43.5,199.5C 46.6091,196.271 48.9424,192.605 50.5,188.5 Z"/></g>
<g><path style="opacity:0.361" fill="#221c4a" d="M 401.5,191.5 C 402.931,192.78 403.598,194.447 403.5,196.5C 402.069,195.22 401.402,193.553 401.5,191.5 Z"/></g>
<g><path style="opacity:0.292" fill="#1b183f" d="M 560.5,169.5 C 563.858,170.527 565.525,172.86 565.5,176.5C 565.5,188.5 565.5,200.5 565.5,212.5C 564.669,200.007 564.169,187.34 564,174.5C 563.003,172.677 561.836,171.01 560.5,169.5 Z"/></g>
<g><path style="opacity:0.851" fill="#2a2261" d="M 167.5,192.5 C 168.537,193.93 169.204,195.597 169.5,197.5C 168.5,197.167 167.833,196.5 167.5,195.5C 167.5,194.5 167.5,193.5 167.5,192.5 Z"/></g>
<g><path style="opacity:0.682" fill="#271f57" d="M 541.5,170.5 C 542.167,170.5 542.833,170.5 543.5,170.5C 543.884,185.582 543.384,200.915 542,216.5C 538.066,217.821 534.233,217.821 530.5,216.5C 534.215,216.577 537.881,216.244 541.5,215.5C 541.5,207.5 541.5,199.5 541.5,191.5C 541.5,184.5 541.5,177.5 541.5,170.5 Z"/></g>
<g><path style="opacity:0.212" fill="#18142a" d="M 79.5,194.5 C 79.8333,194.5 80.1667,194.5 80.5,194.5C 81.038,196.117 81.3713,197.784 81.5,199.5C 80.0687,198.22 79.4021,196.553 79.5,194.5 Z"/></g>
<g><path style="opacity:0.725" fill="#2a1f5b" d="M 169.5,197.5 C 170.906,197.973 171.573,198.973 171.5,200.5C 170.094,200.027 169.427,199.027 169.5,197.5 Z"/></g>
<g><path style="opacity:0.814" fill="#352e8f" d="M 247.5,153.5 C 247.5,174.167 247.5,194.833 247.5,215.5C 247.389,216.117 247.056,216.617 246.5,217C 242.311,217.812 238.311,217.645 234.5,216.5C 238.24,216.759 241.906,216.426 245.5,215.5C 246.498,206.19 246.832,196.857 246.5,187.5C 246.5,183.167 246.5,178.833 246.5,174.5C 246.5,168.5 246.5,162.5 246.5,156.5C 246.263,155.209 246.596,154.209 247.5,153.5 Z"/></g>
<g><path style="opacity:0.792" fill="#271d50" d="M 474.5,197.5 C 476.167,198.5 477.5,199.833 478.5,201.5C 476.167,201.167 474.833,199.833 474.5,197.5 Z"/></g>
<g><path style="opacity:0.635" fill="#231b4b" d="M 98.5,198.5 C 100.167,199.5 101.5,200.833 102.5,202.5C 100.167,202.167 98.8333,200.833 98.5,198.5 Z"/></g>
<g><path style="opacity:0.416" fill="#1f183e" d="M 509.5,201.5 C 508.167,201.5 506.833,201.5 505.5,201.5C 507.032,199.219 508.366,199.219 509.5,201.5 Z"/></g>
<g><path style="opacity:0.62" fill="#291e59" d="M 121.5,198.5 C 121.5,199.167 121.5,199.833 121.5,200.5C 120.078,201.925 118.411,202.925 116.5,203.5C 117.833,201.5 119.5,199.833 121.5,198.5 Z"/></g>
<g><path style="opacity:0.929" fill="#2c205f" d="M 199.5,203.5 C 197.621,202.659 195.621,202.325 193.5,202.5C 196.174,199.51 198.174,199.843 199.5,203.5 Z"/></g>
<g><path style="opacity:1" fill="#5034d6" d="M 276.5,180.5 C 277.166,183.028 277.832,185.694 278.5,188.5C 281.708,188.257 284.875,187.923 288,187.5C 288.667,188.167 289.333,188.833 290,189.5C 290.183,192.365 290.683,195.031 291.5,197.5C 291.791,203.923 291.458,210.256 290.5,216.5C 286.935,217.787 283.268,217.787 279.5,216.5C 277.615,214.947 276.615,212.947 276.5,210.5C 276.5,200.5 276.5,190.5 276.5,180.5 Z"/></g>
<g><path style="opacity:0.907" fill="#4030af" d="M 565.5,176.5 C 565.833,176.5 566.167,176.5 566.5,176.5C 566.5,180.5 566.5,184.5 566.5,188.5C 566.222,197.553 566.556,206.553 567.5,215.5C 566.094,215.027 565.427,214.027 565.5,212.5C 565.5,200.5 565.5,188.5 565.5,176.5 Z"/></g>
<g><path style="opacity:0.004" fill="#171224" d="M 63.5,201.5 C 63.573,203.027 62.9063,204.027 61.5,204.5C 61.427,202.973 62.0937,201.973 63.5,201.5 Z"/></g>
<g><path style="opacity:0.231" fill="#1f1842" d="M 138.5,199.5 C 138.539,202.089 137.539,204.089 135.5,205.5C 135.833,204.167 136.167,202.833 136.5,201.5C 137.167,200.833 137.833,200.167 138.5,199.5 Z"/></g>
<g><path style="opacity:1" fill="#5136dd" d="M 231.5,185.5 C 232.158,186.398 232.824,187.398 233.5,188.5C 237.728,188.738 242.061,188.405 246.5,187.5C 246.832,196.857 246.498,206.19 245.5,215.5C 241.906,216.426 238.24,216.759 234.5,216.5C 233.833,215.167 232.833,214.167 231.5,213.5C 231.5,204.167 231.5,194.833 231.5,185.5 Z"/></g>
<g><path style="opacity:0.251" fill="#1e163c" d="M 509.5,201.5 C 510.906,201.973 511.573,202.973 511.5,204.5C 510.094,204.027 509.427,203.027 509.5,201.5 Z"/></g>
<g><path style="opacity:1" fill="#5135dc" d="M 580.5,189.5 C 580.5,198.167 580.5,206.833 580.5,215.5C 576.881,216.244 573.215,216.577 569.5,216.5C 568.508,216.672 567.842,216.338 567.5,215.5C 566.556,206.553 566.222,197.553 566.5,188.5C 570.438,188.672 574.272,188.339 578,187.5C 578.708,188.381 579.542,189.047 580.5,189.5 Z"/></g>
<g><path style="opacity:0.139" fill="#220f38" d="M 652.5,196.5 C 652.833,196.5 653.167,196.5 653.5,196.5C 653.606,211.687 651.273,226.354 646.5,240.5C 647.992,232.527 649.492,224.527 651,216.5C 652.052,209.872 652.552,203.206 652.5,196.5 Z"/></g>
<g><path style="opacity:0.047" fill="#1c152e" d="M 154.5,204.5 C 155.906,204.973 156.573,205.973 156.5,207.5C 155.094,207.027 154.427,206.027 154.5,204.5 Z"/></g>
<g><path style="opacity:0.839" fill="#261a49" d="M 407.5,205.5 C 409.785,207.118 411.785,209.118 413.5,211.5C 410.522,210.522 408.522,208.522 407.5,205.5 Z"/></g>
<g><path style="opacity:0.047" fill="#1c1531" d="M 135.5,205.5 C 135.573,207.027 134.906,208.027 133.5,208.5C 133.427,206.973 134.094,205.973 135.5,205.5 Z"/></g>
<g><path style="opacity:1" fill="#5230d4" d="M 66.5,195.5 C 66.0075,197.819 65.0075,199.819 63.5,201.5C 62.0937,201.973 61.427,202.973 61.5,204.5C 58.5818,208.957 54.5818,211.957 49.5,213.5C 46.5568,213.98 43.8902,214.98 41.5,216.5C 41.1667,216.5 40.8333,216.5 40.5,216.5C 32.5208,217.224 24.5208,217.558 16.5,217.5C 16.1667,217.5 15.8333,217.5 15.5,217.5C 13.4855,216.076 11.1522,215.41 8.5,215.5C 8.16667,215.5 7.83333,215.5 7.5,215.5C 7.02694,214.094 6.02694,213.427 4.5,213.5C 3.5,213.167 2.83333,212.5 2.5,211.5C 2.5,204.833 2.5,198.167 2.5,191.5C 7.5,194.167 12.5,194.167 17.5,191.5C 17.1832,195.702 17.5166,199.702 18.5,203.5C 23.9846,204.652 29.6513,204.818 35.5,204C 37.3197,203.8 38.653,202.966 39.5,201.5C 39.8333,201.5 40.1667,201.5 40.5,201.5C 42.0269,201.573 43.0269,200.906 43.5,199.5C 45.9324,198.25 48.2657,196.75 50.5,195C 50.0137,192.973 50.0137,190.807 50.5,188.5C 55.9363,187.629 61.2696,187.629 66.5,188.5C 66.5,190.833 66.5,193.167 66.5,195.5 Z"/></g>
<g><path style="opacity:0.149" fill="#1c153b" d="M 18.5,201.5 C 25.4272,204.012 32.4272,204.012 39.5,201.5C 38.653,202.966 37.3197,203.8 35.5,204C 29.6513,204.818 23.9846,204.652 18.5,203.5C 18.5,202.833 18.5,202.167 18.5,201.5 Z"/></g>
<g><path style="opacity:0.584" fill="#241b52" d="M 43.5,199.5 C 43.0269,200.906 42.0269,201.573 40.5,201.5C 40.9731,200.094 41.9731,199.427 43.5,199.5 Z"/></g>
<g><path style="opacity:1" fill="#5131d3" d="M 95.5,188.5 C 95.2627,189.791 95.596,190.791 96.5,191.5C 97.6118,193.599 98.2785,195.933 98.5,198.5C 98.8333,200.833 100.167,202.167 102.5,202.5C 104.166,204.828 106.499,205.828 109.5,205.5C 112.155,205.56 114.489,204.893 116.5,203.5C 118.411,202.925 120.078,201.925 121.5,200.5C 126.695,200.179 131.695,200.513 136.5,201.5C 136.167,202.833 135.833,204.167 135.5,205.5C 134.094,205.973 133.427,206.973 133.5,208.5C 132.833,209.833 131.833,210.833 130.5,211.5C 128.973,211.427 127.973,212.094 127.5,213.5C 125.574,215.293 123.241,216.293 120.5,216.5C 115.87,217.229 111.203,217.563 106.5,217.5C 103.373,216.419 100.04,215.753 96.5,215.5C 95.5084,215.672 94.8417,215.338 94.5,214.5C 94.0269,213.094 93.0269,212.427 91.5,212.5C 90.7377,210.738 89.4044,209.738 87.5,209.5C 84.2719,206.931 82.2719,203.598 81.5,199.5C 81.3713,197.784 81.038,196.117 80.5,194.5C 80.1485,191.927 80.6485,189.594 82,187.5C 86.5623,188.112 91.0623,188.446 95.5,188.5 Z"/></g>
<g><path style="opacity:0.369" fill="#251a51" d="M 102.5,202.5 C 107.036,204.674 111.703,205.007 116.5,203.5C 114.489,204.893 112.155,205.56 109.5,205.5C 106.499,205.828 104.166,204.828 102.5,202.5 Z"/></g>
<g><path style="opacity:1" fill="#532fd6" d="M 167.5,195.5 C 167.833,196.5 168.5,197.167 169.5,197.5C 169.427,199.027 170.094,200.027 171.5,200.5C 173.027,200.427 174.027,201.094 174.5,202.5C 180.117,205.88 186.117,206.38 192.5,204C 193.056,203.617 193.389,203.117 193.5,202.5C 195.621,202.325 197.621,202.659 199.5,203.5C 200.833,206.5 200.833,209.5 199.5,212.5C 198.738,214.262 197.404,215.262 195.5,215.5C 189.616,217.066 183.616,217.732 177.5,217.5C 173.702,216.132 169.702,215.132 165.5,214.5C 165.027,213.094 164.027,212.427 162.5,212.5C 161.738,210.738 160.404,209.738 158.5,209.5C 157.5,209.167 156.833,208.5 156.5,207.5C 156.573,205.973 155.906,204.973 154.5,204.5C 153.539,201.574 152.873,198.574 152.5,195.5C 157.469,194.217 162.469,194.217 167.5,195.5 Z"/></g>
<g><path style="opacity:0.439" fill="#291d5e" d="M 174.5,202.5 C 177.488,203.161 180.488,203.828 183.5,204.5C 186.878,203.958 190.211,203.291 193.5,202.5C 193.389,203.117 193.056,203.617 192.5,204C 186.117,206.38 180.117,205.88 174.5,202.5 Z"/></g>
<g><path style="opacity:1" fill="#5132d6" d="M 364.5,183.5 C 364.833,183.5 365.167,183.5 365.5,183.5C 365.338,185.527 365.505,187.527 366,189.5C 366.667,188.833 367.333,188.167 368,187.5C 371.125,187.923 374.292,188.257 377.5,188.5C 378.176,187.398 378.842,186.398 379.5,185.5C 379.773,193.888 379.44,202.221 378.5,210.5C 378.167,211.5 377.5,212.167 376.5,212.5C 374.62,212.229 373.287,212.896 372.5,214.5C 370.786,215.738 368.786,216.405 366.5,216.5C 359.529,217.29 352.529,217.623 345.5,217.5C 342.084,217.472 339.084,216.472 336.5,214.5C 336.027,213.094 335.027,212.427 333.5,212.5C 332.118,210.451 330.452,208.785 328.5,207.5C 327.069,206.22 326.402,204.553 326.5,202.5C 326.5,197.833 326.5,193.167 326.5,188.5C 330.864,188.035 335.03,188.035 339,188.5C 339.232,187.263 339.732,186.263 340.5,185.5C 340.187,189.042 340.521,192.375 341.5,195.5C 341.12,197.698 341.787,199.365 343.5,200.5C 343.5,201.833 344.167,202.5 345.5,202.5C 347.508,204.927 350.174,205.927 353.5,205.5C 356.486,205.618 359.152,204.952 361.5,203.5C 362.5,203.5 363.5,203.5 364.5,203.5C 364.5,196.833 364.5,190.167 364.5,183.5 Z"/></g>
<g><path style="opacity:0.459" fill="#261b53" d="M 345.5,202.5 C 350.705,204.719 356.039,205.052 361.5,203.5C 359.152,204.952 356.486,205.618 353.5,205.5C 350.174,205.927 347.508,204.927 345.5,202.5 Z"/></g>
<g><path style="opacity:0.478" fill="#201940" d="M 343.5,200.5 C 344.5,200.833 345.167,201.5 345.5,202.5C 344.167,202.5 343.5,201.833 343.5,200.5 Z"/></g>
<g><path style="opacity:1" fill="#5130d1" d="M 440.5,192.5 C 439.2,196.096 438.2,199.763 437.5,203.5C 434.93,210.311 431.596,216.644 427.5,222.5C 427.5,221.5 427.5,220.5 427.5,219.5C 421.108,219.249 414.775,219.582 408.5,220.5C 408.833,219.5 409.5,218.833 410.5,218.5C 411.906,218.027 412.573,217.027 412.5,215.5C 412.833,214.167 413.167,212.833 413.5,211.5C 411.785,209.118 409.785,207.118 407.5,205.5C 406.559,203.95 405.893,202.284 405.5,200.5C 405.5,198.167 405.5,195.833 405.5,193.5C 409.6,193.763 413.6,193.43 417.5,192.5C 418.677,194.679 419.677,197.013 420.5,199.5C 421.209,200.404 422.209,200.737 423.5,200.5C 423.144,197.436 423.977,194.769 426,192.5C 431.224,193.665 436.057,193.665 440.5,192.5 Z"/></g>
<g><path style="opacity:1" fill="#512fcd" d="M 473.5,195.5 C 473.5,196.167 473.833,196.5 474.5,196.5C 474.5,196.833 474.5,197.167 474.5,197.5C 474.833,199.833 476.167,201.167 478.5,201.5C 479.167,201.833 479.833,202.167 480.5,202.5C 481.058,203.79 482.058,204.623 483.5,205C 488.02,205.814 492.354,205.647 496.5,204.5C 498.527,204.662 500.527,204.495 502.5,204C 503.056,203.617 503.389,203.117 503.5,202.5C 503.842,201.662 504.508,201.328 505.5,201.5C 506.833,201.5 508.167,201.5 509.5,201.5C 509.427,203.027 510.094,204.027 511.5,204.5C 513.052,210.335 510.719,214.002 504.5,215.5C 502.214,215.595 500.214,216.262 498.5,217.5C 492.833,218.833 487.167,218.833 481.5,217.5C 478.855,215.69 475.855,214.69 472.5,214.5C 472.027,213.094 471.027,212.427 469.5,212.5C 468.415,210.413 466.749,209.08 464.5,208.5C 461.836,206.516 460.169,203.849 459.5,200.5C 459.326,198.139 458.993,195.806 458.5,193.5C 458.369,192.761 458.536,192.094 459,191.5C 463.825,192.883 468.658,194.216 473.5,195.5 Z"/></g>
<g><path style="opacity:0.169" fill="#1c153a" d="M 480.5,202.5 C 485.676,204.184 491.009,204.85 496.5,204.5C 492.354,205.647 488.02,205.814 483.5,205C 482.058,204.623 481.058,203.79 480.5,202.5 Z"/></g>
<g><path style="opacity:0.953" fill="#2d1f66" d="M 503.5,202.5 C 503.389,203.117 503.056,203.617 502.5,204C 500.527,204.495 498.527,204.662 496.5,204.5C 498.599,203.388 500.933,202.721 503.5,202.5 Z"/></g>
<g><path style="opacity:1" fill="#5431d9" d="M 541.5,191.5 C 541.5,199.5 541.5,207.5 541.5,215.5C 537.881,216.244 534.215,216.577 530.5,216.5C 529.508,216.672 528.842,216.338 528.5,215.5C 527.573,208.557 527.24,201.557 527.5,194.5C 531.833,194.5 536.167,194.5 540.5,194.5C 540.263,193.209 540.596,192.209 541.5,191.5 Z"/></g>
<g><path style="opacity:0.867" fill="#2e1d66" d="M 464.5,208.5 C 466.749,209.08 468.415,210.413 469.5,212.5C 467.251,211.92 465.585,210.587 464.5,208.5 Z"/></g>
<g><path style="opacity:0.759" fill="#2c2060" d="M 579.5,167.5 C 580.887,169.877 581.721,172.543 582,175.5C 582.906,189.214 582.573,202.881 581,216.5C 577.066,217.821 573.233,217.821 569.5,216.5C 573.215,216.577 576.881,216.244 580.5,215.5C 580.5,206.833 580.5,198.167 580.5,189.5C 580.5,185.167 580.5,180.833 580.5,176.5C 580.296,173.482 579.963,170.482 579.5,167.5 Z"/></g>
<g><path style="opacity:0.706" fill="#281a53" d="M 87.5,209.5 C 89.4044,209.738 90.7377,210.738 91.5,212.5C 89.5956,212.262 88.2623,211.262 87.5,209.5 Z"/></g>
<g><path style="opacity:0.725" fill="#2a1b5a" d="M 158.5,209.5 C 160.404,209.738 161.738,210.738 162.5,212.5C 160.596,212.262 159.262,211.262 158.5,209.5 Z"/></g>
<g><path style="opacity:0.384" fill="#271a4a" d="M 328.5,207.5 C 330.452,208.785 332.118,210.451 333.5,212.5C 330.856,211.856 329.189,210.189 328.5,207.5 Z"/></g>
<g><path style="opacity:0.11" fill="#1e1638" d="M 199.5,203.5 C 201.026,204.492 201.693,205.992 201.5,208C 201.693,210.008 201.026,211.508 199.5,212.5C 200.833,209.5 200.833,206.5 199.5,203.5 Z"/></g>
<g><path style="opacity:0.384" fill="#22173f" d="M 275.5,210.5 C 275.833,210.5 276.167,210.5 276.5,210.5C 276.615,212.947 277.615,214.947 279.5,216.5C 276.224,215.878 274.891,213.878 275.5,210.5 Z"/></g>
<g><path style="opacity:0.024" fill="#181225" d="M 130.5,211.5 C 130.027,212.906 129.027,213.573 127.5,213.5C 127.973,212.094 128.973,211.427 130.5,211.5 Z"/></g>
<g><path style="opacity:0.357" fill="#281854" d="M 91.5,212.5 C 93.0269,212.427 94.0269,213.094 94.5,214.5C 92.9731,214.573 91.9731,213.906 91.5,212.5 Z"/></g>
<g><path style="opacity:0.255" fill="#221643" d="M 162.5,212.5 C 164.027,212.427 165.027,213.094 165.5,214.5C 163.973,214.573 162.973,213.906 162.5,212.5 Z"/></g>
<g><path style="opacity:0.349" fill="#251849" d="M 333.5,212.5 C 335.027,212.427 336.027,213.094 336.5,214.5C 334.973,214.573 333.973,213.906 333.5,212.5 Z"/></g>
<g><path style="opacity:0.078" fill="#1d1533" d="M 376.5,212.5 C 375.486,213.674 374.153,214.34 372.5,214.5C 373.287,212.896 374.62,212.229 376.5,212.5 Z"/></g>
<g><path style="opacity:0.259" fill="#241748" d="M 469.5,212.5 C 471.027,212.427 472.027,213.094 472.5,214.5C 470.973,214.573 469.973,213.906 469.5,212.5 Z"/></g>
<g><path style="opacity:0.188" fill="#1b1233" d="M 4.5,213.5 C 6.02694,213.427 7.02694,214.094 7.5,215.5C 5.97306,215.573 4.97306,214.906 4.5,213.5 Z"/></g>
<g><path style="opacity:0.851" fill="#2e1a60" d="M 165.5,214.5 C 169.702,215.132 173.702,216.132 177.5,217.5C 176.833,217.5 176.167,217.5 175.5,217.5C 171.838,217.277 168.505,216.277 165.5,214.5 Z"/></g>
<g><path style="opacity:0.02" fill="#1a1329" d="M 231.5,213.5 C 232.833,214.167 233.833,215.167 234.5,216.5C 232.5,216.5 231.5,215.5 231.5,213.5 Z"/></g>
<g><path style="opacity:0.008" fill="#18122a" d="M 49.5,213.5 C 47.3155,215.585 44.6489,216.585 41.5,216.5C 43.8902,214.98 46.5568,213.98 49.5,213.5 Z"/></g>
<g><path style="opacity:0.573" fill="#291850" d="M 472.5,214.5 C 475.855,214.69 478.855,215.69 481.5,217.5C 478.084,217.472 475.084,216.472 472.5,214.5 Z"/></g>
<g><path style="opacity:0.059" fill="#1a122e" d="M 8.5,215.5 C 11.1522,215.41 13.4855,216.076 15.5,217.5C 12.8478,217.59 10.5145,216.924 8.5,215.5 Z"/></g>
<g><path style="opacity:0.847" fill="#3c1e83" d="M 96.5,215.5 C 100.04,215.753 103.373,216.419 106.5,217.5C 105.167,217.5 103.833,217.5 102.5,217.5C 100.214,217.405 98.2143,216.738 96.5,215.5 Z"/></g>
<g><path style="opacity:0.737" fill="#2f1a5b" d="M 412.5,215.5 C 412.573,217.027 411.906,218.027 410.5,218.5C 410.427,216.973 411.094,215.973 412.5,215.5 Z"/></g>
<g><path style="opacity:0.02" fill="#191229" d="M 504.5,215.5 C 502.898,217.074 500.898,217.741 498.5,217.5C 500.214,216.262 502.214,215.595 504.5,215.5 Z"/></g>
<g><path style="opacity:0.065" fill="#171124" d="M 40.5,216.5 C 36.1038,218.033 31.4371,218.7 26.5,218.5C 22.9825,218.498 19.6491,218.165 16.5,217.5C 24.5208,217.558 32.5208,217.224 40.5,216.5 Z"/></g>
<g><path style="opacity:0.061" fill="#140f1c" d="M 120.5,216.5 C 117.305,218.03 113.805,218.696 110,218.5C 107.31,218.497 104.81,218.164 102.5,217.5C 103.833,217.5 105.167,217.5 106.5,217.5C 111.203,217.563 115.87,217.229 120.5,216.5 Z"/></g>
<g><path style="opacity:0.049" fill="#161120" d="M 195.5,215.5 C 193.852,216.927 191.852,217.76 189.5,218C 184.648,218.815 179.981,218.648 175.5,217.5C 176.167,217.5 176.833,217.5 177.5,217.5C 183.616,217.732 189.616,217.066 195.5,215.5 Z"/></g>
<g><path style="opacity:0.059" fill="#16111f" d="M 366.5,216.5 C 362.609,218.007 358.442,218.674 354,218.5C 350.979,218.498 348.146,218.164 345.5,217.5C 352.529,217.623 359.529,217.29 366.5,216.5 Z"/></g>
<g><path style="opacity:0.847" fill="#33105a" d="M 643.5,212.5 C 643.665,215.85 643.498,219.183 643,222.5C 642.768,223.737 642.268,224.737 641.5,225.5C 641.624,220.951 642.291,216.618 643.5,212.5 Z"/></g>
<g><path style="opacity:0.459" fill="#271645" d="M 408.5,220.5 C 407.92,222.749 406.587,224.415 404.5,225.5C 405.08,223.251 406.413,221.585 408.5,220.5 Z"/></g>
<g><path style="opacity:0.118" fill="#1d132e" d="M 427.5,222.5 C 427.573,224.027 426.906,225.027 425.5,225.5C 425.427,223.973 426.094,222.973 427.5,222.5 Z"/></g>
<g><path style="opacity:0.027" fill="#1d122d" d="M 425.5,225.5 C 425.573,227.027 424.906,228.027 423.5,228.5C 423.427,226.973 424.094,225.973 425.5,225.5 Z"/></g>
<g><path style="opacity:1" fill="#5e1cc4" d="M 427.5,222.5 C 426.094,222.973 425.427,223.973 425.5,225.5C 424.094,225.973 423.427,226.973 423.5,228.5C 423.5,229.167 423.167,229.5 422.5,229.5C 421.094,229.973 420.427,230.973 420.5,232.5C 420.167,233.5 419.5,234.167 418.5,234.5C 416.164,233.538 414.83,234.538 414.5,237.5C 413.102,239.533 411.102,240.533 408.5,240.5C 406.443,240.564 404.777,239.898 403.5,238.5C 402.598,236.659 401.264,235.326 399.5,234.5C 399.366,232.708 399.699,231.042 400.5,229.5C 401.5,227.833 402.833,226.5 404.5,225.5C 406.587,224.415 407.92,222.749 408.5,220.5C 414.775,219.582 421.108,219.249 427.5,219.5C 427.5,220.5 427.5,221.5 427.5,222.5 Z"/></g>
<g><path style="opacity:0.698" fill="#2a1048" d="M 641.5,225.5 C 641.829,228.228 641.163,230.562 639.5,232.5C 639.721,229.933 640.388,227.599 641.5,225.5 Z"/></g>
<g><path style="opacity:0.02" fill="#201331" d="M 422.5,229.5 C 422.573,231.027 421.906,232.027 420.5,232.5C 420.427,230.973 421.094,229.973 422.5,229.5 Z"/></g>
<g><path style="opacity:0.498" fill="#271343" d="M 400.5,229.5 C 399.699,231.042 399.366,232.708 399.5,234.5C 398.861,233.903 398.528,233.07 398.5,232C 398.684,230.624 399.351,229.791 400.5,229.5 Z"/></g>
<g><path style="opacity:1" fill="#43187b" d="M 418.5,234.5 C 417.738,236.262 416.404,237.262 414.5,237.5C 414.83,234.538 416.164,233.538 418.5,234.5 Z"/></g>
<g><path style="opacity:0.588" fill="#341459" d="M 399.5,234.5 C 401.264,235.326 402.598,236.659 403.5,238.5C 401.29,238.106 399.957,236.773 399.5,234.5 Z"/></g>
<g><path style="opacity:0.808" fill="#311154" d="M 646.5,240.5 C 645.405,245.784 643.739,250.784 641.5,255.5C 642.209,250.041 643.875,245.041 646.5,240.5 Z"/></g>
<g><path style="opacity:0.698" fill="#35115e" d="M 638.5,238.5 C 638.741,240.898 638.074,242.898 636.5,244.5C 636.259,242.102 636.926,240.102 638.5,238.5 Z"/></g>
<g><path style="opacity:0.282" fill="#24113a" d="M 292.5,246.5 C 292.917,245.876 293.584,245.543 294.5,245.5C 295.713,245.747 296.38,246.414 296.5,247.5C 295.292,246.766 293.959,246.433 292.5,246.5 Z"/></g>
<g><path style="opacity:1" fill="#381460" d="M 292.5,246.5 C 291.517,247.85 290.184,248.85 288.5,249.5C 289.246,250.736 289.579,252.07 289.5,253.5C 286.336,249.488 287.336,247.155 292.5,246.5 Z"/></g>
<g><path style="opacity:1" fill="#3e1371" d="M 636.5,244.5 C 636.741,246.898 636.074,248.898 634.5,250.5C 634.259,248.102 634.926,246.102 636.5,244.5 Z"/></g>
<g><path style="opacity:0.71" fill="#301351" d="M 296.5,247.5 C 297.537,248.93 298.204,250.597 298.5,252.5C 296.787,251.365 296.12,249.698 296.5,247.5 Z"/></g>
<g><path style="opacity:0.314" fill="#271140" d="M 289.5,253.5 C 290.931,254.78 291.598,256.447 291.5,258.5C 290.069,257.22 289.402,255.553 289.5,253.5 Z"/></g>
<g><path style="opacity:0.902" fill="#381360" d="M 298.5,253.5 C 300.065,255.509 301.065,257.843 301.5,260.5C 299.166,258.824 298.166,256.491 298.5,253.5 Z"/></g>
<g><path style="opacity:0.204" fill="#231236" d="M 303.5,265.5 C 304.906,265.973 305.573,266.973 305.5,268.5C 304.094,268.027 303.427,267.027 303.5,265.5 Z"/></g>
<g><path style="opacity:0.294" fill="#2a1244" d="M 291.5,258.5 C 294.018,262.877 296.018,267.544 297.5,272.5C 294.432,268.356 292.432,263.689 291.5,258.5 Z"/></g>
<g><path style="opacity:0.4" fill="#2e134b" d="M 308.5,275.5 C 309.906,275.973 310.573,276.973 310.5,278.5C 309.094,278.027 308.427,277.027 308.5,275.5 Z"/></g>
<g><path style="opacity:0.349" fill="#290f44" d="M 622.5,276.5 C 622.573,278.027 621.906,279.027 620.5,279.5C 620.427,277.973 621.094,276.973 622.5,276.5 Z"/></g>
<g><path style="opacity:1" fill="#3f1471" d="M 630.5,279.5 C 629.737,281.368 628.737,283.035 627.5,284.5C 627.5,282.833 627.5,281.167 627.5,279.5C 628.5,279.5 629.5,279.5 630.5,279.5 Z"/></g>
<g><path style="opacity:0.42" fill="#2f144c" d="M 311.5,280.5 C 312.906,280.973 313.573,281.973 313.5,283.5C 312.094,283.027 311.427,282.027 311.5,280.5 Z"/></g>
<g><path style="opacity:0.365" fill="#2b104a" d="M 619.5,281.5 C 619.573,283.027 618.906,284.027 617.5,284.5C 617.427,282.973 618.094,281.973 619.5,281.5 Z"/></g>
<g><path style="opacity:0.275" fill="#251338" d="M 313.5,283.5 C 314.906,283.973 315.573,284.973 315.5,286.5C 314.094,286.027 313.427,285.027 313.5,283.5 Z"/></g>
<g><path style="opacity:0.149" fill="#1c0f2a" d="M 627.5,284.5 C 627.573,286.027 626.906,287.027 625.5,287.5C 625.427,285.973 626.094,284.973 627.5,284.5 Z"/></g>
<g><path style="opacity:0.667" fill="#301451" d="M 316.5,288.5 C 317.906,288.973 318.573,289.973 318.5,291.5C 317.094,291.027 316.427,290.027 316.5,288.5 Z"/></g>
<g><path style="opacity:0.737" fill="#331356" d="M 318.5,291.5 C 320.262,292.262 321.262,293.596 321.5,295.5C 319.738,294.738 318.738,293.404 318.5,291.5 Z"/></g>
<g><path style="opacity:0.69" fill="#321454" d="M 321.5,295.5 C 322.906,295.973 323.573,296.973 323.5,298.5C 322.094,298.027 321.427,297.027 321.5,295.5 Z"/></g>
<g><path style="opacity:0.773" fill="#311450" d="M 323.5,298.5 C 325.587,299.585 326.92,301.251 327.5,303.5C 325.413,302.415 324.08,300.749 323.5,298.5 Z"/></g>
<g><path style="opacity:0.494" fill="#311156" d="M 608.5,297.5 C 608.573,299.027 607.906,300.027 606.5,300.5C 606.427,298.973 607.094,297.973 608.5,297.5 Z"/></g>
<g><path style="opacity:0.549" fill="#2e1150" d="M 604.5,302.5 C 603.92,304.749 602.587,306.415 600.5,307.5C 601.08,305.251 602.413,303.585 604.5,302.5 Z"/></g>
<g><path style="opacity:0.796" fill="#31154e" d="M 331.5,307.5 C 333.914,308.911 335.581,310.911 336.5,313.5C 334.086,312.089 332.419,310.089 331.5,307.5 Z"/></g>
<g><path style="opacity:0.502" fill="#29153f" d="M 338.5,314.5 C 340.833,316.167 342.833,318.167 344.5,320.5C 341.5,319.5 339.5,317.5 338.5,314.5 Z"/></g>
<g><path style="opacity:0.004" fill="#1c1027" d="M 604.5,315.5 C 604.573,317.027 603.906,318.027 602.5,318.5C 602.427,316.973 603.094,315.973 604.5,315.5 Z"/></g>
<g><path style="opacity:0.898" fill="#44147a" d="M 596.5,311.5 C 593.167,316.833 588.833,321.167 583.5,324.5C 587.5,319.833 591.833,315.5 596.5,311.5 Z"/></g>
<g><path style="opacity:0.682" fill="#2f154b" d="M 331.5,320.5 C 333.749,321.08 335.415,322.413 336.5,324.5C 334.251,323.92 332.585,322.587 331.5,320.5 Z"/></g>
<g><path style="opacity:0.004" fill="#1e102b" d="M 599.5,320.5 C 599.5,321.833 598.833,322.5 597.5,322.5C 597.833,321.5 598.5,320.833 599.5,320.5 Z"/></g>
<g><path style="opacity:0.925" fill="#3e1271" d="M 583.5,324.5 C 582.415,326.587 580.749,327.92 578.5,328.5C 579.585,326.413 581.251,325.08 583.5,324.5 Z"/></g>
<g><path style="opacity:1" fill="#4a1685" d="M 348.5,324.5 C 352.146,326.817 355.48,329.484 358.5,332.5C 352.716,331.992 349.382,329.326 348.5,324.5 Z"/></g>
<g><path style="opacity:0.827" fill="#36145b" d="M 342.5,330.5 C 344.749,331.08 346.415,332.413 347.5,334.5C 345.251,333.92 343.585,332.587 342.5,330.5 Z"/></g>
<g><path style="opacity:0.925" fill="#3e1271" d="M 578.5,328.5 C 577.415,330.587 575.749,331.92 573.5,332.5C 574.585,330.413 576.251,329.08 578.5,328.5 Z"/></g>
<g><path style="opacity:0.682" fill="#311154" d="M 573.5,332.5 C 573.027,333.906 572.027,334.573 570.5,334.5C 570.973,333.094 571.973,332.427 573.5,332.5 Z"/></g>
<g><path style="opacity:0.812" fill="#37155d" d="M 347.5,334.5 C 349.404,334.738 350.738,335.738 351.5,337.5C 349.596,337.262 348.262,336.262 347.5,334.5 Z"/></g>
<g><path style="opacity:0.671" fill="#2f1151" d="M 570.5,334.5 C 570.027,335.906 569.027,336.573 567.5,336.5C 567.973,335.094 568.973,334.427 570.5,334.5 Z"/></g>
<g><path style="opacity:0.016" fill="#1b1024" d="M 584.5,334.5 C 584.027,335.906 583.027,336.573 581.5,336.5C 581.973,335.094 582.973,334.427 584.5,334.5 Z"/></g>
<g><path style="opacity:0.922" fill="#3b1566" d="M 351.5,337.5 C 353.749,338.08 355.415,339.413 356.5,341.5C 354.251,340.92 352.585,339.587 351.5,337.5 Z"/></g>
<g><path style="opacity:0.69" fill="#301251" d="M 567.5,336.5 C 567.027,337.906 566.027,338.573 564.5,338.5C 564.973,337.094 565.973,336.427 567.5,336.5 Z"/></g>
<g><path style="opacity:0.871" fill="#37165b" d="M 367.5,338.5 C 369.23,339.026 370.564,340.026 371.5,341.5C 369.368,341.446 368.035,340.446 367.5,338.5 Z"/></g>
<g><path style="opacity:0.792" fill="#321552" d="M 372.5,341.5 C 374.23,342.026 375.564,343.026 376.5,344.5C 374.368,344.446 373.035,343.446 372.5,341.5 Z"/></g>
<g><path style="opacity:0.71" fill="#321258" d="M 556.5,343.5 C 556.027,344.906 555.027,345.573 553.5,345.5C 553.973,344.094 554.973,343.427 556.5,343.5 Z"/></g>
<g><path style="opacity:0.361" fill="#2d1447" d="M 360.5,344.5 C 362.027,344.427 363.027,345.094 363.5,346.5C 361.973,346.573 360.973,345.906 360.5,344.5 Z"/></g>
<g><path style="opacity:0.569" fill="#2a1146" d="M 552.5,345.5 C 552.027,346.906 551.027,347.573 549.5,347.5C 549.973,346.094 550.973,345.427 552.5,345.5 Z"/></g>
<g><path style="opacity:0.431" fill="#311451" d="M 365.5,347.5 C 367.027,347.427 368.027,348.094 368.5,349.5C 366.973,349.573 365.973,348.906 365.5,347.5 Z"/></g>
<g><path style="opacity:0.953" fill="#411376" d="M 545.5,349.5 C 542.574,352.458 538.907,354.125 534.5,354.5C 537.836,352.269 541.503,350.603 545.5,349.5 Z"/></g>
<g><path style="opacity:0.031" fill="#1c1029" d="M 557.5,352.5 C 557.027,353.906 556.027,354.573 554.5,354.5C 554.973,353.094 555.973,352.427 557.5,352.5 Z"/></g>
<g><path style="opacity:1" fill="#481681" d="M 392.5,352.5 C 395.157,352.935 397.491,353.935 399.5,355.5C 397.167,355.5 394.833,355.5 392.5,355.5C 392.5,354.5 392.5,353.5 392.5,352.5 Z"/></g>
<g><path style="opacity:0.871" fill="#3b1366" d="M 534.5,354.5 C 528.365,357.991 521.698,360.325 514.5,361.5C 520.941,358.796 527.608,356.463 534.5,354.5 Z"/></g>
<g><path style="opacity:0.616" fill="#2f1250" d="M 514.5,361.5 C 512.095,362.768 509.428,363.435 506.5,363.5C 508.838,361.96 511.505,361.294 514.5,361.5 Z"/></g>
<g><path style="opacity:0.294" fill="#2f1251" d="M 419.5,361.5 C 448.328,368.724 477.328,369.39 506.5,363.5C 501.801,365.423 496.801,366.59 491.5,367C 470.052,369.501 448.719,368.835 427.5,365C 424.524,364.295 421.858,363.129 419.5,361.5 Z"/></g>
<g><path style="opacity:0.569" fill="#321355" d="M 407.5,367.5 C 410.152,367.41 412.485,368.076 414.5,369.5C 411.848,369.59 409.515,368.924 407.5,367.5 Z"/></g>
<g><path style="opacity:0.349" fill="#27113e" d="M 514.5,370.5 C 508.13,372.754 501.464,374.087 494.5,374.5C 500.862,372.248 507.529,370.915 514.5,370.5 Z"/></g>
<g><path style="opacity:0.412" fill="#2a1243" d="M 418.5,370.5 C 421.152,370.41 423.485,371.076 425.5,372.5C 422.848,372.59 420.515,371.924 418.5,370.5 Z"/></g>
<g><path style="opacity:0.906" fill="#341458" d="M 425.5,372.5 C 431.845,372.224 437.845,373.224 443.5,375.5C 437.263,375.142 431.263,374.142 425.5,372.5 Z"/></g>
<g><path style="opacity:0.046" fill="#211231" d="M 444.5,375.5 C 458.833,375.5 473.167,375.5 487.5,375.5C 473.161,378.02 458.828,378.02 444.5,375.5 Z"/></g>
</svg>
