<?xml version="1.0" encoding="UTF-8"?>
<!DOCTYPE svg PUBLIC "-//W3C//DTD SVG 1.1//EN" "http://www.w3.org/Graphics/SVG/1.1/DTD/svg11.dtd">
<svg xmlns="http://www.w3.org/2000/svg" version="1.1" width="660px" height="378px" style="shape-rendering:geometricPrecision; text-rendering:geometricPrecision; image-rendering:optimizeQuality; fill-rule:evenodd; clip-rule:evenodd" xmlns:xlink="http://www.w3.org/1999/xlink">
<g><path style="opacity:0.184" fill="#f9e3fd" d="M 460.5,1.5 C 469.527,0.453505 478.527,0.786838 487.5,2.5C 478.494,2.29956 469.494,1.96623 460.5,1.5 Z"/></g>
<g><path style="opacity:1" fill="#e479f5" d="M 460.5,1.5 C 469.494,1.96623 478.494,2.29956 487.5,2.5C 496.716,4.154 506.049,5.82067 515.5,7.5C 517.292,7.36596 518.958,7.69929 520.5,8.5C 521.635,10.2132 523.302,10.8799 525.5,10.5C 526.99,12.2798 528.99,12.9465 531.5,12.5C 539.575,15.0407 547.241,18.3741 554.5,22.5C 556.336,24.588 558.669,25.9213 561.5,26.5C 563.153,26.6596 564.486,27.3263 565.5,28.5C 566.035,30.4456 567.368,31.4456 569.5,31.5C 570.492,31.3284 571.158,31.6618 571.5,32.5C 572.035,34.4456 573.368,35.4456 575.5,35.5C 578.563,37.0252 581.23,39.0252 583.5,41.5C 584.262,43.2624 585.596,44.2624 587.5,44.5C 588.5,44.8333 589.167,45.5 589.5,46.5C 589.973,47.9063 590.973,48.573 592.5,48.5C 595.833,51.5 599.167,54.5 602.5,57.5C 602.738,59.4044 603.738,60.7377 605.5,61.5C 606.5,61.8333 607.167,62.5 607.5,63.5C 608.419,66.0892 610.086,68.0892 612.5,69.5C 613.5,69.8333 614.167,70.5 614.5,71.5C 614.427,73.0269 615.094,74.0269 616.5,74.5C 616.427,76.0269 617.094,77.0269 618.5,77.5C 618.738,79.4044 619.738,80.7377 621.5,81.5C 621.738,83.4044 622.738,84.7377 624.5,85.5C 625.338,85.8417 625.672,86.5084 625.5,87.5C 625.427,89.0269 626.094,90.0269 627.5,90.5C 628.338,90.8417 628.672,91.5084 628.5,92.5C 628.427,94.0269 629.094,95.0269 630.5,95.5C 631.338,95.8417 631.672,96.5084 631.5,97.5C 631.427,99.0269 632.094,100.027 633.5,100.5C 637.017,106.872 640.017,113.538 642.5,120.5C 642.166,123.491 643.166,125.824 645.5,127.5C 646.566,129.701 647.233,132.035 647.5,134.5C 647.41,137.152 648.076,139.485 649.5,141.5C 650.434,142.568 650.768,143.901 650.5,145.5C 650.171,148.228 650.837,150.562 652.5,152.5C 653.889,157.269 654.556,162.269 654.5,167.5C 655.707,190.742 654.04,213.742 649.5,236.5C 649.768,238.099 649.434,239.432 648.5,240.5C 646.72,241.99 646.054,243.99 646.5,246.5C 646.405,248.786 645.738,250.786 644.5,252.5C 643.069,253.78 642.402,255.447 642.5,257.5C 640.017,264.462 637.017,271.128 633.5,277.5C 632.094,277.973 631.427,278.973 631.5,280.5C 631.672,281.492 631.338,282.158 630.5,282.5C 629.094,282.973 628.427,283.973 628.5,285.5C 626.945,288.94 625.112,292.273 623,295.5C 619.68,300.647 615.847,305.314 611.5,309.5C 610.094,309.973 609.427,310.973 609.5,312.5C 604.167,318.5 598.5,324.167 592.5,329.5C 590.973,329.427 589.973,330.094 589.5,331.5C 583.423,337.238 576.756,342.238 569.5,346.5C 567.973,346.427 566.973,347.094 566.5,348.5C 564.973,348.427 563.973,349.094 563.5,350.5C 551.631,357.764 538.964,363.431 525.5,367.5C 523.302,367.12 521.635,367.787 520.5,369.5C 518.958,370.301 517.292,370.634 515.5,370.5C 510.808,370.425 506.474,371.425 502.5,373.5C 497.614,374.721 492.614,375.388 487.5,375.5C 478.498,375.786 469.498,376.119 460.5,376.5C 451.549,376.779 442.883,375.779 434.5,373.5C 430.079,371.898 425.412,370.898 420.5,370.5C 416.509,368.394 412.176,367.061 407.5,366.5C 407.167,366.5 406.833,366.5 406.5,366.5C 405.365,364.787 403.698,364.12 401.5,364.5C 392.332,361.451 383.665,357.451 375.5,352.5C 375.027,351.094 374.027,350.427 372.5,350.5C 371.508,350.672 370.842,350.338 370.5,349.5C 370.027,348.094 369.027,347.427 367.5,347.5C 367.027,346.094 366.027,345.427 364.5,345.5C 363.508,345.672 362.842,345.338 362.5,344.5C 361.738,342.738 360.404,341.738 358.5,341.5C 357.415,339.413 355.749,338.08 353.5,337.5C 352.415,335.413 350.749,334.08 348.5,333.5C 347.738,331.738 346.404,330.738 344.5,330.5C 341.5,328.167 338.833,325.5 336.5,322.5C 335.415,320.413 333.749,319.08 331.5,318.5C 329.196,315.859 326.862,313.192 324.5,310.5C 323.864,308.205 322.531,306.539 320.5,305.5C 320.446,303.368 319.446,302.035 317.5,301.5C 317.446,299.368 316.446,298.035 314.5,297.5C 309.083,290.341 304.417,282.675 300.5,274.5C 297.742,267.327 294.742,260.327 291.5,253.5C 290.948,251.669 290.948,250.003 291.5,248.5C 293.83,247.029 296.164,246.696 298.5,247.5C 298.5,247.833 298.5,248.167 298.5,248.5C 298.166,251.491 299.166,253.824 301.5,255.5C 301.12,257.698 301.787,259.365 303.5,260.5C 303.157,262.483 303.824,263.817 305.5,264.5C 308.18,269.86 310.847,275.193 313.5,280.5C 313.427,282.027 314.094,283.027 315.5,283.5C 316.338,283.842 316.672,284.508 316.5,285.5C 316.427,287.027 317.094,288.027 318.5,288.5C 318.427,290.027 319.094,291.027 320.5,291.5C 320.738,293.404 321.738,294.738 323.5,295.5C 323.427,297.027 324.094,298.027 325.5,298.5C 326.08,300.749 327.413,302.415 329.5,303.5C 331.167,304.5 332.5,305.833 333.5,307.5C 334.08,309.749 335.413,311.415 337.5,312.5C 339.167,313.833 340.833,315.167 342.5,316.5C 343.167,319.167 344.833,320.833 347.5,321.5C 349.167,322.5 350.5,323.833 351.5,325.5C 351.973,326.906 352.973,327.573 354.5,327.5C 359.36,331.423 364.36,335.09 369.5,338.5C 370.035,340.446 371.368,341.446 373.5,341.5C 375.153,341.66 376.486,342.326 377.5,343.5C 378.3,345.741 379.966,346.741 382.5,346.5C 391.669,351.09 401.003,355.09 410.5,358.5C 412.102,360.074 414.102,360.741 416.5,360.5C 425.367,364.142 434.701,366.142 444.5,366.5C 444.833,366.5 445.167,366.5 445.5,366.5C 445.918,367.222 446.584,367.722 447.5,368C 459.833,368.667 472.167,368.667 484.5,368C 486.708,367.809 488.708,367.309 490.5,366.5C 505.954,365.053 520.954,361.553 535.5,356C 536.056,355.617 536.389,355.117 536.5,354.5C 541.311,351.93 546.311,349.597 551.5,347.5C 553.848,347.408 555.514,346.408 556.5,344.5C 558.663,342.917 560.996,341.584 563.5,340.5C 565.027,340.573 566.027,339.906 566.5,338.5C 568.205,336.808 570.205,335.475 572.5,334.5C 574.027,334.573 575.027,333.906 575.5,332.5C 577.749,331.92 579.415,330.587 580.5,328.5C 583.089,327.581 585.089,325.914 586.5,323.5C 587.833,321.5 589.5,319.833 591.5,318.5C 594.833,317.167 597.167,314.833 598.5,311.5C 599.5,309.833 600.833,308.5 602.5,307.5C 604.587,306.415 605.92,304.749 606.5,302.5C 609.603,297.948 612.936,293.614 616.5,289.5C 617.906,289.027 618.573,288.027 618.5,286.5C 618.328,285.508 618.662,284.842 619.5,284.5C 620.906,284.027 621.573,283.027 621.5,281.5C 621.328,280.508 621.662,279.842 622.5,279.5C 626.216,277.72 627.882,274.72 627.5,270.5C 631.91,260.919 635.91,251.252 639.5,241.5C 641.749,236.503 643.083,231.17 643.5,225.5C 645.177,221.455 645.844,217.122 645.5,212.5C 645.5,212.167 645.5,211.833 645.5,211.5C 646.302,210.048 646.802,208.382 647,206.5C 648.079,189.42 647.412,172.42 645,155.5C 644.428,151.837 643.262,148.503 641.5,145.5C 637.962,132.422 633.295,119.756 627.5,107.5C 627.416,104.318 626.083,101.985 623.5,100.5C 620.597,96.3699 617.93,92.0366 615.5,87.5C 615.446,85.368 614.446,84.0347 612.5,83.5C 607.633,74.9614 601.299,67.6281 593.5,61.5C 593.167,61.5 592.833,61.5 592.5,61.5C 590.167,58.8333 587.833,56.1667 585.5,53.5C 584.415,51.4131 582.749,50.0798 580.5,49.5C 579.415,47.4131 577.749,46.0798 575.5,45.5C 574.738,43.7376 573.404,42.7376 571.5,42.5C 569.566,41.8897 567.899,40.8897 566.5,39.5C 566.027,38.0937 565.027,37.427 563.5,37.5C 563.027,36.0937 562.027,35.427 560.5,35.5C 558.181,35.0075 556.181,34.0075 554.5,32.5C 554.027,31.0937 553.027,30.427 551.5,30.5C 544.577,27.304 537.577,24.304 530.5,21.5C 529.365,19.7868 527.698,19.1201 525.5,19.5C 525.167,19.5 524.833,19.5 524.5,19.5C 523.365,17.7868 521.698,17.1201 519.5,17.5C 519.167,17.5 518.833,17.5 518.5,17.5C 511.946,14.4459 504.946,12.7793 497.5,12.5C 494.721,12.7214 492.054,12.388 489.5,11.5C 463.243,7.05807 437.577,9.3914 412.5,18.5C 403.161,22.2865 393.828,26.2865 384.5,30.5C 382.62,30.2291 381.287,30.8958 380.5,32.5C 380.158,33.3382 379.492,33.6716 378.5,33.5C 376.973,33.427 375.973,34.0937 375.5,35.5C 358.045,46.6127 342.379,59.946 328.5,75.5C 327.094,75.9731 326.427,76.9731 326.5,78.5C 325.974,80.2303 324.974,81.5637 323.5,82.5C 322.094,82.9731 321.427,83.9731 321.5,85.5C 321.5,86.1667 321.167,86.5 320.5,86.5C 319.094,86.9731 318.427,87.9731 318.5,89.5C 314.749,96.6707 310.749,103.671 306.5,110.5C 302.747,116.73 299.747,123.396 297.5,130.5C 296.675,131.386 295.675,131.719 294.5,131.5C 290.415,131.601 289.082,129.934 290.5,126.5C 292.213,125.365 292.88,123.698 292.5,121.5C 294.897,118.691 296.23,115.358 296.5,111.5C 297.992,107.182 299.992,103.182 302.5,99.5C 303.906,99.0269 304.573,98.0269 304.5,96.5C 305.11,94.5659 306.11,92.8993 307.5,91.5C 308.906,91.0269 309.573,90.0269 309.5,88.5C 309.328,87.5084 309.662,86.8417 310.5,86.5C 311.906,86.0269 312.573,85.0269 312.5,83.5C 314.262,82.7377 315.262,81.4044 315.5,79.5C 317.262,78.7377 318.262,77.4044 318.5,75.5C 320.262,74.7377 321.262,73.4044 321.5,71.5C 324.243,69.7607 326.243,67.4274 327.5,64.5C 327.833,63.5 328.5,62.8333 329.5,62.5C 331.262,61.7377 332.262,60.4044 332.5,58.5C 336.1,56.5698 339.1,53.9031 341.5,50.5C 344.764,48.9059 347.431,46.5725 349.5,43.5C 351.404,43.2624 352.738,42.2624 353.5,40.5C 355.749,39.9202 357.415,38.5869 358.5,36.5C 360.404,36.2624 361.738,35.2624 362.5,33.5C 364.027,33.573 365.027,32.9063 365.5,31.5C 365.842,30.6618 366.508,30.3284 367.5,30.5C 369.027,30.573 370.027,29.9063 370.5,28.5C 371.899,27.1103 373.566,26.1103 375.5,25.5C 377.153,25.3404 378.486,24.6737 379.5,23.5C 382.515,21.3256 385.849,19.6589 389.5,18.5C 394.232,18.3732 398.232,16.7065 401.5,13.5C 404.716,13.6545 407.383,12.6545 409.5,10.5C 412.152,10.5905 414.485,9.92381 416.5,8.5C 418.905,7.2318 421.572,6.56513 424.5,6.5C 429.795,6.32225 434.795,5.32225 439.5,3.5C 446.27,1.92527 453.27,1.2586 460.5,1.5 Z"/></g>
<g><path style="opacity:0.82" fill="#f4c9fb" d="M 439.5,3.5 C 434.795,5.32225 429.795,6.32225 424.5,6.5C 429.184,4.54863 434.184,3.54863 439.5,3.5 Z"/></g>
<g><path style="opacity:0.184" fill="#f8dcfc" d="M 487.5,2.5 C 497.22,2.67411 506.553,4.34078 515.5,7.5C 506.049,5.82067 496.716,4.154 487.5,2.5 Z"/></g>
<g><path style="opacity:0.741" fill="#f4c8fb" d="M 416.5,8.5 C 414.485,9.92381 412.152,10.5905 409.5,10.5C 411.515,9.07619 413.848,8.40953 416.5,8.5 Z"/></g>
<g><path style="opacity:0.58" fill="#f4c9fb" d="M 520.5,8.5 C 522.403,8.79586 524.07,9.46253 525.5,10.5C 523.302,10.8799 521.635,10.2132 520.5,8.5 Z"/></g>
<g><path style="opacity:0.875" fill="#f0b3fa" d="M 525.5,10.5 C 527.786,10.595 529.786,11.2616 531.5,12.5C 528.99,12.9465 526.99,12.2798 525.5,10.5 Z"/></g>
<g><path style="opacity:0.867" fill="#f0b3f9" d="M 409.5,10.5 C 407.383,12.6545 404.716,13.6545 401.5,13.5C 403.936,12.129 406.603,11.129 409.5,10.5 Z"/></g>
<g><path style="opacity:0.173" fill="#f8dbfc" d="M 497.5,12.5 C 504.946,12.7793 511.946,14.4459 518.5,17.5C 511.349,15.961 504.349,14.2943 497.5,12.5 Z"/></g>
<g><path style="opacity:0.051" fill="#f6d4fc" d="M 489.5,11.5 C 463.378,9.01238 437.711,11.3457 412.5,18.5C 437.577,9.3914 463.243,7.05807 489.5,11.5 Z"/></g>
<g><path style="opacity:1" fill="#ec9df8" d="M 401.5,13.5 C 398.232,16.7065 394.232,18.3732 389.5,18.5C 393.203,16.3213 397.203,14.6546 401.5,13.5 Z"/></g>
<g><path style="opacity:0.851" fill="#f3c2fa" d="M 519.5,17.5 C 521.698,17.1201 523.365,17.7868 524.5,19.5C 522.597,19.2041 520.93,18.5375 519.5,17.5 Z"/></g>
<g><path style="opacity:0.894" fill="#f3bffa" d="M 525.5,19.5 C 527.698,19.1201 529.365,19.7868 530.5,21.5C 528.597,21.2041 526.93,20.5375 525.5,19.5 Z"/></g>
<g><path style="opacity:0.157" fill="#f9dffc" d="M 554.5,22.5 C 557.331,23.0787 559.664,24.412 561.5,26.5C 558.669,25.9213 556.336,24.588 554.5,22.5 Z"/></g>
<g><path style="opacity:0.561" fill="#f5cefc" d="M 379.5,23.5 C 378.486,24.6737 377.153,25.3404 375.5,25.5C 376.287,23.8958 377.62,23.2291 379.5,23.5 Z"/></g>
<g><path style="opacity:0.769" fill="#f3c2fa" d="M 370.5,28.5 C 370.027,29.9063 369.027,30.573 367.5,30.5C 367.973,29.0937 368.973,28.427 370.5,28.5 Z"/></g>
<g><path style="opacity:0.929" fill="#f2bdfa" d="M 565.5,28.5 C 567.23,29.0256 568.564,30.0256 569.5,31.5C 567.368,31.4456 566.035,30.4456 565.5,28.5 Z"/></g>
<g><path style="opacity:0.067" fill="#f7dbfc" d="M 384.5,30.5 C 383.486,31.6737 382.153,32.3404 380.5,32.5C 381.287,30.8958 382.62,30.2291 384.5,30.5 Z"/></g>
<g><path style="opacity:0.227" fill="#f7dbfc" d="M 551.5,30.5 C 553.027,30.427 554.027,31.0937 554.5,32.5C 552.973,32.573 551.973,31.9063 551.5,30.5 Z"/></g>
<g><path style="opacity:0.671" fill="#f4c9fb" d="M 365.5,31.5 C 365.027,32.9063 364.027,33.573 362.5,33.5C 362.973,32.0937 363.973,31.427 365.5,31.5 Z"/></g>
<g><path style="opacity:0.937" fill="#f3bffa" d="M 571.5,32.5 C 573.23,33.0256 574.564,34.0256 575.5,35.5C 573.368,35.4456 572.035,34.4456 571.5,32.5 Z"/></g>
<g><path style="opacity:0.757" fill="#f1bafa" d="M 362.5,33.5 C 361.738,35.2624 360.404,36.2624 358.5,36.5C 359.262,34.7376 360.596,33.7376 362.5,33.5 Z"/></g>
<g><path style="opacity:0.012" fill="#f9e2fc" d="M 378.5,33.5 C 378.027,34.9063 377.027,35.573 375.5,35.5C 375.973,34.0937 376.973,33.427 378.5,33.5 Z"/></g>
<g><path style="opacity:0.365" fill="#f6d1fb" d="M 560.5,35.5 C 562.027,35.427 563.027,36.0937 563.5,37.5C 561.973,37.573 560.973,36.9063 560.5,35.5 Z"/></g>
<g><path style="opacity:0.659" fill="#f2bbfa" d="M 358.5,36.5 C 357.415,38.5869 355.749,39.9202 353.5,40.5C 354.585,38.4131 356.251,37.0798 358.5,36.5 Z"/></g>
<g><path style="opacity:0.345" fill="#f7d3fc" d="M 563.5,37.5 C 565.027,37.427 566.027,38.0937 566.5,39.5C 564.973,39.573 563.973,38.9063 563.5,37.5 Z"/></g>
<g><path style="opacity:0.659" fill="#f2c0fb" d="M 353.5,40.5 C 352.738,42.2624 351.404,43.2624 349.5,43.5C 350.262,41.7376 351.596,40.7376 353.5,40.5 Z"/></g>
<g><path style="opacity:0.012" fill="#f9dffd" d="M 583.5,41.5 C 585.404,41.7376 586.738,42.7376 587.5,44.5C 585.596,44.2624 584.262,43.2624 583.5,41.5 Z"/></g>
<g><path style="opacity:0.678" fill="#f2bbfa" d="M 571.5,42.5 C 573.404,42.7376 574.738,43.7376 575.5,45.5C 573.596,45.2624 572.262,44.2624 571.5,42.5 Z"/></g>
<g><path style="opacity:0.831" fill="#f0b3fa" d="M 349.5,43.5 C 347.431,46.5725 344.764,48.9059 341.5,50.5C 343.569,47.4275 346.236,45.0941 349.5,43.5 Z"/></g>
<g><path style="opacity:0.039" fill="#f8dbfc" d="M 589.5,46.5 C 591.027,46.427 592.027,47.0937 592.5,48.5C 590.973,48.573 589.973,47.9063 589.5,46.5 Z"/></g>
<g><path style="opacity:0.443" fill="#f3c1fa" d="M 575.5,45.5 C 577.749,46.0798 579.415,47.4131 580.5,49.5C 578.251,48.9202 576.585,47.5869 575.5,45.5 Z"/></g>
<g><path style="opacity:0.427" fill="#f2c1fb" d="M 580.5,49.5 C 582.749,50.0798 584.415,51.4131 585.5,53.5C 583.251,52.9202 581.585,51.5869 580.5,49.5 Z"/></g>
<g><path style="opacity:0.765" fill="#f2befa" d="M 341.5,50.5 C 339.1,53.9031 336.1,56.5698 332.5,58.5C 334.9,55.0969 337.9,52.4302 341.5,50.5 Z"/></g>
<g><path style="opacity:0.612" fill="#f7d6fc" d="M 602.5,57.5 C 604.262,58.2623 605.262,59.5956 605.5,61.5C 603.738,60.7377 602.738,59.4044 602.5,57.5 Z"/></g>
<g><path style="opacity:0.729" fill="#f4c5fb" d="M 332.5,58.5 C 332.262,60.4044 331.262,61.7377 329.5,62.5C 329.738,60.5956 330.738,59.2623 332.5,58.5 Z"/></g>
<g><path style="opacity:0.873" fill="#f9e3fd" d="M 592.5,61.5 C 592.833,62.8333 593.167,62.8333 593.5,61.5C 601.299,67.6281 607.633,74.9614 612.5,83.5C 611.167,83.8333 611.167,84.1667 612.5,84.5C 611.222,102.485 601.556,110.651 583.5,109C 565.883,102.268 560.383,90.1009 567,72.5C 573.18,63.7099 581.68,60.0432 592.5,61.5 Z"/></g>
<g><path style="opacity:0.831" fill="#f5cdfb" d="M 607.5,63.5 C 609.914,64.9108 611.581,66.9108 612.5,69.5C 610.086,68.0892 608.419,66.0892 607.5,63.5 Z"/></g>
<g><path style="opacity:0.561" fill="#f3c2fa" d="M 327.5,64.5 C 326.243,67.4274 324.243,69.7607 321.5,71.5C 322.757,68.5726 324.757,66.2393 327.5,64.5 Z"/></g>
<g><path style="opacity:1" fill="#eb9ef9" d="M 582.5,68.5 C 592.033,66.8509 599.2,70.1843 604,78.5C 605.892,95.6093 598.392,102.776 581.5,100C 573.756,94.9125 570.922,87.7459 573,78.5C 575.696,74.6393 578.863,71.306 582.5,68.5 Z"/></g>
<g><path style="opacity:0.843" fill="#f1bafa" d="M 321.5,71.5 C 321.262,73.4044 320.262,74.7377 318.5,75.5C 318.738,73.5956 319.738,72.2623 321.5,71.5 Z"/></g>
<g><path style="opacity:0.447" fill="#f4cafa" d="M 614.5,71.5 C 615.906,71.9731 616.573,72.9731 616.5,74.5C 615.094,74.0269 614.427,73.0269 614.5,71.5 Z"/></g>
<g><path style="opacity:0.816" fill="#f3c1fb" d="M 318.5,75.5 C 318.262,77.4044 317.262,78.7377 315.5,79.5C 315.738,77.5956 316.738,76.2623 318.5,75.5 Z"/></g>
<g><path style="opacity:0.016" fill="#f7ddfc" d="M 328.5,75.5 C 328.573,77.0269 327.906,78.0269 326.5,78.5C 326.427,76.9731 327.094,75.9731 328.5,75.5 Z"/></g>
<g><path style="opacity:1" fill="#e16ef5" d="M 585.5,75.5 C 596.084,75.7417 599.417,80.7417 595.5,90.5C 584.416,96.3736 579.249,93.0402 580,80.5C 581.73,78.5981 583.563,76.9314 585.5,75.5 Z"/></g>
<g><path style="opacity:0.584" fill="#f3bffb" d="M 616.5,74.5 C 617.906,74.9731 618.573,75.9731 618.5,77.5C 617.094,77.0269 616.427,76.0269 616.5,74.5 Z"/></g>
<g><path style="opacity:0.714" fill="#f2bbfa" d="M 618.5,77.5 C 620.262,78.2623 621.262,79.5956 621.5,81.5C 619.738,80.7377 618.738,79.4044 618.5,77.5 Z"/></g>
<g><path style="opacity:0.537" fill="#f4c9fb" d="M 315.5,79.5 C 315.262,81.4044 314.262,82.7377 312.5,83.5C 312.738,81.5956 313.738,80.2623 315.5,79.5 Z"/></g>
<g><path style="opacity:0.004" fill="#f9e1fc" d="M 323.5,82.5 C 323.573,84.0269 322.906,85.0269 321.5,85.5C 321.427,83.9731 322.094,82.9731 323.5,82.5 Z"/></g>
<g><path style="opacity:0.918" fill="#f2bbfb" d="M 612.5,84.5 C 612.5,84.1667 612.5,83.8333 612.5,83.5C 614.446,84.0347 615.446,85.368 615.5,87.5C 614.272,86.6935 613.272,85.6935 612.5,84.5 Z"/></g>
<g><path style="opacity:0.576" fill="#f4cafa" d="M 621.5,81.5 C 623.262,82.2623 624.262,83.5956 624.5,85.5C 622.738,84.7377 621.738,83.4044 621.5,81.5 Z"/></g>
<g><path style="opacity:0.384" fill="#f5ccfb" d="M 312.5,83.5 C 312.573,85.0269 311.906,86.0269 310.5,86.5C 310.427,84.9731 311.094,83.9731 312.5,83.5 Z"/></g>
<g><path style="opacity:0.039" fill="#f8dafc" d="M 320.5,86.5 C 320.573,88.0269 319.906,89.0269 318.5,89.5C 318.427,87.9731 319.094,86.9731 320.5,86.5 Z"/></g>
<g><path style="opacity:0.337" fill="#f6d2fc" d="M 625.5,87.5 C 626.906,87.9731 627.573,88.9731 627.5,90.5C 626.094,90.0269 625.427,89.0269 625.5,87.5 Z"/></g>
<g><path style="opacity:0.459" fill="#f3c2fa" d="M 309.5,88.5 C 309.573,90.0269 308.906,91.0269 307.5,91.5C 307.427,89.9731 308.094,88.9731 309.5,88.5 Z"/></g>
<g><path style="opacity:0.306" fill="#f7d3fc" d="M 628.5,92.5 C 629.906,92.9731 630.573,93.9731 630.5,95.5C 629.094,95.0269 628.427,94.0269 628.5,92.5 Z"/></g>
<g><path style="opacity:0.42" fill="#f4cafb" d="M 304.5,96.5 C 304.573,98.0269 303.906,99.0269 302.5,99.5C 302.427,97.9731 303.094,96.9731 304.5,96.5 Z"/></g>
<g><path style="opacity:0.22" fill="#f7d9fc" d="M 631.5,97.5 C 632.906,97.9731 633.573,98.9731 633.5,100.5C 632.094,100.027 631.427,99.0269 631.5,97.5 Z"/></g>
<g><path style="opacity:0.89" fill="#f3c2fb" d="M 623.5,100.5 C 626.083,101.985 627.416,104.318 627.5,107.5C 625.929,105.365 624.596,103.032 623.5,100.5 Z"/></g>
<g><path style="opacity:0.137" fill="#f7d8fc" d="M 306.5,110.5 C 303.844,117.464 301.177,124.464 298.5,131.5C 297.042,132.782 295.708,132.782 294.5,131.5C 295.675,131.719 296.675,131.386 297.5,130.5C 299.747,123.396 302.747,116.73 306.5,110.5 Z"/></g>
<g><path style="opacity:0.863" fill="#f3c3fb" d="M 296.5,111.5 C 296.23,115.358 294.897,118.691 292.5,121.5C 293.267,117.851 294.6,114.518 296.5,111.5 Z"/></g>
<g><path style="opacity:0.718" fill="#f5cbfb" d="M 292.5,121.5 C 292.88,123.698 292.213,125.365 290.5,126.5C 290.796,124.597 291.463,122.93 292.5,121.5 Z"/></g>
<g><path style="opacity:0.812" fill="#f2bbfa" d="M 642.5,120.5 C 644.065,122.509 645.065,124.843 645.5,127.5C 643.166,125.824 642.166,123.491 642.5,120.5 Z"/></g>
<g><path style="opacity:0.518" fill="#f4c8fb" d="M 647.5,134.5 C 648.924,136.515 649.59,138.848 649.5,141.5C 648.076,139.485 647.41,137.152 647.5,134.5 Z"/></g>
<g><path style="opacity:1" fill="#61f2e8" d="M 52.5,143.5 C 52.8039,144.15 53.1373,144.817 53.5,145.5C 38.5111,146.666 23.5111,146.833 8.5,146C 6.84202,145.275 6.34202,144.108 7,142.5C 9.05808,141.771 10.8914,140.771 12.5,139.5C 24.5547,137.874 36.5547,138.374 48.5,141C 50.0664,141.608 51.3998,142.442 52.5,143.5 Z"/></g>
<g><path style="opacity:1" fill="#71f3ea" d="M 271.5,141.5 C 271.662,143.527 271.495,145.527 271,147.5C 251.243,146.507 231.409,146.174 211.5,146.5C 211.253,144.142 211.919,142.142 213.5,140.5C 232.329,139.338 251.329,139.171 270.5,140C 271.056,140.383 271.389,140.883 271.5,141.5 Z"/></g>
<g><path style="opacity:1" fill="#67e8e9" d="M 12.5,139.5 C 10.8914,140.771 9.05808,141.771 7,142.5C 6.34202,144.108 6.84202,145.275 8.5,146C 23.5111,146.833 38.5111,146.666 53.5,145.5C 53.1373,144.817 52.8039,144.15 52.5,143.5C 58.4396,145.773 62.773,149.773 65.5,155.5C 65.6495,156.552 65.4828,157.552 65,158.5C 59.5801,158.327 53.7468,158.327 47.5,158.5C 43.4852,155.722 39.1518,153.722 34.5,152.5C 30.0189,151.352 25.3522,151.185 20.5,152C 19.944,152.383 19.6107,152.883 19.5,153.5C 14.57,153.197 9.73669,153.531 5,154.5C 4.50137,150.848 4.3347,147.182 4.5,143.5C 6.41205,140.851 9.07872,139.518 12.5,139.5 Z"/></g>
<g><path style="opacity:1" fill="#6ae8e9" d="M 213.5,140.5 C 211.919,142.142 211.253,144.142 211.5,146.5C 231.409,146.174 251.243,146.507 271,147.5C 271.495,145.527 271.662,143.527 271.5,141.5C 272.638,144.304 272.805,147.304 272,150.5C 271.578,152.426 270.411,153.426 268.5,153.5C 262.167,153.5 255.833,153.5 249.5,153.5C 244.384,155.795 239.051,156.129 233.5,154.5C 226.352,153.508 219.019,153.175 211.5,153.5C 209.663,150.481 209.163,147.148 210,143.5C 210.422,141.574 211.589,140.574 213.5,140.5 Z"/></g>
<g><path style="opacity:0.365" fill="#f5cdfb" d="M 650.5,145.5 C 651.924,147.515 652.59,149.848 652.5,152.5C 650.837,150.562 650.171,148.228 650.5,145.5 Z"/></g>
<g><path style="opacity:0.481" fill="#bbf1f5" d="M 34.5,152.5 C 30.0983,152.228 25.7649,152.561 21.5,153.5C 20.5059,158.456 20.1725,163.456 20.5,168.5C 20.1667,168.5 19.8333,168.5 19.5,168.5C 19.5,165.833 19.5,163.167 19.5,160.5C 19.5,158.167 19.5,155.833 19.5,153.5C 19.6107,152.883 19.944,152.383 20.5,152C 25.3522,151.185 30.0189,151.352 34.5,152.5 Z"/></g>
<g><path style="opacity:0.152" fill="#e9fbfc" d="M 249.5,154.5 C 249.5,154.167 249.5,153.833 249.5,153.5C 255.833,153.5 262.167,153.5 268.5,153.5C 262.766,154.186 256.933,154.852 251,155.5C 250.617,154.944 250.117,154.611 249.5,154.5 Z"/></g>
<g><path style="opacity:0.999" fill="#7cdfeb" d="M 200.5,160.5 C 194.872,161.829 188.872,162.496 182.5,162.5C 176.089,162.481 169.756,162.148 163.5,161.5C 164.343,159.827 165.676,158.66 167.5,158C 177.051,153.842 186.718,153.509 196.5,157C 198.324,157.66 199.657,158.827 200.5,160.5 Z"/></g>
<g><path style="opacity:1" fill="#75dfeb" d="M 4.5,143.5 C 4.3347,147.182 4.50137,150.848 5,154.5C 9.73669,153.531 14.57,153.197 19.5,153.5C 19.5,155.833 19.5,158.167 19.5,160.5C 14.8215,160.334 10.1548,160.501 5.5,161C 4.61983,162.356 4.28649,163.856 4.5,165.5C 3.50984,159.355 3.1765,153.022 3.5,146.5C 3.26269,145.209 3.59603,144.209 4.5,143.5 Z"/></g>
<g><path style="opacity:1" fill="#74daea" d="M 65.5,155.5 C 66.6737,156.514 67.3404,157.847 67.5,159.5C 67.2865,161.144 67.6198,162.644 68.5,164C 62.2155,165.05 56.2155,164.55 50.5,162.5C 48.7376,161.738 47.7376,160.404 47.5,158.5C 53.7468,158.327 59.5801,158.327 65,158.5C 65.4828,157.552 65.6495,156.552 65.5,155.5 Z"/></g>
<g><path style="opacity:1" fill="#81dcec" d="M 411.5,165.5 C 405.833,166.833 400.167,166.833 394.5,165.5C 390.93,158.857 393.097,155.524 401,155.5C 407.55,155.549 411.05,158.882 411.5,165.5 Z"/></g>
<g><path style="opacity:1" fill="#71d8ea" d="M 249.5,153.5 C 249.5,153.833 249.5,154.167 249.5,154.5C 249.5,156.833 249.5,159.167 249.5,161.5C 248.549,162.919 248.216,164.585 248.5,166.5C 243.5,166.5 238.5,166.5 233.5,166.5C 233.5,162.5 233.5,158.5 233.5,154.5C 239.051,156.129 244.384,155.795 249.5,153.5 Z"/></g>
<g><path style="opacity:1" fill="#77d8eb" d="M 133.5,162.5 C 133.511,164.017 134.177,165.184 135.5,166C 127.827,166.402 120.16,166.902 112.5,167.5C 104.507,166.889 96.5073,166.389 88.5,166C 90.3734,164.296 92.0401,162.463 93.5,160.5C 94.7489,158.864 96.4156,157.697 98.5,157C 107.498,153.733 116.498,153.733 125.5,157C 128.621,158.306 131.287,160.14 133.5,162.5 Z"/></g>
<g><path style="opacity:1" fill="#7bdaeb" d="M 298.5,169.5 C 298.804,168.85 299.137,168.183 299.5,167.5C 293.279,166.815 287.112,166.148 281,165.5C 279.929,168.113 279.095,168.113 278.5,165.5C 278.859,163.629 279.859,162.129 281.5,161C 290.512,155.798 300.178,153.798 310.5,155C 318.673,157.848 320.173,162.681 315,169.5C 309.553,168.352 304.053,168.352 298.5,169.5 Z"/></g>
<g><path style="opacity:1" fill="#76daeb" d="M 342.5,159.5 C 342.5,160.5 342.5,161.5 342.5,162.5C 337.882,164.087 333.049,165.087 328,165.5C 327.502,162.518 327.335,159.518 327.5,156.5C 331.112,155.489 334.779,155.322 338.5,156C 340.544,156.498 341.878,157.665 342.5,159.5 Z"/></g>
<g><path style="opacity:1" fill="#78daeb" d="M 381.5,159.5 C 381.5,161.167 381.5,162.833 381.5,164.5C 376.5,164.5 371.5,164.5 366.5,164.5C 366.5,161.833 366.5,159.167 366.5,156.5C 370.078,155.411 373.745,155.245 377.5,156C 379.544,156.498 380.878,157.665 381.5,159.5 Z"/></g>
<g><path style="opacity:1" fill="#73d8ea" d="M 450.5,158.5 C 450.665,161.518 450.498,164.518 450,167.5C 444.917,166.693 439.75,166.193 434.5,166C 435.713,163.313 436.38,160.48 436.5,157.5C 438.3,155.95 440.467,154.95 443,154.5C 446.005,155.027 448.505,156.36 450.5,158.5 Z"/></g>
<g><path style="opacity:1" fill="#79d9eb" d="M 510.5,164.5 C 510.607,166.379 510.107,166.712 509,165.5C 503.229,166.343 497.395,167.01 491.5,167.5C 483.09,167.101 474.423,166.601 465.5,166C 466.823,165.184 467.489,164.017 467.5,162.5C 477.639,154.311 488.972,152.477 501.5,157C 505.275,158.611 508.275,161.111 510.5,164.5 Z"/></g>
<g><path style="opacity:1" fill="#76daeb" d="M 577.5,161.5 C 577.414,162.496 577.748,163.329 578.5,164C 562.5,164.667 546.5,164.667 530.5,164C 531.381,163.292 532.047,162.458 532.5,161.5C 534.649,159.254 537.316,157.754 540.5,157C 549.418,154.211 558.418,153.878 567.5,156C 571.346,157.086 574.68,158.919 577.5,161.5 Z"/></g>
<g><path style="opacity:1" fill="#7ed5eb" d="M 200.5,160.5 C 204.369,164.982 203.702,168.982 198.5,172.5C 193.35,169.145 187.683,167.812 181.5,168.5C 175.909,169.373 170.409,169.707 165,169.5C 162.37,169.141 160.203,168.141 158.5,166.5C 159.167,163.833 160.833,162.167 163.5,161.5C 169.756,162.148 176.089,162.481 182.5,162.5C 188.872,162.496 194.872,161.829 200.5,160.5 Z"/></g>
<g><path style="opacity:1" fill="#84d5ec" d="M 532.5,161.5 C 532.047,162.458 531.381,163.292 530.5,164C 546.5,164.667 562.5,164.667 578.5,164C 577.748,163.329 577.414,162.496 577.5,161.5C 581.358,164.888 583.358,169.222 583.5,174.5C 583.167,174.5 582.833,174.5 582.5,174.5C 582.245,171.984 581.411,169.65 580,167.5C 579,168.167 578,168.833 577,169.5C 573.755,168.685 570.588,168.352 567.5,168.5C 565.246,169.714 564.913,171.381 566.5,173.5C 564.968,171.479 562.968,169.979 560.5,169C 555.349,168.182 550.349,168.682 545.5,170.5C 544.228,169.566 542.728,168.899 541,168.5C 537.734,168.393 534.401,168.727 531,169.5C 529.731,168.095 529.231,166.429 529.5,164.5C 529.5,162.5 530.5,161.5 532.5,161.5 Z"/></g>
<g><path style="opacity:1" fill="#75d2ea" d="M 19.5,160.5 C 19.5,163.167 19.5,165.833 19.5,168.5C 14.7012,169.554 10.0346,169.387 5.5,168C 4.74756,167.329 4.41423,166.496 4.5,165.5C 4.28649,163.856 4.61983,162.356 5.5,161C 10.1548,160.501 14.8215,160.334 19.5,160.5 Z"/></g>
<g><path style="opacity:0.999" fill="#8fd4ee" d="M 93.5,160.5 C 92.0401,162.463 90.3734,164.296 88.5,166C 96.5073,166.389 104.507,166.889 112.5,167.5C 120.16,166.902 127.827,166.402 135.5,166C 134.177,165.184 133.511,164.017 133.5,162.5C 137.01,165.358 139.343,169.024 140.5,173.5C 139.883,173.389 139.383,173.056 139,172.5C 134.586,173.303 130.086,173.803 125.5,174C 124.748,174.671 124.414,175.504 124.5,176.5C 119.404,168.154 112.404,166.321 103.5,171C 102.303,173.015 100.97,174.849 99.5,176.5C 99.5,175.5 99.5,174.5 99.5,173.5C 93.9558,173.375 88.6225,173.375 83.5,173.5C 83.9531,169.973 85.4531,166.973 88,164.5C 89.451,162.536 91.2843,161.203 93.5,160.5 Z"/></g>
<g><path style="opacity:1" fill="#8dd3ed" d="M 67.5,159.5 C 69.328,162.135 70.4947,165.135 71,168.5C 71.8192,174.681 71.6525,180.681 70.5,186.5C 70.5,185.833 70.5,185.167 70.5,184.5C 70.8242,180.445 70.4909,176.445 69.5,172.5C 64.5649,173.448 59.5649,173.781 54.5,173.5C 54.5,176.5 54.5,179.5 54.5,182.5C 54.5,183.167 54.1667,183.5 53.5,183.5C 53.9814,176.251 52.9814,169.251 50.5,162.5C 56.2155,164.55 62.2155,165.05 68.5,164C 67.6198,162.644 67.2865,161.144 67.5,159.5 Z"/></g>
<g><path style="opacity:1" fill="#83cfec" d="M 394.5,165.5 C 400.167,166.833 405.833,166.833 411.5,165.5C 413.029,169.421 414.363,173.421 415.5,177.5C 413.896,176.713 413.229,175.38 413.5,173.5C 408.167,173.5 402.833,173.5 397.5,173.5C 397.204,171.597 396.537,169.93 395.5,168.5C 394.596,167.791 394.263,166.791 394.5,165.5 Z"/></g>
<g><path style="opacity:1" fill="#7ecbeb" d="M 249.5,161.5 C 249.5,165.167 249.5,168.833 249.5,172.5C 244.379,174.973 239.045,175.64 233.5,174.5C 233.5,171.833 233.5,169.167 233.5,166.5C 238.5,166.5 243.5,166.5 248.5,166.5C 248.216,164.585 248.549,162.919 249.5,161.5 Z"/></g>
<g><path style="opacity:1" fill="#93d0ee" d="M 158.5,166.5 C 160.203,168.141 162.37,169.141 165,169.5C 170.409,169.707 175.909,169.373 181.5,168.5C 171.503,172.82 167.503,180.486 169.5,191.5C 168.521,188.375 168.187,185.042 168.5,181.5C 168.244,179.208 168.577,177.041 169.5,175C 166.207,175.153 163.04,174.986 160,174.5C 154.777,174.592 152.61,177.259 153.5,182.5C 153.5,184.833 153.5,187.167 153.5,189.5C 152.523,186.713 152.19,183.713 152.5,180.5C 152.777,174.976 154.777,170.31 158.5,166.5 Z"/></g>
<g><path style="opacity:1" fill="#85ccec" d="M 278.5,165.5 C 279.095,168.113 279.929,168.113 281,165.5C 287.112,166.148 293.279,166.815 299.5,167.5C 299.137,168.183 298.804,168.85 298.5,169.5C 294.352,169.834 292.685,172.167 293.5,176.5C 292.107,175.74 290.607,175.074 289,174.5C 285.653,174.877 282.153,174.877 278.5,174.5C 278.5,177.833 278.5,181.167 278.5,184.5C 277.514,180.03 277.181,175.363 277.5,170.5C 277.216,168.585 277.549,166.919 278.5,165.5 Z"/></g>
<g><path style="opacity:1" fill="#92d3ee" d="M 327.5,156.5 C 327.335,159.518 327.502,162.518 328,165.5C 333.049,165.087 337.882,164.087 342.5,162.5C 342.5,165.5 342.5,168.5 342.5,171.5C 337.882,173.087 333.049,174.087 328,174.5C 327.501,179.155 327.334,183.821 327.5,188.5C 327.5,191.167 327.5,193.833 327.5,196.5C 326.167,183.167 326.167,169.833 327.5,156.5 Z"/></g>
<g><path style="opacity:1" fill="#7bcceb" d="M 366.5,164.5 C 371.5,164.5 376.5,164.5 381.5,164.5C 381.5,167.167 381.5,169.833 381.5,172.5C 376.382,173.412 371.382,173.745 366.5,173.5C 366.5,170.5 366.5,167.5 366.5,164.5 Z"/></g>
<g><path style="opacity:0.999" fill="#8ad1ed" d="M 436.5,157.5 C 436.38,160.48 435.713,163.313 434.5,166C 439.75,166.193 444.917,166.693 450,167.5C 450.498,164.518 450.665,161.518 450.5,158.5C 451.826,163.579 451.493,168.579 449.5,173.5C 443.833,173.5 438.167,173.5 432.5,173.5C 432.961,167.836 434.294,162.503 436.5,157.5 Z"/></g>
<g><path style="opacity:1" fill="#8ad0ed" d="M 467.5,162.5 C 467.489,164.017 466.823,165.184 465.5,166C 474.423,166.601 483.09,167.101 491.5,167.5C 482.938,166.935 477.272,170.601 474.5,178.5C 474.5,177.167 474.5,175.833 474.5,174.5C 470.312,175.113 465.979,175.113 461.5,174.5C 461.5,173.5 461.5,172.5 461.5,171.5C 462.723,167.951 464.723,164.951 467.5,162.5 Z"/></g>
<g><path style="opacity:1" fill="#84ceec" d="M 510.5,164.5 C 512.588,166.336 513.921,168.669 514.5,171.5C 509.944,173.442 504.944,174.108 499.5,173.5C 498.163,172.685 497.163,171.518 496.5,170C 494.685,169.243 493.019,168.41 491.5,167.5C 497.395,167.01 503.229,166.343 509,165.5C 510.107,166.712 510.607,166.379 510.5,164.5 Z"/></g>
<g><path style="opacity:0.016" fill="#daedf9" d="M 395.5,168.5 C 396.537,169.93 397.204,171.597 397.5,173.5C 398.899,176.699 399.899,180.032 400.5,183.5C 397.86,178.915 396.194,173.915 395.5,168.5 Z"/></g>
<g><path style="opacity:0.516" fill="#cdedf7" d="M 211.5,153.5 C 219.019,153.175 226.352,153.508 233.5,154.5C 233.5,158.5 233.5,162.5 233.5,166.5C 233.5,169.167 233.5,171.833 233.5,174.5C 233.5,175.833 233.5,177.167 233.5,178.5C 233.167,178.5 232.833,178.5 232.5,178.5C 232.698,170.466 232.365,162.466 231.5,154.5C 224.646,154.824 217.979,154.491 211.5,153.5 Z"/></g>
<g><path style="opacity:1" fill="#a4d3f0" d="M 3.5,146.5 C 3.1765,153.022 3.50984,159.355 4.5,165.5C 4.41423,166.496 4.74756,167.329 5.5,168C 10.0346,169.387 14.7012,169.554 19.5,168.5C 19.5,171.5 19.5,174.5 19.5,177.5C 15.696,178.218 11.5294,178.551 7,178.5C 6.33333,177.833 5.66667,177.167 5,176.5C 4.50115,180.486 4.33449,184.486 4.5,188.5C 3.5399,195.078 3.20656,201.745 3.5,208.5C 2.16667,187.833 2.16667,167.167 3.5,146.5 Z"/></g>
<g><path style="opacity:1" fill="#9dceef" d="M 529.5,164.5 C 529.231,166.429 529.731,168.095 531,169.5C 534.401,168.727 537.734,168.393 541,168.5C 542.728,168.899 544.228,169.566 545.5,170.5C 544.538,177.412 544.205,184.412 544.5,191.5C 543.566,190.432 543.232,189.099 543.5,187.5C 543.666,183.486 543.499,179.486 543,175.5C 542.581,176.672 541.915,177.672 541,178.5C 537.114,178.271 533.281,178.271 529.5,178.5C 528.574,182.094 528.241,185.76 528.5,189.5C 528.5,191.833 528.5,194.167 528.5,196.5C 528.5,201.833 528.5,207.167 528.5,212.5C 527.339,197.339 527.172,182.006 528,166.5C 528.278,165.584 528.778,164.918 529.5,164.5 Z"/></g>
<g><path style="opacity:1" fill="#96cdee" d="M 582.5,174.5 C 582.688,176.103 582.188,177.437 581,178.5C 577.436,177.762 574.103,177.762 571,178.5C 570,177.833 569,177.167 568,176.5C 567.501,180.486 567.334,184.486 567.5,188.5C 567.5,191.833 567.5,195.167 567.5,198.5C 567.5,203.167 567.5,207.833 567.5,212.5C 566.505,199.677 566.171,186.677 566.5,173.5C 564.913,171.381 565.246,169.714 567.5,168.5C 570.588,168.352 573.755,168.685 577,169.5C 578,168.833 579,168.167 580,167.5C 581.411,169.65 582.245,171.984 582.5,174.5 Z"/></g>
<g><path style="opacity:0.998" fill="#99c9ef" d="M 99.5,176.5 C 98.7081,182.13 98.3748,187.797 98.5,193.5C 97.6753,189.353 97.1753,185.019 97,180.5C 92.4335,182.09 87.6002,183.09 82.5,183.5C 81.6906,185.071 81.3573,186.738 81.5,188.5C 80.8614,187.903 80.528,187.07 80.5,186C 80.9081,181.557 81.9081,177.391 83.5,173.5C 88.6225,173.375 93.9558,173.375 99.5,173.5C 99.5,174.5 99.5,175.5 99.5,176.5 Z"/></g>
<g><path style="opacity:1" fill="#98caee" d="M 432.5,173.5 C 438.167,173.5 443.833,173.5 449.5,173.5C 448.743,179.219 447.076,184.552 444.5,189.5C 444.855,186.933 445.521,184.433 446.5,182C 446.355,181.228 446.022,180.561 445.5,180C 440.845,179.501 436.179,179.334 431.5,179.5C 431.715,181.179 431.048,182.179 429.5,182.5C 430.331,179.341 431.331,176.341 432.5,173.5 Z"/></g>
<g><path style="opacity:1" fill="#8bc1ec" d="M 249.5,172.5 C 249.5,176.833 249.5,181.167 249.5,185.5C 248.596,184.791 248.263,183.791 248.5,182.5C 243.193,183.026 238.193,182.36 233.5,180.5C 233.5,179.833 233.5,179.167 233.5,178.5C 233.5,177.167 233.5,175.833 233.5,174.5C 239.045,175.64 244.379,174.973 249.5,172.5 Z"/></g>
<g><path style="opacity:1" fill="#89c0ec" d="M 70.5,184.5 C 69.7321,183.737 69.2321,182.737 69,181.5C 64.0489,182.384 59.2156,182.717 54.5,182.5C 54.5,179.5 54.5,176.5 54.5,173.5C 59.5649,173.781 64.5649,173.448 69.5,172.5C 70.4909,176.445 70.8242,180.445 70.5,184.5 Z"/></g>
<g><path style="opacity:1" fill="#88c0ec" d="M 140.5,173.5 C 140.575,176.206 140.908,178.873 141.5,181.5C 136.595,182.445 131.595,182.779 126.5,182.5C 126.88,180.302 126.213,178.635 124.5,177.5C 124.5,177.167 124.5,176.833 124.5,176.5C 124.414,175.504 124.748,174.671 125.5,174C 130.086,173.803 134.586,173.303 139,172.5C 139.383,173.056 139.883,173.389 140.5,173.5 Z"/></g>
<g><path style="opacity:1" fill="#88bfec" d="M 168.5,181.5 C 163.562,182.392 158.562,182.726 153.5,182.5C 152.61,177.259 154.777,174.592 160,174.5C 163.04,174.986 166.207,175.153 169.5,175C 168.577,177.041 168.244,179.208 168.5,181.5 Z"/></g>
<g><path style="opacity:1" fill="#8bbeec" d="M 342.5,171.5 C 342.5,176.833 342.5,182.167 342.5,187.5C 337.347,187.437 332.347,187.771 327.5,188.5C 327.334,183.821 327.501,179.155 328,174.5C 333.049,174.087 337.882,173.087 342.5,171.5 Z"/></g>
<g><path style="opacity:1" fill="#88c0ec" d="M 381.5,172.5 C 381.5,176.167 381.5,179.833 381.5,183.5C 376.5,182.833 371.5,182.167 366.5,181.5C 366.5,178.833 366.5,176.167 366.5,173.5C 371.382,173.745 376.382,173.412 381.5,172.5 Z"/></g>
<g><path style="opacity:1" fill="#8fc3ed" d="M 397.5,173.5 C 402.833,173.5 408.167,173.5 413.5,173.5C 413.229,175.38 413.896,176.713 415.5,177.5C 416.363,179.421 417.029,181.421 417.5,183.5C 416.542,183.047 415.708,182.381 415,181.5C 410.599,182.467 406.099,182.8 401.5,182.5C 401.833,184.5 402.167,186.5 402.5,188.5C 401.069,187.22 400.402,185.553 400.5,183.5C 399.899,180.032 398.899,176.699 397.5,173.5 Z"/></g>
<g><path style="opacity:1" fill="#90c3ed" d="M 514.5,171.5 C 515.845,174.051 516.511,176.884 516.5,180C 516.664,182.544 515.997,184.71 514.5,186.5C 514.279,185.265 513.612,184.265 512.5,183.5C 494.763,182.003 477.097,181.336 459.5,181.5C 459.767,179.035 460.434,176.701 461.5,174.5C 465.979,175.113 470.312,175.113 474.5,174.5C 474.5,175.833 474.5,177.167 474.5,178.5C 474.5,179.5 474.5,180.5 474.5,181.5C 482.507,180.475 490.507,179.308 498.5,178C 499.38,176.644 499.714,175.144 499.5,173.5C 504.944,174.108 509.944,173.442 514.5,171.5 Z"/></g>
<g><path style="opacity:1" fill="#8cbcec" d="M 293.5,176.5 C 293.5,179.833 293.5,183.167 293.5,186.5C 288.193,187.026 283.193,186.36 278.5,184.5C 278.5,181.167 278.5,177.833 278.5,174.5C 282.153,174.877 285.653,174.877 289,174.5C 290.607,175.074 292.107,175.74 293.5,176.5 Z"/></g>
<g><path style="opacity:1" fill="#91bced" d="M 582.5,174.5 C 582.833,174.5 583.167,174.5 583.5,174.5C 583.5,180.167 583.5,185.833 583.5,191.5C 583.167,191.5 582.833,191.5 582.5,191.5C 582.5,189.833 582.5,188.167 582.5,186.5C 577.901,186.8 573.401,186.467 569,185.5C 568.768,186.737 568.268,187.737 567.5,188.5C 567.334,184.486 567.501,180.486 568,176.5C 569,177.167 570,177.833 571,178.5C 574.103,177.762 577.436,177.762 581,178.5C 582.188,177.437 582.688,176.103 582.5,174.5 Z"/></g>
<g><path style="opacity:0.074" fill="#dae4f8" d="M 124.5,177.5 C 126.213,178.635 126.88,180.302 126.5,182.5C 126.666,186.514 126.499,190.514 126,194.5C 125.617,195.056 125.117,195.389 124.5,195.5C 125.784,189.487 125.784,183.487 124.5,177.5 Z"/></g>
<g><path style="opacity:1" fill="#a0beef" d="M 417.5,183.5 C 419.257,187.598 420.923,191.765 422.5,196C 422.836,197.03 423.503,197.53 424.5,197.5C 424.719,198.675 424.386,199.675 423.5,200.5C 421.962,198.757 420.962,196.757 420.5,194.5C 420.095,191.015 418.262,188.681 415,187.5C 411.572,188.64 408.072,188.64 404.5,187.5C 403.571,188.689 403.238,190.022 403.5,191.5C 402.596,190.791 402.263,189.791 402.5,188.5C 402.167,186.5 401.833,184.5 401.5,182.5C 406.099,182.8 410.599,182.467 415,181.5C 415.708,182.381 416.542,183.047 417.5,183.5 Z"/></g>
<g><path style="opacity:0.278" fill="#f5cefb" d="M 641.5,145.5 C 643.262,148.503 644.428,151.837 645,155.5C 647.412,172.42 648.079,189.42 647,206.5C 646.802,208.382 646.302,210.048 645.5,211.5C 647.598,189.275 646.265,167.275 641.5,145.5 Z"/></g>
<g><path style="opacity:1" fill="#8fb9ed" d="M 19.5,177.5 C 19.5,181.167 19.5,184.833 19.5,188.5C 14.76,187.683 9.75996,187.683 4.5,188.5C 4.33449,184.486 4.50115,180.486 5,176.5C 5.66667,177.167 6.33333,177.833 7,178.5C 11.5294,178.551 15.696,178.218 19.5,177.5 Z"/></g>
<g><path style="opacity:1" fill="#98baee" d="M 444.5,189.5 C 443.63,194.223 441.964,198.556 439.5,202.5C 440.301,198.765 441.301,195.099 442.5,191.5C 436.313,190.738 430.646,191.738 425.5,194.5C 426.637,190.421 427.971,186.421 429.5,182.5C 431.048,182.179 431.715,181.179 431.5,179.5C 436.179,179.334 440.845,179.501 445.5,180C 446.022,180.561 446.355,181.228 446.5,182C 445.521,184.433 444.855,186.933 444.5,189.5 Z"/></g>
<g><path style="opacity:1" fill="#99b9ee" d="M 459.5,181.5 C 477.097,181.336 494.763,182.003 512.5,183.5C 513.612,184.265 514.279,185.265 514.5,186.5C 513.4,187.558 512.066,188.392 510.5,189C 499.5,190.667 488.5,192.333 477.5,194C 476.584,194.278 475.918,194.778 475.5,195.5C 474.596,194.791 474.263,193.791 474.5,192.5C 476.527,192.662 478.527,192.495 480.5,192C 477.167,191.833 473.833,191.667 470.5,191.5C 466.761,191.514 463.428,192.18 460.5,193.5C 459.517,189.702 459.183,185.702 459.5,181.5 Z"/></g>
<g><path style="opacity:1" fill="#90baed" d="M 543.5,187.5 C 539.284,187.736 535.118,187.736 531,187.5C 530.292,188.381 529.458,189.047 528.5,189.5C 528.241,185.76 528.574,182.094 529.5,178.5C 533.281,178.271 537.114,178.271 541,178.5C 541.915,177.672 542.581,176.672 543,175.5C 543.499,179.486 543.666,183.486 543.5,187.5 Z"/></g>
<g><path style="opacity:0.859" fill="#c9daf6" d="M 140.5,173.5 C 143.71,180.738 144.044,188.071 141.5,195.5C 141.5,190.833 141.5,186.167 141.5,181.5C 140.908,178.873 140.575,176.206 140.5,173.5 Z"/></g>
<g><path style="opacity:0.501" fill="#cadff6" d="M 342.5,159.5 C 343.261,172.68 343.927,186.013 344.5,199.5C 343.662,199.158 343.328,198.492 343.5,197.5C 342.676,194.236 342.342,190.902 342.5,187.5C 342.5,182.167 342.5,176.833 342.5,171.5C 342.5,168.5 342.5,165.5 342.5,162.5C 342.5,161.5 342.5,160.5 342.5,159.5 Z"/></g>
<g><path style="opacity:0.43" fill="#cfdff7" d="M 381.5,159.5 C 382.662,175.661 382.828,191.995 382,208.5C 381.722,209.416 381.222,210.082 380.5,210.5C 381.207,207.214 381.54,203.881 381.5,200.5C 381.5,196.5 381.5,192.5 381.5,188.5C 381.5,186.833 381.5,185.167 381.5,183.5C 381.5,179.833 381.5,176.167 381.5,172.5C 381.5,169.833 381.5,167.167 381.5,164.5C 381.5,162.833 381.5,161.167 381.5,159.5 Z"/></g>
<g><path style="opacity:1" fill="#9db7ee" d="M 70.5,184.5 C 70.5,185.167 70.5,185.833 70.5,186.5C 70.4835,190.534 69.4835,194.201 67.5,197.5C 67.7135,195.856 67.3802,194.356 66.5,193C 61.1294,192.324 55.7961,192.491 50.5,193.5C 51.5033,190.15 52.5033,186.817 53.5,183.5C 54.1667,183.5 54.5,183.167 54.5,182.5C 59.2156,182.717 64.0489,182.384 69,181.5C 69.2321,182.737 69.7321,183.737 70.5,184.5 Z"/></g>
<g><path style="opacity:1" fill="#9bb3ee" d="M 98.5,193.5 C 99.5375,194.93 100.204,196.597 100.5,198.5C 95.1249,196.968 89.6249,195.968 84,195.5C 83.51,196.793 83.3433,198.127 83.5,199.5C 81.9177,196.124 81.2511,192.458 81.5,188.5C 81.3573,186.738 81.6906,185.071 82.5,183.5C 87.6002,183.09 92.4335,182.09 97,180.5C 97.1753,185.019 97.6753,189.353 98.5,193.5 Z"/></g>
<g><path style="opacity:1" fill="#9ab2ee" d="M 141.5,181.5 C 141.5,186.167 141.5,190.833 141.5,195.5C 141.741,197.898 141.074,199.898 139.5,201.5C 139.5,199.833 139.5,198.167 139.5,196.5C 134.821,196.334 130.155,196.501 125.5,197C 124.956,197.717 124.289,198.217 123.5,198.5C 123.557,197.391 123.89,196.391 124.5,195.5C 125.117,195.389 125.617,195.056 126,194.5C 126.499,190.514 126.666,186.514 126.5,182.5C 131.595,182.779 136.595,182.445 141.5,181.5 Z"/></g>
<g><path style="opacity:1" fill="#98b3ee" d="M 168.5,181.5 C 168.187,185.042 168.521,188.375 169.5,191.5C 169.833,192.833 170.167,194.167 170.5,195.5C 168.952,195.179 168.285,194.179 168.5,192.5C 163.5,192.5 158.5,192.5 153.5,192.5C 153.5,191.5 153.5,190.5 153.5,189.5C 153.5,187.167 153.5,184.833 153.5,182.5C 158.562,182.726 163.562,182.392 168.5,181.5 Z"/></g>
<g><path style="opacity:1" fill="#97b4ee" d="M 233.5,180.5 C 238.193,182.36 243.193,183.026 248.5,182.5C 248.263,183.791 248.596,184.791 249.5,185.5C 249.5,189.833 249.5,194.167 249.5,198.5C 248.784,196.444 248.117,194.277 247.5,192C 242.535,192.022 237.868,191.188 233.5,189.5C 233.5,186.5 233.5,183.5 233.5,180.5 Z"/></g>
<g><path style="opacity:1" fill="#95b4ed" d="M 366.5,181.5 C 371.5,182.167 376.5,182.833 381.5,183.5C 381.5,185.167 381.5,186.833 381.5,188.5C 380.596,189.209 380.263,190.209 380.5,191.5C 375.833,191.5 371.167,191.5 366.5,191.5C 366.5,188.167 366.5,184.833 366.5,181.5 Z"/></g>
<g><path style="opacity:0.233" fill="#dee9f9" d="M 461.5,171.5 C 461.5,172.5 461.5,173.5 461.5,174.5C 460.434,176.701 459.767,179.035 459.5,181.5C 459.183,185.702 459.517,189.702 460.5,193.5C 460.993,195.806 461.326,198.139 461.5,200.5C 459.076,196.09 458.076,191.257 458.5,186C 458.667,183.167 458.833,180.333 459,177.5C 459.24,175.148 460.073,173.148 461.5,171.5 Z"/></g>
<g><path style="opacity:1" fill="#a1afef" d="M 19.5,188.5 C 19.5,191.167 19.5,193.833 19.5,196.5C 14.3517,197.074 9.5184,196.407 5,194.5C 4.50098,198.821 4.33432,203.154 4.5,207.5C 4.62867,209.216 4.962,210.883 5.5,212.5C 3.89578,211.713 3.22911,210.38 3.5,208.5C 3.20656,201.745 3.5399,195.078 4.5,188.5C 9.75996,187.683 14.76,187.683 19.5,188.5 Z"/></g>
<g><path style="opacity:1" fill="#9cadee" d="M 278.5,184.5 C 283.193,186.36 288.193,187.026 293.5,186.5C 293.5,190.833 293.5,195.167 293.5,199.5C 292.71,198.391 292.21,197.058 292,195.5C 287.501,196.806 283.001,196.806 278.5,195.5C 278.5,191.833 278.5,188.167 278.5,184.5 Z"/></g>
<g><path style="opacity:1" fill="#a1afef" d="M 342.5,187.5 C 342.342,190.902 342.676,194.236 343.5,197.5C 338.562,196.608 333.562,196.274 328.5,196.5C 329.159,199.455 329.492,202.455 329.5,205.5C 327.882,202.829 327.215,199.829 327.5,196.5C 327.5,193.833 327.5,191.167 327.5,188.5C 332.347,187.771 337.347,187.437 342.5,187.5 Z"/></g>
<g><path style="opacity:0.359" fill="#d8e4f8" d="M 366.5,156.5 C 366.5,159.167 366.5,161.833 366.5,164.5C 366.5,167.5 366.5,170.5 366.5,173.5C 366.5,176.167 366.5,178.833 366.5,181.5C 366.5,184.833 366.5,188.167 366.5,191.5C 366.5,195.167 366.5,198.833 366.5,202.5C 365.791,203.404 364.791,203.737 363.5,203.5C 365.135,187.898 366.135,172.231 366.5,156.5 Z"/></g>
<g><path style="opacity:1" fill="#a1b0ef" d="M 420.5,194.5 C 416.486,196.334 412.153,197.001 407.5,196.5C 407.5,197.833 407.5,199.167 407.5,200.5C 405.408,197.912 404.075,194.912 403.5,191.5C 403.238,190.022 403.571,188.689 404.5,187.5C 408.072,188.64 411.572,188.64 415,187.5C 418.262,188.681 420.095,191.015 420.5,194.5 Z"/></g>
<g><path style="opacity:1" fill="#a5b1ef" d="M 543.5,187.5 C 543.232,189.099 543.566,190.432 544.5,191.5C 545.135,200.234 544.468,208.567 542.5,216.5C 543.436,212.265 543.769,207.931 543.5,203.5C 543.664,200.813 543.497,198.146 543,195.5C 540.925,196.134 538.759,196.468 536.5,196.5C 534.036,196.41 531.87,195.743 530,194.5C 529.722,195.416 529.222,196.082 528.5,196.5C 528.5,194.167 528.5,191.833 528.5,189.5C 529.458,189.047 530.292,188.381 531,187.5C 535.118,187.736 539.284,187.736 543.5,187.5 Z"/></g>
<g><path style="opacity:1" fill="#9dadee" d="M 582.5,191.5 C 582.579,192.93 582.246,194.264 581.5,195.5C 579.5,195.833 577.5,196.167 575.5,196.5C 573.036,196.41 570.87,195.743 569,194.5C 568.79,196.058 568.29,197.391 567.5,198.5C 567.5,195.167 567.5,191.833 567.5,188.5C 568.268,187.737 568.768,186.737 569,185.5C 573.401,186.467 577.901,186.8 582.5,186.5C 582.5,188.167 582.5,189.833 582.5,191.5 Z"/></g>
<g><path style="opacity:0.424" fill="#dee1f9" d="M 152.5,180.5 C 152.19,183.713 152.523,186.713 153.5,189.5C 153.5,190.5 153.5,191.5 153.5,192.5C 153.721,195.067 154.388,197.401 155.5,199.5C 156.038,201.117 156.371,202.784 156.5,204.5C 151.95,196.984 150.617,188.984 152.5,180.5 Z"/></g>
<g><path style="opacity:0.471" fill="#d6dcf8" d="M 19.5,168.5 C 19.8333,168.5 20.1667,168.5 20.5,168.5C 20.1678,179.853 20.5012,191.186 21.5,202.5C 28.246,203.904 34.9126,203.571 41.5,201.5C 40.3192,203.067 38.6526,203.901 36.5,204C 31.1667,204.667 25.8333,204.667 20.5,204C 19.565,201.619 19.2317,199.119 19.5,196.5C 19.5,193.833 19.5,191.167 19.5,188.5C 19.5,184.833 19.5,181.167 19.5,177.5C 19.5,174.5 19.5,171.5 19.5,168.5 Z"/></g>
<g><path style="opacity:1" fill="#aaacf0" d="M 67.5,197.5 C 66.7368,199.368 65.7368,201.035 64.5,202.5C 61.7425,201.182 58.5758,200.515 55,200.5C 50.4742,200.641 45.9742,200.975 41.5,201.5C 45.1203,199.547 48.1203,196.881 50.5,193.5C 55.7961,192.491 61.1294,192.324 66.5,193C 67.3802,194.356 67.7135,195.856 67.5,197.5 Z"/></g>
<g><path style="opacity:1" fill="#a5a8ef" d="M 153.5,192.5 C 158.5,192.5 163.5,192.5 168.5,192.5C 168.285,194.179 168.952,195.179 170.5,195.5C 171.338,195.842 171.672,196.508 171.5,197.5C 171.5,198.167 171.5,198.833 171.5,199.5C 165.877,200.669 160.544,200.669 155.5,199.5C 154.388,197.401 153.721,195.067 153.5,192.5 Z"/></g>
<g><path style="opacity:0.488" fill="#d6d6f7" d="M 232.5,178.5 C 232.833,178.5 233.167,178.5 233.5,178.5C 233.5,179.167 233.5,179.833 233.5,180.5C 233.5,183.5 233.5,186.5 233.5,189.5C 233.5,192.833 233.5,196.167 233.5,199.5C 233.5,204.167 233.5,208.833 233.5,213.5C 232.807,204.962 232.14,196.296 231.5,187.5C 232.407,184.579 232.74,181.579 232.5,178.5 Z"/></g>
<g><path style="opacity:1" fill="#a9aaf0" d="M 233.5,189.5 C 237.868,191.188 242.535,192.022 247.5,192C 248.117,194.277 248.784,196.444 249.5,198.5C 249.5,204.5 249.5,210.5 249.5,216.5C 248.5,216.5 247.5,216.5 246.5,216.5C 248.523,211.798 249.023,206.798 248,201.5C 243.169,200.808 238.336,200.141 233.5,199.5C 233.5,196.167 233.5,192.833 233.5,189.5 Z"/></g>
<g><path style="opacity:1" fill="#a3a7ef" d="M 381.5,188.5 C 381.5,192.5 381.5,196.5 381.5,200.5C 376.901,200.8 372.401,200.467 368,199.5C 367.768,200.737 367.268,201.737 366.5,202.5C 366.5,198.833 366.5,195.167 366.5,191.5C 371.167,191.5 375.833,191.5 380.5,191.5C 380.263,190.209 380.596,189.209 381.5,188.5 Z"/></g>
<g><path style="opacity:0.999" fill="#acabf0" d="M 475.5,195.5 C 477.833,198.5 480.5,201.167 483.5,203.5C 483.5,203.833 483.5,204.167 483.5,204.5C 477.463,204.171 471.463,204.504 465.5,205.5C 466.63,206.622 467.297,207.956 467.5,209.5C 464.723,207.049 462.723,204.049 461.5,200.5C 461.326,198.139 460.993,195.806 460.5,193.5C 463.428,192.18 466.761,191.514 470.5,191.5C 473.833,191.667 477.167,191.833 480.5,192C 478.527,192.495 476.527,192.662 474.5,192.5C 474.263,193.791 474.596,194.791 475.5,195.5 Z"/></g>
<g><path style="opacity:0.616" fill="#e2e0f9" d="M 171.5,197.5 C 173.5,198.833 175.167,200.5 176.5,202.5C 174.589,201.925 172.922,200.925 171.5,199.5C 171.5,198.833 171.5,198.167 171.5,197.5 Z"/></g>
<g><path style="opacity:0.34" fill="#dee2f9" d="M 298.5,169.5 C 297.739,170.391 296.739,171.058 295.5,171.5C 295.158,186.856 294.158,201.856 292.5,216.5C 293.369,214.283 293.702,211.95 293.5,209.5C 293.5,206.167 293.5,202.833 293.5,199.5C 293.5,195.167 293.5,190.833 293.5,186.5C 293.5,183.167 293.5,179.833 293.5,176.5C 292.685,172.167 294.352,169.834 298.5,169.5 Z"/></g>
<g><path style="opacity:1" fill="#aaa1ef" d="M 278.5,195.5 C 283.001,196.806 287.501,196.806 292,195.5C 292.21,197.058 292.71,198.391 293.5,199.5C 293.5,202.833 293.5,206.167 293.5,209.5C 292.85,207.553 291.683,205.887 290,204.5C 286.875,204.923 283.708,205.257 280.5,205.5C 279.818,204.757 279.151,204.091 278.5,203.5C 278.5,200.833 278.5,198.167 278.5,195.5 Z"/></g>
<g><path style="opacity:1" fill="#aaa5f0" d="M 439.5,202.5 C 438.736,205.018 437.736,207.351 436.5,209.5C 436.714,207.856 436.38,206.356 435.5,205C 431.333,204.833 427.167,204.667 423,204.5C 418.443,204.509 414.276,205.175 410.5,206.5C 408.992,204.819 407.992,202.819 407.5,200.5C 407.5,199.167 407.5,197.833 407.5,196.5C 412.153,197.001 416.486,196.334 420.5,194.5C 420.962,196.757 421.962,198.757 423.5,200.5C 424.386,199.675 424.719,198.675 424.5,197.5C 424.557,196.391 424.89,195.391 425.5,194.5C 430.646,191.738 436.313,190.738 442.5,191.5C 441.301,195.099 440.301,198.765 439.5,202.5 Z"/></g>
<g><path style="opacity:1" fill="#aba2f0" d="M 543.5,203.5 C 539.262,205.669 534.762,205.669 530,203.5C 528.743,208.383 529.576,212.716 532.5,216.5C 530.167,216.167 528.833,214.833 528.5,212.5C 528.5,207.167 528.5,201.833 528.5,196.5C 529.222,196.082 529.722,195.416 530,194.5C 531.87,195.743 534.036,196.41 536.5,196.5C 538.759,196.468 540.925,196.134 543,195.5C 543.497,198.146 543.664,200.813 543.5,203.5 Z"/></g>
<g><path style="opacity:1" fill="#b7acf2" d="M 582.5,191.5 C 582.833,191.5 583.167,191.5 583.5,191.5C 583.187,198.755 583.52,205.921 584.5,213C 583.929,214.205 583.262,215.372 582.5,216.5C 578.892,217.593 575.225,217.76 571.5,217C 569.249,216.252 567.916,214.752 567.5,212.5C 567.5,207.833 567.5,203.167 567.5,198.5C 568.29,197.391 568.79,196.058 569,194.5C 570.87,195.743 573.036,196.41 575.5,196.5C 577.5,196.167 579.5,195.833 581.5,195.5C 582.246,194.264 582.579,192.93 582.5,191.5 Z"/></g>
<g><path style="opacity:0.665" fill="#dbd8f8" d="M 277.5,170.5 C 277.181,175.363 277.514,180.03 278.5,184.5C 278.5,188.167 278.5,191.833 278.5,195.5C 278.5,198.167 278.5,200.833 278.5,203.5C 278.5,206.833 278.5,210.167 278.5,213.5C 277.71,212.391 277.21,211.058 277,209.5C 276.173,196.327 276.34,183.327 277.5,170.5 Z"/></g>
<g><path style="opacity:1" fill="#c2b7f4" d="M 513.5,204.5 C 508.913,203.99 503.913,203.99 498.5,204.5C 502.62,202.628 506.953,201.461 511.5,201C 512.823,201.816 513.489,202.983 513.5,204.5 Z"/></g>
<g><path style="opacity:0.171" fill="#f6d4fc" d="M 654.5,167.5 C 657.121,186.412 656.621,205.412 653,224.5C 652.431,228.795 651.264,232.795 649.5,236.5C 654.04,213.742 655.707,190.742 654.5,167.5 Z"/></g>
<g><path style="opacity:1" fill="#b09df0" d="M 19.5,196.5 C 19.2317,199.119 19.565,201.619 20.5,204C 25.8333,204.667 31.1667,204.667 36.5,204C 38.6526,203.901 40.3192,203.067 41.5,201.5C 45.9742,200.975 50.4742,200.641 55,200.5C 58.5758,200.515 61.7425,201.182 64.5,202.5C 62.8333,206.167 60.1667,208.833 56.5,210.5C 56.1667,210.5 55.8333,210.5 55.5,210.5C 38.4371,210.138 21.4371,209.138 4.5,207.5C 4.33432,203.154 4.50098,198.821 5,194.5C 9.5184,196.407 14.3517,197.074 19.5,196.5 Z"/></g>
<g><path style="opacity:1" fill="#b09ff0" d="M 100.5,198.5 C 101.167,201.167 102.833,202.833 105.5,203.5C 110.415,206.109 115.415,205.942 120.5,203C 122.141,201.871 123.141,200.371 123.5,198.5C 124.289,198.217 124.956,197.717 125.5,197C 130.155,196.501 134.821,196.334 139.5,196.5C 139.5,198.167 139.5,199.833 139.5,201.5C 139.34,203.153 138.674,204.486 137.5,205.5C 135.738,206.262 134.738,207.596 134.5,209.5C 133.738,211.262 132.404,212.262 130.5,212.5C 130.804,211.85 131.137,211.183 131.5,210.5C 118.179,209.334 104.846,209.167 91.5,210C 92.3805,210.708 93.0472,211.542 93.5,212.5C 91.5956,212.262 90.2623,211.262 89.5,209.5C 88.8645,207.205 87.5311,205.539 85.5,204.5C 84.4625,203.07 83.7959,201.403 83.5,199.5C 83.3433,198.127 83.51,196.793 84,195.5C 89.6249,195.968 95.1249,196.968 100.5,198.5 Z"/></g>
<g><path style="opacity:0.553" fill="#e3dff9" d="M 100.5,198.5 C 102.5,199.833 104.167,201.5 105.5,203.5C 102.833,202.833 101.167,201.167 100.5,198.5 Z"/></g>
<g><path style="opacity:0.369" fill="#e0daf9" d="M 123.5,198.5 C 123.141,200.371 122.141,201.871 120.5,203C 115.415,205.942 110.415,206.109 105.5,203.5C 112.544,205.484 118.544,203.817 123.5,198.5 Z"/></g>
<g><path style="opacity:1" fill="#b39ef0" d="M 171.5,199.5 C 172.922,200.925 174.589,201.925 176.5,202.5C 177.492,202.328 178.158,202.662 178.5,203.5C 183.5,206.167 188.5,206.167 193.5,203.5C 194.937,202.275 196.604,201.275 198.5,200.5C 200.213,200.879 201.213,201.879 201.5,203.5C 201.557,204.609 201.89,205.609 202.5,206.5C 201.596,207.209 201.263,208.209 201.5,209.5C 188.496,209.333 175.496,209.5 162.5,210C 163.381,210.708 164.047,211.542 164.5,212.5C 161.911,211.581 159.911,209.914 158.5,207.5C 158.573,205.973 157.906,204.973 156.5,204.5C 156.371,202.784 156.038,201.117 155.5,199.5C 160.544,200.669 165.877,200.669 171.5,199.5 Z"/></g>
<g><path style="opacity:0.482" fill="#ded6f9" d="M 178.5,203.5 C 183.487,204.673 188.487,204.673 193.5,203.5C 188.5,206.167 183.5,206.167 178.5,203.5 Z"/></g>
<g><path style="opacity:1" fill="#b69cf1" d="M 233.5,199.5 C 238.336,200.141 243.169,200.808 248,201.5C 249.023,206.798 248.523,211.798 246.5,216.5C 243.696,217.638 240.696,217.805 237.5,217C 235.676,216.34 234.343,215.173 233.5,213.5C 233.5,208.833 233.5,204.167 233.5,199.5 Z"/></g>
<g><path style="opacity:1" fill="#b09ef0" d="M 343.5,197.5 C 343.328,198.492 343.662,199.158 344.5,199.5C 345.833,200.167 346.833,201.167 347.5,202.5C 349.508,204.927 352.174,205.927 355.5,205.5C 358.486,205.618 361.152,204.952 363.5,203.5C 364.791,203.737 365.791,203.404 366.5,202.5C 367.268,201.737 367.768,200.737 368,199.5C 372.401,200.467 376.901,200.8 381.5,200.5C 381.54,203.881 381.207,207.214 380.5,210.5C 380.5,211.167 380.167,211.5 379.5,211.5C 372.364,210.169 364.864,209.503 357,209.5C 349.5,209.833 342,210.167 334.5,210.5C 334.863,211.183 335.196,211.85 335.5,212.5C 332.833,210.827 330.833,208.493 329.5,205.5C 329.492,202.455 329.159,199.455 328.5,196.5C 333.562,196.274 338.562,196.608 343.5,197.5 Z"/></g>
<g><path style="opacity:0.453" fill="#e0d9f9" d="M 347.5,202.5 C 352.705,204.719 358.039,205.052 363.5,203.5C 361.152,204.952 358.486,205.618 355.5,205.5C 352.174,205.927 349.508,204.927 347.5,202.5 Z"/></g>
<g><path style="opacity:1" fill="#b49cf0" d="M 436.5,209.5 C 436.672,210.492 436.338,211.158 435.5,211.5C 433.257,210.188 430.59,209.522 427.5,209.5C 424.833,209.667 422.167,209.833 419.5,210C 418.309,210.698 417.309,211.531 416.5,212.5C 416.5,211.167 415.833,210.5 414.5,210.5C 412.833,209.5 411.5,208.167 410.5,206.5C 414.276,205.175 418.443,204.509 423,204.5C 427.167,204.667 431.333,204.833 435.5,205C 436.38,206.356 436.714,207.856 436.5,209.5 Z"/></g>
<g><path style="opacity:1" fill="#b69ef1" d="M 513.5,204.5 C 515.007,207.618 514.34,210.285 511.5,212.5C 511.5,211.5 511.5,210.5 511.5,209.5C 497.496,209.333 483.496,209.5 469.5,210C 470.381,210.708 471.047,211.542 471.5,212.5C 469.596,212.262 468.262,211.262 467.5,209.5C 467.297,207.956 466.63,206.622 465.5,205.5C 471.463,204.504 477.463,204.171 483.5,204.5C 488.631,205.751 493.631,205.751 498.5,204.5C 503.913,203.99 508.913,203.99 513.5,204.5 Z"/></g>
<g><path style="opacity:0.171" fill="#eae5fb" d="M 483.5,204.5 C 483.5,204.167 483.5,203.833 483.5,203.5C 488.463,204.254 493.463,204.587 498.5,204.5C 493.631,205.751 488.631,205.751 483.5,204.5 Z"/></g>
<g><path style="opacity:0.004" fill="#f0ecfc" d="M 156.5,204.5 C 157.906,204.973 158.573,205.973 158.5,207.5C 157.094,207.027 156.427,206.027 156.5,204.5 Z"/></g>
<g><path style="opacity:0.078" fill="#eee9fb" d="M 201.5,203.5 C 202.993,204.312 203.66,205.645 203.5,207.5C 203.48,208.726 203.147,209.726 202.5,210.5C 202.5,209.167 202.5,207.833 202.5,206.5C 201.89,205.609 201.557,204.609 201.5,203.5 Z"/></g>
<g><path style="opacity:0.486" fill="#e2d9f9" d="M 85.5,204.5 C 87.5311,205.539 88.8645,207.205 89.5,209.5C 87.457,208.421 86.1237,206.754 85.5,204.5 Z"/></g>
<g><path style="opacity:0.004" fill="#f1ecfc" d="M 137.5,205.5 C 137.262,207.404 136.262,208.738 134.5,209.5C 134.738,207.596 135.738,206.262 137.5,205.5 Z"/></g>
<g><path style="opacity:1" fill="#bf99f2" d="M 4.5,207.5 C 21.4371,209.138 38.4371,210.138 55.5,210.5C 54.5,210.833 53.8333,211.5 53.5,212.5C 51.4471,212.402 49.7804,213.069 48.5,214.5C 46.5242,216.011 44.1909,216.844 41.5,217C 34.8124,218.321 28.1457,218.488 21.5,217.5C 18.0542,216.313 14.3875,215.646 10.5,215.5C 8.32604,215.25 6.65938,214.25 5.5,212.5C 4.962,210.883 4.62867,209.216 4.5,207.5 Z"/></g>
<g><path style="opacity:1" fill="#bd96f2" d="M 130.5,212.5 C 126.285,216.146 121.285,217.813 115.5,217.5C 111.123,217.423 106.79,216.923 102.5,216C 99.9367,213.719 96.9367,212.552 93.5,212.5C 93.0472,211.542 92.3805,210.708 91.5,210C 104.846,209.167 118.179,209.334 131.5,210.5C 131.137,211.183 130.804,211.85 130.5,212.5 Z"/></g>
<g><path style="opacity:1" fill="#be99f2" d="M 202.5,206.5 C 202.5,207.833 202.5,209.167 202.5,210.5C 202.573,212.027 201.906,213.027 200.5,213.5C 198.973,213.427 197.973,214.094 197.5,215.5C 191.453,218.027 185.119,218.694 178.5,217.5C 176.095,216.232 173.428,215.565 170.5,215.5C 169.209,215.737 168.209,215.404 167.5,214.5C 167.027,213.094 166.027,212.427 164.5,212.5C 164.047,211.542 163.381,210.708 162.5,210C 175.496,209.5 188.496,209.333 201.5,209.5C 201.263,208.209 201.596,207.209 202.5,206.5 Z"/></g>
<g><path style="opacity:1" fill="#bc9af2" d="M 278.5,203.5 C 279.151,204.091 279.818,204.757 280.5,205.5C 283.708,205.257 286.875,204.923 290,204.5C 291.683,205.887 292.85,207.553 293.5,209.5C 293.702,211.95 293.369,214.283 292.5,216.5C 288.935,217.787 285.268,217.787 281.5,216.5C 280.833,215.167 279.833,214.167 278.5,213.5C 278.5,210.167 278.5,206.833 278.5,203.5 Z"/></g>
<g><path style="opacity:1" fill="#c09bf2" d="M 379.5,211.5 C 377.181,211.992 375.181,212.992 373.5,214.5C 371.852,215.927 369.852,216.76 367.5,217C 359.5,219 351.5,219 343.5,217C 341.509,216.626 339.842,215.793 338.5,214.5C 338.027,213.094 337.027,212.427 335.5,212.5C 335.196,211.85 334.863,211.183 334.5,210.5C 342,210.167 349.5,209.833 357,209.5C 364.864,209.503 372.364,210.169 379.5,211.5 Z"/></g>
<g><path style="opacity:1" fill="#bb99f1" d="M 543.5,203.5 C 543.769,207.931 543.436,212.265 542.5,216.5C 539.167,217.833 535.833,217.833 532.5,216.5C 529.576,212.716 528.743,208.383 530,203.5C 534.762,205.669 539.262,205.669 543.5,203.5 Z"/></g>
<g><path style="opacity:1" fill="#b693f1" d="M 568.5,202.5 C 569.918,204.105 571.752,205.105 574,205.5C 575.704,205.026 577.538,204.859 579.5,205C 580.667,204.5 581.5,203.667 582,202.5C 582.499,206.821 582.666,211.154 582.5,215.5C 570.778,218.778 566.112,214.445 568.5,202.5 Z"/></g>
<g><path style="opacity:0.008" fill="#f2ebfc" d="M 55.5,210.5 C 55.8333,210.5 56.1667,210.5 56.5,210.5C 56.0269,211.906 55.0269,212.573 53.5,212.5C 53.8333,211.5 54.5,210.833 55.5,210.5 Z"/></g>
<g><path style="opacity:0.169" fill="#ece1fb" d="M 379.5,211.5 C 378.089,213.539 376.089,214.539 373.5,214.5C 375.181,212.992 377.181,211.992 379.5,211.5 Z"/></g>
<g><path style="opacity:0.114" fill="#efe6fb" d="M 414.5,210.5 C 415.833,210.5 416.5,211.167 416.5,212.5C 416.5,213.167 416.167,213.5 415.5,213.5C 415.443,212.391 415.11,211.391 414.5,210.5 Z"/></g>
<g><path style="opacity:0.153" fill="#ece1fb" d="M 53.5,212.5 C 52.2196,213.931 50.5529,214.598 48.5,214.5C 49.7804,213.069 51.4471,212.402 53.5,212.5 Z"/></g>
<g><path style="opacity:1" fill="#dec6f8" d="M 93.5,212.5 C 96.9367,212.552 99.9367,213.719 102.5,216C 106.79,216.923 111.123,217.423 115.5,217.5C 110.968,218.533 106.302,218.366 101.5,217C 98.3156,216.246 95.6489,214.746 93.5,212.5 Z"/></g>
<g><path style="opacity:0.18" fill="#eee3fb" d="M 164.5,212.5 C 166.027,212.427 167.027,213.094 167.5,214.5C 165.973,214.573 164.973,213.906 164.5,212.5 Z"/></g>
<g><path style="opacity:0.275" fill="#ece0fb" d="M 335.5,212.5 C 337.027,212.427 338.027,213.094 338.5,214.5C 336.973,214.573 335.973,213.906 335.5,212.5 Z"/></g>
<g><path style="opacity:1" fill="#c297f2" d="M 435.5,211.5 C 434.59,214.992 432.924,217.992 430.5,220.5C 429.281,218.699 427.448,217.699 425,217.5C 420.888,217.55 416.721,217.883 412.5,218.5C 413.11,216.566 414.11,214.899 415.5,213.5C 416.167,213.5 416.5,213.167 416.5,212.5C 417.309,211.531 418.309,210.698 419.5,210C 422.167,209.833 424.833,209.667 427.5,209.5C 430.59,209.522 433.257,210.188 435.5,211.5 Z"/></g>
<g><path style="opacity:0.153" fill="#ebdffb" d="M 471.5,212.5 C 473.819,212.992 475.819,213.992 477.5,215.5C 474.911,215.539 472.911,214.539 471.5,212.5 Z"/></g>
<g><path style="opacity:0.998" fill="#c39bf3" d="M 511.5,212.5 C 507.596,215.974 502.929,217.807 497.5,218C 490.47,219.031 483.803,218.197 477.5,215.5C 475.819,213.992 473.819,212.992 471.5,212.5C 471.047,211.542 470.381,210.708 469.5,210C 483.496,209.5 497.496,209.333 511.5,209.5C 511.5,210.5 511.5,211.5 511.5,212.5 Z"/></g>
<g><path style="opacity:0.012" fill="#f4edfc" d="M 200.5,213.5 C 200.027,214.906 199.027,215.573 197.5,215.5C 197.973,214.094 198.973,213.427 200.5,213.5 Z"/></g>
<g><path style="opacity:0.694" fill="#e7d4fa" d="M 170.5,215.5 C 173.428,215.565 176.095,216.232 178.5,217.5C 175.505,217.706 172.838,217.04 170.5,215.5 Z"/></g>
<g><path style="opacity:0.145" fill="#f4edfd" d="M 278.5,213.5 C 279.833,214.167 280.833,215.167 281.5,216.5C 279.5,216.5 278.5,215.5 278.5,213.5 Z"/></g>
<g><path style="opacity:0.018" fill="#edddfb" d="M 10.5,215.5 C 14.3875,215.646 18.0542,216.313 21.5,217.5C 17.5115,217.884 13.8448,217.217 10.5,215.5 Z"/></g>
<g><path style="opacity:0.702" fill="#f5ccfb" d="M 645.5,212.5 C 645.844,217.122 645.177,221.455 643.5,225.5C 643.624,220.951 644.291,216.618 645.5,212.5 Z"/></g>
<g><path style="opacity:0.999" fill="#cd89f3" d="M 430.5,220.5 C 428.938,224.392 426.605,227.725 423.5,230.5C 418.007,228.822 412.174,227.822 406,227.5C 405.184,228.823 404.017,229.489 402.5,229.5C 403.5,227.833 404.833,226.5 406.5,225.5C 408.587,224.415 409.92,222.749 410.5,220.5C 410.833,219.5 411.5,218.833 412.5,218.5C 416.721,217.883 420.888,217.55 425,217.5C 427.448,217.699 429.281,218.699 430.5,220.5 Z"/></g>
<g><path style="opacity:0.412" fill="#eed6fb" d="M 410.5,220.5 C 409.92,222.749 408.587,224.415 406.5,225.5C 407.08,223.251 408.413,221.585 410.5,220.5 Z"/></g>
<g><path style="opacity:1" fill="#da7ff4" d="M 423.5,230.5 C 419.595,238.123 413.595,240.79 405.5,238.5C 404.5,236.833 403.167,235.5 401.5,234.5C 401.366,232.708 401.699,231.042 402.5,229.5C 404.017,229.489 405.184,228.823 406,227.5C 412.174,227.822 418.007,228.822 423.5,230.5 Z"/></g>
<g><path style="opacity:0.451" fill="#f3d6fb" d="M 402.5,229.5 C 401.699,231.042 401.366,232.708 401.5,234.5C 400.861,233.903 400.528,233.07 400.5,232C 400.684,230.624 401.351,229.791 402.5,229.5 Z"/></g>
<g><path style="opacity:0.698" fill="#f3c5fb" d="M 643.5,225.5 C 643.083,231.17 641.749,236.503 639.5,241.5C 640.232,235.906 641.565,230.573 643.5,225.5 Z"/></g>
<g><path style="opacity:0.004" fill="#f8e3fd" d="M 401.5,234.5 C 403.167,235.5 404.5,236.833 405.5,238.5C 403.167,238.167 401.833,236.833 401.5,234.5 Z"/></g>
<g><path style="opacity:0.867" fill="#f1b5f9" d="M 648.5,240.5 C 648.405,242.786 647.738,244.786 646.5,246.5C 646.054,243.99 646.72,241.99 648.5,240.5 Z"/></g>
<g><path style="opacity:0.804" fill="#f4c7fb" d="M 298.5,247.5 C 296.164,246.696 293.83,247.029 291.5,248.5C 290.948,250.003 290.948,251.669 291.5,253.5C 289.577,251.799 289.243,249.799 290.5,247.5C 292.432,246.634 294.432,245.967 296.5,245.5C 297.713,245.747 298.38,246.414 298.5,247.5 Z"/></g>
<g><path style="opacity:0.78" fill="#f1b8fa" d="M 298.5,248.5 C 300.065,250.509 301.065,252.843 301.5,255.5C 299.166,253.824 298.166,251.491 298.5,248.5 Z"/></g>
<g><path style="opacity:0.392" fill="#f6cffb" d="M 644.5,252.5 C 644.598,254.553 643.931,256.22 642.5,257.5C 642.402,255.447 643.069,253.78 644.5,252.5 Z"/></g>
<g><path style="opacity:0.745" fill="#f4c8fb" d="M 301.5,255.5 C 302.537,256.93 303.204,258.597 303.5,260.5C 301.787,259.365 301.12,257.698 301.5,255.5 Z"/></g>
<g><path style="opacity:0.192" fill="#f7d7fc" d="M 291.5,253.5 C 294.742,260.327 297.742,267.327 300.5,274.5C 296.156,268.138 293.156,261.138 291.5,253.5 Z"/></g>
<g><path style="opacity:0.906" fill="#f3befa" d="M 303.5,260.5 C 304.674,261.514 305.34,262.847 305.5,264.5C 303.824,263.817 303.157,262.483 303.5,260.5 Z"/></g>
<g><path style="opacity:1" fill="#eda4f8" d="M 627.5,270.5 C 627.882,274.72 626.216,277.72 622.5,279.5C 623.917,276.331 625.583,273.331 627.5,270.5 Z"/></g>
<g><path style="opacity:0.137" fill="#f8ddfc" d="M 633.5,277.5 C 633.573,279.027 632.906,280.027 631.5,280.5C 631.427,278.973 632.094,277.973 633.5,277.5 Z"/></g>
<g><path style="opacity:0.392" fill="#f5ccfb" d="M 313.5,280.5 C 314.906,280.973 315.573,281.973 315.5,283.5C 314.094,283.027 313.427,282.027 313.5,280.5 Z"/></g>
<g><path style="opacity:0.361" fill="#f5ccfb" d="M 621.5,281.5 C 621.573,283.027 620.906,284.027 619.5,284.5C 619.427,282.973 620.094,281.973 621.5,281.5 Z"/></g>
<g><path style="opacity:0.157" fill="#f7dafc" d="M 630.5,282.5 C 630.573,284.027 629.906,285.027 628.5,285.5C 628.427,283.973 629.094,282.973 630.5,282.5 Z"/></g>
<g><path style="opacity:0.392" fill="#f5ccfb" d="M 316.5,285.5 C 317.906,285.973 318.573,286.973 318.5,288.5C 317.094,288.027 316.427,287.027 316.5,285.5 Z"/></g>
<g><path style="opacity:0.529" fill="#f2bdfa" d="M 618.5,286.5 C 618.573,288.027 617.906,289.027 616.5,289.5C 616.427,287.973 617.094,286.973 618.5,286.5 Z"/></g>
<g><path style="opacity:0.463" fill="#f4cafb" d="M 318.5,288.5 C 319.906,288.973 320.573,289.973 320.5,291.5C 319.094,291.027 318.427,290.027 318.5,288.5 Z"/></g>
<g><path style="opacity:0.761" fill="#f4c5fb" d="M 320.5,291.5 C 322.262,292.262 323.262,293.596 323.5,295.5C 321.738,294.738 320.738,293.404 320.5,291.5 Z"/></g>
<g><path style="opacity:0.878" fill="#f3c3fb" d="M 314.5,297.5 C 316.446,298.035 317.446,299.368 317.5,301.5C 316.026,300.564 315.026,299.23 314.5,297.5 Z"/></g>
<g><path style="opacity:0.463" fill="#f4c8fb" d="M 323.5,295.5 C 324.906,295.973 325.573,296.973 325.5,298.5C 324.094,298.027 323.427,297.027 323.5,295.5 Z"/></g>
<g><path style="opacity:0.62" fill="#f4c9fb" d="M 325.5,298.5 C 327.587,299.585 328.92,301.251 329.5,303.5C 327.413,302.415 326.08,300.749 325.5,298.5 Z"/></g>
<g><path style="opacity:0.914" fill="#f2bdfa" d="M 317.5,301.5 C 319.446,302.035 320.446,303.368 320.5,305.5C 319.026,304.564 318.026,303.23 317.5,301.5 Z"/></g>
<g><path style="opacity:0.545" fill="#f4c6fb" d="M 606.5,302.5 C 605.92,304.749 604.587,306.415 602.5,307.5C 603.08,305.251 604.413,303.585 606.5,302.5 Z"/></g>
<g><path style="opacity:0.584" fill="#f3c5fa" d="M 320.5,305.5 C 322.531,306.539 323.864,308.205 324.5,310.5C 322.457,309.421 321.124,307.754 320.5,305.5 Z"/></g>
<g><path style="opacity:0.831" fill="#f3c3fb" d="M 333.5,307.5 C 335.587,308.585 336.92,310.251 337.5,312.5C 335.413,311.415 334.08,309.749 333.5,307.5 Z"/></g>
<g><path style="opacity:0.012" fill="#f9ddfc" d="M 611.5,309.5 C 611.573,311.027 610.906,312.027 609.5,312.5C 609.427,310.973 610.094,309.973 611.5,309.5 Z"/></g>
<g><path style="opacity:0.851" fill="#f0aef9" d="M 598.5,311.5 C 597.167,314.833 594.833,317.167 591.5,318.5C 593.5,315.833 595.833,313.5 598.5,311.5 Z"/></g>
<g><path style="opacity:0.541" fill="#f6d1fb" d="M 342.5,316.5 C 344.5,317.833 346.167,319.5 347.5,321.5C 344.833,320.833 343.167,319.167 342.5,316.5 Z"/></g>
<g><path style="opacity:0.824" fill="#f4c7fa" d="M 331.5,318.5 C 333.749,319.08 335.415,320.413 336.5,322.5C 334.251,321.92 332.585,320.587 331.5,318.5 Z"/></g>
<g><path style="opacity:0.012" fill="#f9e0fc" d="M 351.5,325.5 C 353.027,325.427 354.027,326.094 354.5,327.5C 352.973,327.573 351.973,326.906 351.5,325.5 Z"/></g>
<g><path style="opacity:0.831" fill="#f0b5fa" d="M 586.5,323.5 C 585.089,325.914 583.089,327.581 580.5,328.5C 581.911,326.086 583.911,324.419 586.5,323.5 Z"/></g>
<g><path style="opacity:0.804" fill="#f3c4fa" d="M 344.5,330.5 C 346.404,330.738 347.738,331.738 348.5,333.5C 346.596,333.262 345.262,332.262 344.5,330.5 Z"/></g>
<g><path style="opacity:0.016" fill="#f9e3fd" d="M 592.5,329.5 C 592.027,330.906 591.027,331.573 589.5,331.5C 589.973,330.094 590.973,329.427 592.5,329.5 Z"/></g>
<g><path style="opacity:0.894" fill="#eeabf9" d="M 580.5,328.5 C 579.415,330.587 577.749,331.92 575.5,332.5C 576.585,330.413 578.251,329.08 580.5,328.5 Z"/></g>
<g><path style="opacity:0.898" fill="#f2bcfa" d="M 348.5,333.5 C 350.749,334.08 352.415,335.413 353.5,337.5C 351.251,336.92 349.585,335.587 348.5,333.5 Z"/></g>
<g><path style="opacity:0.659" fill="#f3c0fa" d="M 575.5,332.5 C 575.027,333.906 574.027,334.573 572.5,334.5C 572.973,333.094 573.973,332.427 575.5,332.5 Z"/></g>
<g><path style="opacity:0.875" fill="#f3c0fb" d="M 353.5,337.5 C 355.749,338.08 357.415,339.413 358.5,341.5C 356.251,340.92 354.585,339.587 353.5,337.5 Z"/></g>
<g><path style="opacity:0.894" fill="#f3bdfa" d="M 369.5,338.5 C 371.23,339.026 372.564,340.026 373.5,341.5C 371.368,341.446 370.035,340.446 369.5,338.5 Z"/></g>
<g><path style="opacity:0.655" fill="#f3c4fa" d="M 566.5,338.5 C 566.027,339.906 565.027,340.573 563.5,340.5C 563.973,339.094 564.973,338.427 566.5,338.5 Z"/></g>
<g><path style="opacity:0.847" fill="#f3befb" d="M 358.5,341.5 C 360.404,341.738 361.738,342.738 362.5,344.5C 360.596,344.262 359.262,343.262 358.5,341.5 Z"/></g>
<g><path style="opacity:0.914" fill="#f2bcfa" d="M 377.5,343.5 C 379.368,344.263 381.035,345.263 382.5,346.5C 379.966,346.741 378.3,345.741 377.5,343.5 Z"/></g>
<g><path style="opacity:0.455" fill="#f4c6fa" d="M 364.5,345.5 C 366.027,345.427 367.027,346.094 367.5,347.5C 365.973,347.573 364.973,346.906 364.5,345.5 Z"/></g>
<g><path style="opacity:0.616" fill="#f2bdfa" d="M 556.5,344.5 C 555.514,346.408 553.848,347.408 551.5,347.5C 552.659,345.75 554.326,344.75 556.5,344.5 Z"/></g>
<g><path style="opacity:0.016" fill="#f9e0fd" d="M 569.5,346.5 C 569.027,347.906 568.027,348.573 566.5,348.5C 566.973,347.094 567.973,346.427 569.5,346.5 Z"/></g>
<g><path style="opacity:0.294" fill="#f7d4fc" d="M 367.5,347.5 C 369.027,347.427 370.027,348.094 370.5,349.5C 368.973,349.573 367.973,348.906 367.5,347.5 Z"/></g>
<g><path style="opacity:0.012" fill="#f8e1fc" d="M 566.5,348.5 C 566.027,349.906 565.027,350.573 563.5,350.5C 563.973,349.094 564.973,348.427 566.5,348.5 Z"/></g>
<g><path style="opacity:0.329" fill="#f6d0fc" d="M 372.5,350.5 C 374.027,350.427 375.027,351.094 375.5,352.5C 373.973,352.573 372.973,351.906 372.5,350.5 Z"/></g>
<g><path style="opacity:0.38" fill="#f6d4fb" d="M 410.5,358.5 C 412.786,358.595 414.786,359.262 416.5,360.5C 414.102,360.741 412.102,360.074 410.5,358.5 Z"/></g>
<g><path style="opacity:0.039" fill="#f7d8fc" d="M 416.5,360.5 C 425.948,362.533 435.282,364.533 444.5,366.5C 434.701,366.142 425.367,364.142 416.5,360.5 Z"/></g>
<g><path style="opacity:0.706" fill="#f3c1fa" d="M 536.5,354.5 C 536.389,355.117 536.056,355.617 535.5,356C 520.954,361.553 505.954,365.053 490.5,366.5C 506.045,363.779 521.379,359.779 536.5,354.5 Z"/></g>
<g><path style="opacity:0.831" fill="#f3c2fa" d="M 401.5,364.5 C 403.698,364.12 405.365,364.787 406.5,366.5C 404.597,366.204 402.93,365.537 401.5,364.5 Z"/></g>
<g><path style="opacity:0.925" fill="#f2bcfa" d="M 407.5,366.5 C 412.176,367.061 416.509,368.394 420.5,370.5C 415.824,369.939 411.491,368.606 407.5,366.5 Z"/></g>
<g><path style="opacity:0.306" fill="#f3c3fb" d="M 445.5,366.5 C 460.5,367.833 475.5,367.833 490.5,366.5C 488.708,367.309 486.708,367.809 484.5,368C 472.167,368.667 459.833,368.667 447.5,368C 446.584,367.722 445.918,367.222 445.5,366.5 Z"/></g>
<g><path style="opacity:0.071" fill="#f8dcfc" d="M 525.5,367.5 C 524.07,368.537 522.403,369.204 520.5,369.5C 521.635,367.787 523.302,367.12 525.5,367.5 Z"/></g>
<g><path style="opacity:0.694" fill="#f5cdfb" d="M 420.5,370.5 C 425.412,370.898 430.079,371.898 434.5,373.5C 429.523,373.419 424.857,372.419 420.5,370.5 Z"/></g>
<g><path style="opacity:0.192" fill="#f8dbfc" d="M 515.5,370.5 C 511.425,372.118 507.092,373.118 502.5,373.5C 506.474,371.425 510.808,370.425 515.5,370.5 Z"/></g>
<g><path style="opacity:0.021" fill="#fcf2fe" d="M 487.5,375.5 C 483.5,376.167 479.5,376.833 475.5,377.5C 470.5,377.5 465.5,377.5 460.5,377.5C 460.5,377.167 460.5,376.833 460.5,376.5C 469.498,376.119 478.498,375.786 487.5,375.5 Z"/></g>
</svg>
